M48
INCH
T01C0.0118
T02C0.0157
T03C0.034
T04C0.0394
T05C0.0472
T06C0.0551
T07C0.1102
%
T01
X+015043Y+012956
X+015476Y+012956
X+015909Y+012956
X+015909Y+012523
X+015909Y+012090
X+015476Y+012090
X+015043Y+012090
X+015043Y+012523
X+015476Y+012523
X+015476Y+011657
X+015043Y+011657
X+015043Y+011224
X+015476Y+011224
X+015909Y+011224
X+015909Y+011657
X+016381Y+011657
X+016381Y+012090
X+016381Y+012523
X+016381Y+012956
X+016381Y+011224
X+016381Y+010791
X+016381Y+010357
X+016381Y+009924
X+016381Y+009491
X+016381Y+009058
X+015909Y+009058
X+015909Y+009491
X+015909Y+009924
X+015909Y+010357
X+015909Y+010791
X+015476Y+010791
X+015043Y+010791
X+015043Y+010357
X+015043Y+009924
X+015476Y+009924
X+015476Y+010357
X+015476Y+009491
X+015043Y+009491
X+015043Y+009058
X+015476Y+009058
T02
X+004550Y+017617
X+005200Y+017972
X+005850Y+017617
X+005850Y+016830
X+005200Y+016436
X+004550Y+016830
X+004373Y+015751
X+004373Y+014176
X+004373Y+012602
X+004373Y+011027
X+004373Y+009452
X+004373Y+007877
X+004373Y+006302
X+004550Y+005609
X+005200Y+005964
X+005850Y+005609
X+005850Y+004822
X+005200Y+004428
X+004550Y+004822
X+006696Y+004373
X+008271Y+004373
X+009846Y+004373
X+011420Y+004373
X+012995Y+004373
X+014570Y+004373
X+016145Y+004373
X+017720Y+004373
X+018783Y+004491
X+018783Y+004846
X+018783Y+005239
X+019294Y+004373
X+020476Y+005121
X+020869Y+004373
X+022050Y+005121
X+022444Y+004373
X+023625Y+005121
X+024019Y+004373
X+025200Y+005121
X+025594Y+004373
X+026361Y+004822
X+027011Y+004428
X+027661Y+004822
X+027661Y+005609
X+027917Y+006302
X+027011Y+005964
X+026361Y+005609
X+025200Y+006696
X+023625Y+006696
X+022050Y+006696
X+020476Y+006696
X+019019Y+008231
X+019019Y+008625
X+016932Y+008271
X+016932Y+007483
X+015751Y+007483
X+015751Y+008271
X+014570Y+008271
X+014570Y+007483
X+013389Y+007483
X+013389Y+008271
X+012208Y+008271
X+012208Y+007483
X+011027Y+007483
X+011027Y+008271
X+010869Y+008704
X+011499Y+008704
X+011578Y+009649
X+013192Y+009609
X+013704Y+009491
X+010554Y+011381
X+009806Y+011027
X+011066Y+012129
X+008507Y+014137
X+008113Y+014058
X+008468Y+015476
X+008113Y+015672
X+012365Y+017090
X+013192Y+015830
X+013586Y+015830
X+013586Y+015436
X+013192Y+015436
X+013980Y+015436
X+013980Y+015830
X+014570Y+014373
X+014570Y+013586
X+015751Y+013586
X+015751Y+014373
X+016932Y+014373
X+016932Y+013586
X+019019Y+013665
X+019019Y+014058
X+020476Y+015751
X+020476Y+017326
X+020869Y+018074
X+022050Y+017326
X+022444Y+018074
X+023625Y+017326
X+024019Y+018074
X+025200Y+017326
X+025594Y+018074
X+026361Y+017617
X+027011Y+017972
X+027661Y+017617
X+027661Y+016830
X+027011Y+016436
X+026361Y+016830
X+025200Y+015751
X+023625Y+015751
X+022050Y+015751
X+024137Y+013153
X+024531Y+013153
X+027917Y+012602
X+027917Y+011027
X+027917Y+009452
X+027917Y+007877
X+024531Y+009137
X+024137Y+009137
X+027917Y+014176
X+027917Y+015751
X+019294Y+018074
X+018783Y+017877
X+018783Y+017483
X+018783Y+017090
X+017720Y+018074
X+016145Y+018074
T03
X+009814Y+017720
X+008814Y+017720
X+007814Y+017720
X+006814Y+017720
X+010814Y+017720
X+013428Y+017720
X+014428Y+017720
X+014428Y+016720
X+013428Y+016720
X+006909Y+010869
X+005909Y+010869
T04
X+008113Y+007680G85X+008113Y+008861
X+007424Y+006342G85X+006440Y+006342
X+005751Y+007779G85X+005751Y+008763
T05
X+004964Y+013861
X+007326Y+013861
T06
X+026578Y+012326
X+026578Y+014294
X+026578Y+009964
X+026578Y+007995
T07
X+005200Y+017208
X+005200Y+005200
X+027011Y+005200
X+027011Y+017208
T00
M30
