G04 DipTrace 3.1.0.1*
G04 TPA3128D2route.Top.gbr*
%MOIN*%
G04 #@! TF.FileFunction,Copper,L1,Top*
G04 #@! TF.Part,Single*
G04 #@! TA.AperFunction,Conductor*
%ADD14C,0.011811*%
%ADD15C,0.019685*%
%ADD16C,0.070866*%
G04 #@! TA.AperFunction,CopperBalancing*
%ADD18C,0.003937*%
%ADD20R,0.062992X0.122047*%
%ADD21R,0.031496X0.031496*%
%ADD22R,0.043307X0.051181*%
%ADD23R,0.059055X0.141732*%
G04 #@! TA.AperFunction,ComponentPad*
%ADD24C,0.094488*%
%ADD25O,0.06X0.07*%
%ADD26O,0.07874X0.19685*%
%ADD27O,0.07874X0.177165*%
%ADD28O,0.177165X0.07874*%
%ADD29C,0.19685*%
%ADD30R,0.070866X0.011811*%
%ADD31R,0.161417X0.173228*%
G04 #@! TA.AperFunction,ViaPad*
%ADD33C,0.031496*%
%ADD35C,0.023622*%
%FSLAX26Y26*%
G04*
G70*
G90*
G75*
G01*
G04 Top*
%LPD*%
X1197165Y1260157D2*
D14*
X1063307D1*
X878268Y1445197D1*
X665669D1*
X500315Y1279843D1*
Y1240472D1*
X1197165Y1012126D2*
X870394D1*
X618425Y1264094D1*
X523937D1*
X500315Y1240472D1*
Y1177480D1*
X590866Y1086929D1*
X1716850Y986535D2*
X1777874D1*
X1842835Y921575D1*
X1941260D1*
X1943228Y919606D1*
X1716850Y1140079D2*
X1943228D1*
X1716850Y1088898D2*
X1943228D1*
X1716850Y1242441D2*
X1785748D1*
X1854646Y1311339D1*
X1941260D1*
X1943228Y1309370D1*
X1425512Y1242441D2*
X1380236D1*
X972756Y1649921D1*
Y1763307D1*
X981417Y1771969D1*
X1425512Y1114488D2*
X1181417D1*
X1145984Y1149921D1*
X1197165Y1157795D2*
X1153858D1*
X1145984Y1149921D1*
X1197165Y1208976D2*
X1145984D1*
X2421575Y968819D2*
Y921575D1*
X2413701Y913701D1*
X2421575Y968819D2*
Y945197D1*
X2453071Y913701D1*
X2421575Y870394D2*
Y905827D1*
X2413701Y913701D1*
X2421575Y870394D2*
Y882205D1*
X2453071Y913701D1*
X2421575Y1260157D2*
Y1307402D1*
X2413701Y1315276D1*
X2421575Y1260157D2*
Y1283780D1*
X2453071Y1315276D1*
X2421575Y1358583D2*
Y1323150D1*
X2413701Y1315276D1*
X2421575Y1358583D2*
Y1346772D1*
X2453071Y1315276D1*
X1425512Y1165669D2*
X1358583D1*
X1264094D1*
X1256220Y1157795D1*
X1425512Y1140079D2*
X1384173D1*
X1358583Y1165669D1*
X1256220Y1208976D2*
D15*
Y1157795D1*
X1197165Y1063307D2*
D14*
X897953D1*
X768031Y1193228D1*
Y1240472D1*
X775906D1*
X1197165Y1311339D2*
X1134173D1*
X941260Y1504252D1*
X579055D1*
Y1531811D1*
X1425512Y1037717D2*
X1356614D1*
X1331024Y1012126D1*
X1256220D1*
X1425512Y1063307D2*
X1256220D1*
X1425512Y1293622D2*
X1392047D1*
X1275906Y1409764D1*
Y1728661D1*
X1232598Y1771969D1*
X1342835D1*
X1425512Y1012126D2*
X1370394D1*
X1319213Y960945D1*
X1256220D1*
X1319213D2*
D3*
X1055433Y1138110D2*
Y1208976D1*
X850709Y1413701D1*
X846772Y1547559D2*
Y1716850D1*
X901890Y1771969D1*
X881417D1*
X2236535Y823150D2*
X2299528D1*
X2346772Y870394D1*
X2236535Y823150D2*
Y811339D1*
X2645984D1*
X2657795Y799528D1*
X2240472Y1212913D2*
X2299528D1*
X2346772Y1260157D1*
X2240472Y1212913D2*
Y1201102D1*
X2626299D1*
X2657795Y1232598D1*
X2236535Y1016063D2*
Y1027874D1*
X2626299D1*
X2657795Y996378D1*
X2236535Y1016063D2*
X2299528D1*
X2346772Y968819D1*
X2240472Y1405827D2*
X2299528D1*
X2346772Y1358583D1*
X2657795Y1429449D2*
X2264094D1*
X2240472Y1405827D1*
X1716850Y1012126D2*
X1823150D1*
X1854646Y980630D1*
X1941260D1*
X1943228Y978661D1*
X1962913D1*
X2118425Y823150D1*
X1716850Y1165669D2*
X1842835D1*
X1878268Y1201102D1*
X1941260D1*
X1943228Y1199134D1*
X2108583D1*
X2122362Y1212913D1*
X1716850Y1063307D2*
X1846772D1*
X1882205Y1027874D1*
X1941260D1*
X1943228Y1029843D1*
X2104646D1*
X2118425Y1016063D1*
X1716850Y1216850D2*
X1850709D1*
X1882205Y1248346D1*
X1941260D1*
X1943228Y1250315D1*
X1966850D1*
X2122362Y1405827D1*
X1425512Y909764D2*
X1256220D1*
X1081417Y1771969D2*
X1173543D1*
Y1669606D1*
X1823150Y661732D2*
D16*
X976693D1*
X811339Y827087D1*
X1397953Y1543622D2*
D14*
X1799528D1*
X1823150Y1567244D1*
X1716850Y1293622D2*
X1773937D1*
X1803465Y1323150D1*
Y1354646D1*
X1716850Y1268031D2*
X1771969D1*
X1803465Y1299528D1*
Y1323150D1*
Y1405827D2*
Y1547559D1*
X1823150Y1567244D1*
X1803465Y823150D2*
Y681417D1*
X1823150Y661732D1*
X1803465Y823150D2*
Y874331D1*
X1716850Y909764D2*
X1775906D1*
X1795591Y890079D1*
Y882205D1*
X1803465Y874331D1*
X1716850Y935354D2*
X1766063D1*
X1795591Y905827D1*
Y882205D1*
X1716850Y960945D2*
X1764094D1*
X1803465Y921575D1*
Y874331D1*
X1425512Y1191260D2*
X1360551D1*
X1291654Y1260157D1*
X1256220D1*
X1425512Y1216850D2*
X1370394D1*
X1275906Y1311339D1*
X1256220D1*
X1425512Y1268031D2*
X1386142D1*
X1236535Y1417638D1*
Y1665669D1*
X1232598Y1669606D1*
Y1705039D1*
X1236535Y1708976D1*
X1197165Y909764D2*
X1145984D1*
Y874331D1*
X1149921Y870394D1*
X980630Y1102677D2*
Y1236535D1*
X811339Y1405827D1*
X781417Y1771969D2*
Y1597165D1*
X811339Y1567244D1*
D33*
X455039Y1761732D3*
Y1682992D3*
X2636142Y1761732D3*
Y1682992D3*
X520000Y1797165D3*
Y1643622D3*
X2701102Y1797165D3*
Y1643622D3*
X584961Y1761732D3*
Y1682992D3*
X2766063Y1761732D3*
Y1682992D3*
X2636142Y560945D3*
Y482205D3*
X2701102Y596378D3*
Y442835D3*
X2766063Y560945D3*
Y482205D3*
X455039Y560945D3*
Y482205D3*
X520000Y596378D3*
Y442835D3*
X584961Y560945D3*
Y482205D3*
D35*
X1504252Y1295591D3*
X1547559D3*
X1590866D3*
X1638110D3*
X1504252Y1252283D3*
X1547559D3*
X1590866D3*
X1638110D3*
X1504252Y1208976D3*
X1547559D3*
X1590866D3*
X1638110D3*
X1504252Y1165669D3*
X1547559D3*
X1590866D3*
X1638110D3*
X1504252Y1122362D3*
X1547559D3*
X1590866D3*
X1638110D3*
X1504252Y1079055D3*
X1547559D3*
X1590866D3*
X1638110D3*
X1504252Y1035748D3*
X1547559D3*
X1590866D3*
X1638110D3*
X1504252Y992441D3*
X1547559D3*
X1590866D3*
X1638110D3*
X1504252Y949134D3*
X1547559D3*
X1590866D3*
X1638110D3*
X1504252Y905827D3*
X1547559D3*
X1590866D3*
X1638110D3*
D33*
X1319213Y1582992D3*
Y1543622D3*
X1358583D3*
Y1582992D3*
X1397953D3*
Y1543622D3*
X2413701Y1315276D3*
X2453071D3*
X2413701Y913701D3*
X2453071D3*
X1878268Y1787717D3*
Y1748346D3*
Y1708976D3*
Y523937D3*
Y484567D3*
Y449134D3*
X1901890Y1405827D3*
Y1366457D3*
Y862520D3*
Y823150D3*
X1086929Y870394D3*
X1157795Y964882D3*
X1106614Y1212913D3*
X1149921Y870394D3*
X980630Y1102677D3*
X811339Y1405827D3*
Y1567244D3*
X1319213Y960945D3*
X1055433Y1138110D3*
X850709Y1413701D3*
X846772Y1547559D3*
X1236535Y1708976D3*
X669606Y437323D3*
X827087D3*
X984567D3*
X1142047D3*
X1299528D3*
X1457008D3*
X1614488D3*
X1771969D3*
X1929449D3*
X2086929D3*
X2244409D3*
X2401890D3*
X2559370D3*
X1614488Y1807402D3*
X1771969D3*
X1929449D3*
X2086929D3*
X2244409D3*
X2401890D3*
X2559370D3*
X2791654Y1575118D3*
Y1417638D3*
Y1260157D3*
Y1102677D3*
Y945197D3*
Y787717D3*
Y630236D3*
X437323Y1575118D3*
Y1417638D3*
Y1260157D3*
Y1102677D3*
Y945197D3*
Y787717D3*
Y630236D3*
X1457008Y1437323D3*
X1575118D3*
X1693228D3*
X1457008Y1358583D3*
X1575118D3*
X1693228D3*
X1457008Y827087D3*
X1575118D3*
X1693228D3*
X1457008Y748346D3*
X1575118D3*
X1693228D3*
X1102677Y827087D3*
X1220787D3*
X1338898D3*
X1102677Y748346D3*
X1220787D3*
X1338898D3*
X2047559Y669606D3*
X2205039D3*
X2362520D3*
X2520000D3*
X2047559Y512126D3*
X2205039D3*
X2362520D3*
X2520000D3*
X2047559Y1732598D3*
X2205039D3*
X2362520D3*
X2520000D3*
X2047559Y1575118D3*
X2205039D3*
X2362520D3*
X2520000D3*
X1370394Y949134D3*
X581567Y1817375D2*
D18*
X759237D1*
X1365016D2*
X2639535D1*
X587196Y1813570D2*
X753316D1*
X1370937D2*
X2633906D1*
X592186Y1809764D2*
X748902D1*
X1375351D2*
X2628916D1*
X596669Y1805958D2*
X745427D1*
X1378819D2*
X2624433D1*
X600714Y1802152D2*
X742643D1*
X1381610D2*
X2620388D1*
X604397Y1798346D2*
X740398D1*
X1383856D2*
X2616705D1*
X607758Y1794541D2*
X738614D1*
X1385640D2*
X2613345D1*
X610833Y1790735D2*
X737230D1*
X1387024D2*
X2610269D1*
X613648Y1786929D2*
X736215D1*
X1388039D2*
X2607455D1*
X616239Y1783123D2*
X735530D1*
X1388723D2*
X2604863D1*
X618607Y1779318D2*
X735177D1*
X1389077D2*
X2602495D1*
X620776Y1775512D2*
X735115D1*
X1389131D2*
X2600326D1*
X622760Y1771706D2*
X735115D1*
X1389131D2*
X2598343D1*
X624567Y1767900D2*
X735115D1*
X1389131D2*
X2596536D1*
X626205Y1764094D2*
X735207D1*
X1389046D2*
X2594898D1*
X627681Y1760289D2*
X735607D1*
X1388646D2*
X2593421D1*
X629011Y1756483D2*
X736330D1*
X1387923D2*
X2592091D1*
X630188Y1752677D2*
X737399D1*
X1386855D2*
X2590915D1*
X631218Y1748871D2*
X738837D1*
X1385417D2*
X2589884D1*
X632118Y1745066D2*
X740682D1*
X1383571D2*
X2588985D1*
X632879Y1741260D2*
X742989D1*
X1381257D2*
X2588223D1*
X633502Y1737454D2*
X745865D1*
X1378388D2*
X2587600D1*
X634002Y1733648D2*
X749448D1*
X1374805D2*
X2587101D1*
X634363Y1729843D2*
X754024D1*
X1370230D2*
X2586739D1*
X634602Y1726037D2*
X759214D1*
X1364009D2*
X2586501D1*
X634717Y1722231D2*
X759214D1*
X1353521D2*
X2586385D1*
X634701Y1718425D2*
X759214D1*
X1362940D2*
X2586401D1*
X634555Y1714619D2*
X759214D1*
X1369492D2*
X2586547D1*
X634286Y1710814D2*
X759214D1*
X1374244D2*
X2586816D1*
X633894Y1707008D2*
X759214D1*
X1377942D2*
X2587208D1*
X633364Y1703202D2*
X759214D1*
X1380903D2*
X2587739D1*
X632702Y1699396D2*
X759214D1*
X1383279D2*
X2588400D1*
X631910Y1695591D2*
X759214D1*
X1385186D2*
X2589192D1*
X630987Y1691785D2*
X759214D1*
X1386678D2*
X2590115D1*
X629919Y1687979D2*
X759214D1*
X1387793D2*
X2591184D1*
X628704Y1684173D2*
X759214D1*
X1388562D2*
X2592399D1*
X627343Y1680367D2*
X759214D1*
X1389008D2*
X2593760D1*
X625828Y1676562D2*
X759214D1*
X1389131D2*
X2595275D1*
X624144Y1672756D2*
X759214D1*
X1389131D2*
X2596959D1*
X622298Y1668950D2*
X759214D1*
X1389131D2*
X2598804D1*
X620268Y1665144D2*
X759214D1*
X1389100D2*
X2600834D1*
X2801371D2*
X2805043D1*
X618054Y1661339D2*
X759214D1*
X1388785D2*
X2603049D1*
X2799156D2*
X2805043D1*
X615632Y1657533D2*
X759214D1*
X1388154D2*
X2605471D1*
X2796734D2*
X2805043D1*
X423941Y1653727D2*
X427002D1*
X612994D2*
X759214D1*
X1387185D2*
X2608108D1*
X2794096D2*
X2805043D1*
X423941Y1649921D2*
X429889D1*
X610111D2*
X759214D1*
X1385855D2*
X2610992D1*
X2791213D2*
X2805043D1*
X423941Y1646115D2*
X433027D1*
X606973D2*
X759214D1*
X1298110D2*
X1301545D1*
X1384125D2*
X2614129D1*
X2788076D2*
X2805043D1*
X423941Y1642310D2*
X436464D1*
X603536D2*
X759214D1*
X1298110D2*
X1303721D1*
X1381949D2*
X1775354D1*
X1870945D2*
X2617566D1*
X2784638D2*
X2805043D1*
X423941Y1638504D2*
X440224D1*
X599776D2*
X759214D1*
X1298110D2*
X1306427D1*
X1379242D2*
X1775354D1*
X1870945D2*
X2621326D1*
X2780878D2*
X2805043D1*
X423941Y1634698D2*
X444369D1*
X595631D2*
X759214D1*
X1298110D2*
X1309795D1*
X1375874D2*
X1775354D1*
X1870945D2*
X2625471D1*
X2776734D2*
X2805043D1*
X423941Y1630892D2*
X448967D1*
X591033D2*
X759214D1*
X1298110D2*
X1314055D1*
X1371614D2*
X1775354D1*
X1870945D2*
X2630069D1*
X2772135D2*
X2805043D1*
X423941Y1627087D2*
X454096D1*
X585904D2*
X759214D1*
X1298110D2*
X1319707D1*
X1365962D2*
X1775354D1*
X1870945D2*
X2635198D1*
X2767006D2*
X2805043D1*
X423941Y1623281D2*
X459909D1*
X580091D2*
X759214D1*
X1298110D2*
X1328342D1*
X1357327D2*
X1775354D1*
X1870945D2*
X2641011D1*
X2761193D2*
X2805043D1*
X423941Y1619475D2*
X466622D1*
X573378D2*
X759214D1*
X1298110D2*
X1775354D1*
X1870945D2*
X2647724D1*
X2754480D2*
X2805043D1*
X423941Y1615669D2*
X474642D1*
X624882D2*
X759214D1*
X1298110D2*
X1775354D1*
X1870945D2*
X2655744D1*
X2746460D2*
X2805043D1*
X423941Y1611864D2*
X484861D1*
X624882D2*
X759214D1*
X1870945D2*
X2665964D1*
X2736241D2*
X2805043D1*
X423941Y1608058D2*
X500540D1*
X624882D2*
X759214D1*
X1870945D2*
X2681643D1*
X2720562D2*
X2805043D1*
X423941Y1604252D2*
X533228D1*
X624882D2*
X759214D1*
X1870945D2*
X2805043D1*
X423941Y1600446D2*
X533228D1*
X624882D2*
X759214D1*
X1870945D2*
X2805043D1*
X423941Y1596640D2*
X533228D1*
X624882D2*
X759222D1*
X1870945D2*
X2805043D1*
X423941Y1592835D2*
X533228D1*
X624882D2*
X759645D1*
X1870945D2*
X2805043D1*
X423941Y1589029D2*
X533228D1*
X624882D2*
X760790D1*
X1870945D2*
X2805043D1*
X423941Y1585223D2*
X533228D1*
X624882D2*
X762774D1*
X1870945D2*
X2805043D1*
X423941Y1581417D2*
X533228D1*
X624882D2*
X765927D1*
X1870945D2*
X2805043D1*
X423941Y1577612D2*
X533228D1*
X624882D2*
X769733D1*
X1870945D2*
X2805043D1*
X423941Y1573806D2*
X533228D1*
X624882D2*
X773539D1*
X1870945D2*
X2805043D1*
X423941Y1570000D2*
X533228D1*
X624882D2*
X777346D1*
X1870945D2*
X2805043D1*
X423941Y1566194D2*
X533228D1*
X624882D2*
X779307D1*
X1870945D2*
X2805043D1*
X423941Y1562388D2*
X533228D1*
X624882D2*
X779668D1*
X1870945D2*
X2805043D1*
X423941Y1558583D2*
X533228D1*
X624882D2*
X780498D1*
X1870945D2*
X2805043D1*
X423941Y1554777D2*
X533228D1*
X624882D2*
X781852D1*
X1870945D2*
X2805043D1*
X423941Y1550971D2*
X533228D1*
X624882D2*
X783797D1*
X1870945D2*
X2805043D1*
X423941Y1547165D2*
X533228D1*
X624882D2*
X786473D1*
X1870945D2*
X2805043D1*
X423941Y1543360D2*
X533228D1*
X624882D2*
X790172D1*
X1870945D2*
X2805043D1*
X423941Y1539554D2*
X533228D1*
X624882D2*
X795608D1*
X1870945D2*
X2805043D1*
X423941Y1535748D2*
X533228D1*
X624882D2*
X807788D1*
X814889D2*
X817008D1*
X1870945D2*
X2805043D1*
X423941Y1531942D2*
X533228D1*
X624882D2*
X818846D1*
X1870945D2*
X2805043D1*
X423941Y1528136D2*
X533228D1*
X624882D2*
X821383D1*
X1870945D2*
X2805043D1*
X423941Y1524331D2*
X533228D1*
X1870945D2*
X2805043D1*
X423941Y1520525D2*
X533228D1*
X1870945D2*
X2805043D1*
X423941Y1516719D2*
X533228D1*
X1870945D2*
X2805043D1*
X423941Y1512913D2*
X533228D1*
X1870945D2*
X2805043D1*
X423941Y1509108D2*
X533228D1*
X1298110D2*
X1732047D1*
X1870945D2*
X2805043D1*
X423941Y1505302D2*
X533228D1*
X1298110D2*
X1732047D1*
X1870945D2*
X2805043D1*
X423941Y1501496D2*
X533228D1*
X1298110D2*
X1732047D1*
X1870945D2*
X2805043D1*
X423941Y1497690D2*
X533228D1*
X1298110D2*
X1732047D1*
X1870945D2*
X2805043D1*
X423941Y1493885D2*
X533228D1*
X1298110D2*
X1732047D1*
X1870945D2*
X2805043D1*
X423941Y1490079D2*
X533228D1*
X1298110D2*
X1732047D1*
X1864817D2*
X2076535D1*
X2168189D2*
X2194646D1*
X2714026D2*
X2805043D1*
X423941Y1486273D2*
X533228D1*
X1298110D2*
X1732047D1*
X1863256D2*
X2076535D1*
X2168189D2*
X2194646D1*
X2718132D2*
X2805043D1*
X423941Y1482467D2*
X533228D1*
X1298110D2*
X1732047D1*
X1861702D2*
X2076535D1*
X2168189D2*
X2194646D1*
X2720255D2*
X2805043D1*
X423941Y1478661D2*
X533228D1*
X624882D2*
X935610D1*
X1298110D2*
X1732047D1*
X1860141D2*
X2076535D1*
X2168189D2*
X2194646D1*
X2721216D2*
X2805043D1*
X423941Y1474856D2*
X533228D1*
X624882D2*
X939417D1*
X1298110D2*
X1732047D1*
X1858588D2*
X2074267D1*
X2168189D2*
X2194646D1*
X2721339D2*
X2805043D1*
X423941Y1471050D2*
X533228D1*
X624882D2*
X943223D1*
X1298110D2*
X1732047D1*
X1857035D2*
X2071799D1*
X2168189D2*
X2194646D1*
X2721339D2*
X2805043D1*
X423941Y1467244D2*
X533228D1*
X624882D2*
X947029D1*
X1298110D2*
X1732047D1*
X1855474D2*
X2069330D1*
X2168189D2*
X2194646D1*
X2721339D2*
X2805043D1*
X423941Y1463438D2*
X533228D1*
X624882D2*
X653315D1*
X890622D2*
X950836D1*
X1298110D2*
X1732047D1*
X1853921D2*
X2066862D1*
X2168189D2*
X2194646D1*
X2721339D2*
X2805043D1*
X423941Y1459633D2*
X533228D1*
X624882D2*
X648862D1*
X895075D2*
X954642D1*
X1298110D2*
X1732047D1*
X1852360D2*
X2064401D1*
X2168189D2*
X2194646D1*
X2721339D2*
X2805043D1*
X423941Y1455827D2*
X533228D1*
X624882D2*
X645056D1*
X898881D2*
X958448D1*
X1298110D2*
X1732047D1*
X1850806D2*
X2061933D1*
X2168189D2*
X2194646D1*
X2721339D2*
X2805043D1*
X423941Y1452021D2*
X533228D1*
X624882D2*
X641258D1*
X902679D2*
X962254D1*
X1298110D2*
X1732047D1*
X1849245D2*
X2059465D1*
X2168189D2*
X2194646D1*
X2721339D2*
X2805043D1*
X423941Y1448215D2*
X533228D1*
X624882D2*
X637451D1*
X906486D2*
X966061D1*
X1298110D2*
X1732047D1*
X1847692D2*
X2056996D1*
X2168189D2*
X2194646D1*
X2721339D2*
X2805043D1*
X423941Y1444409D2*
X633645D1*
X910292D2*
X969867D1*
X1298110D2*
X1732047D1*
X1846131D2*
X2054528D1*
X2168189D2*
X2194646D1*
X2721339D2*
X2805043D1*
X423941Y1440604D2*
X629839D1*
X914098D2*
X973666D1*
X1298110D2*
X1732047D1*
X1844578D2*
X2052067D1*
X2168189D2*
X2194646D1*
X2721339D2*
X2805043D1*
X423941Y1436798D2*
X626032D1*
X917905D2*
X977472D1*
X1298110D2*
X1732047D1*
X1843017D2*
X2049599D1*
X2168189D2*
X2194646D1*
X2721339D2*
X2805043D1*
X423941Y1432992D2*
X622226D1*
X921711D2*
X981278D1*
X1298110D2*
X1732047D1*
X1841464D2*
X2047131D1*
X2168189D2*
X2194646D1*
X2721339D2*
X2805043D1*
X423941Y1429186D2*
X618420D1*
X925517D2*
X985084D1*
X1298110D2*
X1732047D1*
X1839903D2*
X2044662D1*
X2168189D2*
X2194646D1*
X2721339D2*
X2805043D1*
X423941Y1425381D2*
X491213D1*
X501543D2*
X614614D1*
X929323D2*
X988891D1*
X1298110D2*
X1732047D1*
X1838349D2*
X2042194D1*
X2168189D2*
X2194646D1*
X2721339D2*
X2805043D1*
X423941Y1421575D2*
X478464D1*
X514292D2*
X610807D1*
X933130D2*
X992697D1*
X1298110D2*
X1732047D1*
X1836788D2*
X2039733D1*
X2168189D2*
X2194646D1*
X2721339D2*
X2805043D1*
X423941Y1417769D2*
X472274D1*
X520482D2*
X607001D1*
X936936D2*
X996503D1*
X1299141D2*
X1732047D1*
X1835512D2*
X2037265D1*
X2168189D2*
X2194646D1*
X2721339D2*
X2805043D1*
X423941Y1413963D2*
X467906D1*
X524850D2*
X603195D1*
X940742D2*
X1000310D1*
X1302947D2*
X1732047D1*
X1835512D2*
X2034797D1*
X2168189D2*
X2194646D1*
X2721339D2*
X2805043D1*
X423941Y1410157D2*
X464592D1*
X528164D2*
X599388D1*
X944549D2*
X1004116D1*
X1306753D2*
X1732047D1*
X1835512D2*
X2032329D1*
X2168189D2*
X2194646D1*
X2721339D2*
X2805043D1*
X423941Y1406352D2*
X462016D1*
X530740D2*
X595582D1*
X948355D2*
X1007922D1*
X1310560D2*
X1732047D1*
X1835512D2*
X2029860D1*
X2168189D2*
X2194646D1*
X2721339D2*
X2805043D1*
X423941Y1402546D2*
X460024D1*
X532731D2*
X591776D1*
X952161D2*
X1011728D1*
X1314366D2*
X1732047D1*
X1835512D2*
X2027400D1*
X2168189D2*
X2194646D1*
X2721339D2*
X2805043D1*
X423941Y1398740D2*
X458517D1*
X534239D2*
X587970D1*
X955967D2*
X1015535D1*
X1318172D2*
X1732047D1*
X1835512D2*
X2024931D1*
X2168189D2*
X2194646D1*
X2721339D2*
X2805043D1*
X423941Y1394934D2*
X457448D1*
X535307D2*
X584171D1*
X959766D2*
X1019341D1*
X1321971D2*
X1732047D1*
X1835512D2*
X2022463D1*
X2168189D2*
X2194646D1*
X2721339D2*
X2805043D1*
X423941Y1391129D2*
X456772D1*
X535984D2*
X580365D1*
X963572D2*
X1023147D1*
X1325777D2*
X1732047D1*
X1835512D2*
X2019995D1*
X2168189D2*
X2194646D1*
X2721339D2*
X2805043D1*
X423941Y1387323D2*
X456472D1*
X536284D2*
X576558D1*
X967379D2*
X1026954D1*
X1329583D2*
X1732047D1*
X1835512D2*
X2017526D1*
X2168189D2*
X2194646D1*
X2721339D2*
X2805043D1*
X423941Y1383517D2*
X456541D1*
X536215D2*
X572752D1*
X971185D2*
X1030752D1*
X1333390D2*
X1732047D1*
X1835512D2*
X2015066D1*
X2168189D2*
X2194646D1*
X2721339D2*
X2805043D1*
X423941Y1379711D2*
X456979D1*
X535776D2*
X568946D1*
X974991D2*
X1034558D1*
X1337196D2*
X1732047D1*
X1835512D2*
X2012597D1*
X2168189D2*
X2194646D1*
X2721139D2*
X2805043D1*
X423941Y1375906D2*
X457802D1*
X534954D2*
X565139D1*
X978798D2*
X1038365D1*
X1341002D2*
X1732047D1*
X1835512D2*
X2010129D1*
X2168189D2*
X2194646D1*
X2720039D2*
X2805043D1*
X423941Y1372100D2*
X459033D1*
X533723D2*
X561333D1*
X982604D2*
X1042171D1*
X1344809D2*
X1732047D1*
X1835512D2*
X2007661D1*
X2168189D2*
X2194646D1*
X2717717D2*
X2805043D1*
X423941Y1368294D2*
X460717D1*
X532039D2*
X557527D1*
X986410D2*
X1045977D1*
X1348615D2*
X1732047D1*
X1835512D2*
X2005200D1*
X2168189D2*
X2194646D1*
X2713142D2*
X2805043D1*
X423941Y1364488D2*
X462916D1*
X529840D2*
X553721D1*
X990216D2*
X1049784D1*
X1352421D2*
X1732047D1*
X1835512D2*
X2002732D1*
X2168189D2*
X2194646D1*
X2689535D2*
X2805043D1*
X423941Y1360682D2*
X465745D1*
X527010D2*
X549914D1*
X994023D2*
X1053590D1*
X1356227D2*
X1732047D1*
X1835512D2*
X2000263D1*
X2168189D2*
X2194646D1*
X2654333D2*
X2805043D1*
X423941Y1356877D2*
X469413D1*
X523343D2*
X546108D1*
X997829D2*
X1057396D1*
X1360034D2*
X1732047D1*
X1835512D2*
X1997795D1*
X2168189D2*
X2194646D1*
X2619130D2*
X2805043D1*
X423941Y1353071D2*
X474335D1*
X518421D2*
X542302D1*
X1001635D2*
X1061202D1*
X1363840D2*
X1732047D1*
X1835512D2*
X1995327D1*
X2168189D2*
X2194646D1*
X2583928D2*
X2805043D1*
X423941Y1349265D2*
X481755D1*
X511001D2*
X538495D1*
X1005442D2*
X1065009D1*
X1367646D2*
X1732047D1*
X1835512D2*
X1992866D1*
X2168189D2*
X2194646D1*
X2548726D2*
X2805043D1*
X423941Y1345459D2*
X534689D1*
X1009248D2*
X1068815D1*
X1371453D2*
X1732047D1*
X1835512D2*
X1990398D1*
X2168189D2*
X2194646D1*
X2513523D2*
X2805043D1*
X423941Y1341654D2*
X530883D1*
X1013054D2*
X1072621D1*
X1375259D2*
X1732047D1*
X1835512D2*
X1987930D1*
X2168189D2*
X2194646D1*
X2478321D2*
X2805043D1*
X423941Y1337848D2*
X527084D1*
X1016853D2*
X1076428D1*
X1379057D2*
X1732047D1*
X1835512D2*
X1911181D1*
X1975276D2*
X1985461D1*
X2168189D2*
X2194646D1*
X2443118D2*
X2805043D1*
X423941Y1334042D2*
X523278D1*
X1020659D2*
X1080234D1*
X1382864D2*
X1732047D1*
X1835512D2*
X1911181D1*
X1975276D2*
X1982993D1*
X2168189D2*
X2194646D1*
X2407908D2*
X2805043D1*
X423941Y1330236D2*
X519472D1*
X1024465D2*
X1084040D1*
X1386670D2*
X1732047D1*
X1835512D2*
X1843360D1*
X1975276D2*
X1980532D1*
X2168189D2*
X2194646D1*
X2384725D2*
X2805043D1*
X423941Y1326430D2*
X454488D1*
X1028272D2*
X1087839D1*
X1390476D2*
X1732047D1*
X1835512D2*
X1838497D1*
X1975276D2*
X1978068D1*
X2168189D2*
X2194646D1*
X2384725D2*
X2805043D1*
X423941Y1322625D2*
X454488D1*
X1032078D2*
X1091645D1*
X1394283D2*
X1732047D1*
X2168189D2*
X2194646D1*
X2302301D2*
X2308819D1*
X2384725D2*
X2805043D1*
X423941Y1318819D2*
X454488D1*
X1035884D2*
X1095451D1*
X1398089D2*
X1732047D1*
X2099960D2*
X2308819D1*
X2384725D2*
X2805043D1*
X423941Y1315013D2*
X454488D1*
X1039690D2*
X1099258D1*
X1477244D2*
X1665118D1*
X2094632D2*
X2805043D1*
X423941Y1311207D2*
X454488D1*
X1043497D2*
X1103064D1*
X1477244D2*
X1665118D1*
X2089311D2*
X2805043D1*
X423941Y1307402D2*
X454488D1*
X1047303D2*
X1106870D1*
X1477244D2*
X1665118D1*
X2083982D2*
X2805043D1*
X423941Y1303596D2*
X454488D1*
X1051109D2*
X1110677D1*
X1477244D2*
X1665118D1*
X2078653D2*
X2805043D1*
X423941Y1299790D2*
X454488D1*
X1054916D2*
X1114483D1*
X1477244D2*
X1665118D1*
X2073324D2*
X2308819D1*
X2384725D2*
X2805043D1*
X423941Y1295984D2*
X454488D1*
X1058722D2*
X1118289D1*
X1477244D2*
X1665118D1*
X2067995D2*
X2076535D1*
X2168189D2*
X2194646D1*
X2679293D2*
X2805043D1*
X423941Y1292178D2*
X454488D1*
X1062528D2*
X1123356D1*
X1477244D2*
X1665118D1*
X2062667D2*
X2075966D1*
X2168189D2*
X2194646D1*
X2715472D2*
X2805043D1*
X423941Y1288373D2*
X454488D1*
X1066334D2*
X1165118D1*
X1477244D2*
X1665118D1*
X2057338D2*
X2068561D1*
X2168189D2*
X2194646D1*
X2718855D2*
X2805043D1*
X423941Y1284567D2*
X454488D1*
X1070141D2*
X1165118D1*
X1477244D2*
X1665118D1*
X2052009D2*
X2061164D1*
X2168189D2*
X2194646D1*
X2720624D2*
X2805043D1*
X423941Y1280761D2*
X454488D1*
X1477244D2*
X1665118D1*
X2046680D2*
X2053759D1*
X2168189D2*
X2194646D1*
X2721316D2*
X2805043D1*
X423941Y1276955D2*
X454488D1*
X1477244D2*
X1665118D1*
X2041351D2*
X2046362D1*
X2168189D2*
X2194646D1*
X2721339D2*
X2805043D1*
X423941Y1273150D2*
X454488D1*
X1477244D2*
X1665118D1*
X2036030D2*
X2038965D1*
X2168189D2*
X2194646D1*
X2721339D2*
X2805043D1*
X423941Y1269344D2*
X454488D1*
X1477244D2*
X1665118D1*
X2168189D2*
X2194646D1*
X2721339D2*
X2805043D1*
X423941Y1265538D2*
X454488D1*
X1477244D2*
X1665118D1*
X2168189D2*
X2194646D1*
X2721339D2*
X2805043D1*
X423941Y1261732D2*
X454488D1*
X1477244D2*
X1665118D1*
X2168189D2*
X2194646D1*
X2721339D2*
X2805043D1*
X423941Y1257927D2*
X454488D1*
X1477244D2*
X1665118D1*
X2168189D2*
X2194646D1*
X2721339D2*
X2805043D1*
X423941Y1254121D2*
X454488D1*
X1477244D2*
X1665118D1*
X2168189D2*
X2194646D1*
X2721339D2*
X2805043D1*
X423941Y1250315D2*
X454488D1*
X1477244D2*
X1665118D1*
X2168189D2*
X2194646D1*
X2721339D2*
X2805043D1*
X423941Y1246509D2*
X454488D1*
X1477244D2*
X1665118D1*
X2168189D2*
X2194646D1*
X2721339D2*
X2805043D1*
X423941Y1242703D2*
X454488D1*
X1477244D2*
X1665118D1*
X2168189D2*
X2194646D1*
X2721339D2*
X2805043D1*
X423941Y1238898D2*
X454488D1*
X546142D2*
X612384D1*
X1477244D2*
X1665118D1*
X2168189D2*
X2194646D1*
X2721339D2*
X2805043D1*
X423941Y1235092D2*
X454488D1*
X546142D2*
X616190D1*
X1060560D2*
X1165118D1*
X1477244D2*
X1665118D1*
X2168189D2*
X2194646D1*
X2721339D2*
X2805043D1*
X423941Y1231286D2*
X454488D1*
X546142D2*
X619996D1*
X1064366D2*
X1165118D1*
X1477244D2*
X1665118D1*
X2168189D2*
X2194646D1*
X2721339D2*
X2805043D1*
X423941Y1227480D2*
X454488D1*
X546142D2*
X623802D1*
X1002835D2*
X1005687D1*
X1068165D2*
X1224173D1*
X1477244D2*
X1665118D1*
X2168189D2*
X2194646D1*
X2721339D2*
X2805043D1*
X423941Y1223675D2*
X454488D1*
X546142D2*
X627609D1*
X1002835D2*
X1009498D1*
X1071940D2*
X1224173D1*
X1477244D2*
X1665118D1*
X2168189D2*
X2194646D1*
X2721339D2*
X2805043D1*
X423941Y1219869D2*
X454488D1*
X546142D2*
X631415D1*
X1002835D2*
X1013305D1*
X1074724D2*
X1224173D1*
X1477244D2*
X1665118D1*
X2168189D2*
X2194646D1*
X2721339D2*
X2805043D1*
X423941Y1216063D2*
X454488D1*
X546142D2*
X635214D1*
X1002835D2*
X1017111D1*
X1076454D2*
X1224173D1*
X1477244D2*
X1665118D1*
X2168189D2*
X2194646D1*
X2721339D2*
X2805043D1*
X423941Y1212257D2*
X454488D1*
X546142D2*
X639020D1*
X1002835D2*
X1020910D1*
X1077392D2*
X1224173D1*
X1477244D2*
X1665118D1*
X2168189D2*
X2194646D1*
X2721339D2*
X2805043D1*
X423941Y1208451D2*
X454488D1*
X546142D2*
X642826D1*
X1002835D2*
X1024716D1*
X1077638D2*
X1224173D1*
X1477244D2*
X1665118D1*
X2168189D2*
X2194646D1*
X2721339D2*
X2805043D1*
X423941Y1204646D2*
X454488D1*
X546142D2*
X646632D1*
X1002835D2*
X1028522D1*
X1077638D2*
X1224173D1*
X1477244D2*
X1665118D1*
X2168189D2*
X2194646D1*
X2721339D2*
X2805043D1*
X423941Y1200840D2*
X454488D1*
X546142D2*
X650439D1*
X1002835D2*
X1032329D1*
X1077638D2*
X1224173D1*
X1477244D2*
X1665118D1*
X2168189D2*
X2194646D1*
X2721339D2*
X2805043D1*
X423941Y1197034D2*
X454488D1*
X546142D2*
X654245D1*
X1002835D2*
X1033228D1*
X1077638D2*
X1224173D1*
X1477244D2*
X1665118D1*
X2168189D2*
X2194646D1*
X2721339D2*
X2805043D1*
X423941Y1193228D2*
X454488D1*
X546142D2*
X658051D1*
X1002835D2*
X1033228D1*
X1077638D2*
X1224173D1*
X1477244D2*
X1836801D1*
X2168189D2*
X2194646D1*
X2721339D2*
X2805043D1*
X423941Y1189423D2*
X454488D1*
X546142D2*
X661858D1*
X1002835D2*
X1033228D1*
X1077638D2*
X1165118D1*
X1477244D2*
X1832648D1*
X2168189D2*
X2194646D1*
X2721339D2*
X2805043D1*
X423941Y1185617D2*
X454488D1*
X546142D2*
X665664D1*
X1002835D2*
X1033228D1*
X1077638D2*
X1165118D1*
X1477244D2*
X1665118D1*
X2168189D2*
X2194646D1*
X2721339D2*
X2805043D1*
X423941Y1181811D2*
X454488D1*
X546142D2*
X669470D1*
X1002835D2*
X1033228D1*
X1077638D2*
X1165118D1*
X1477244D2*
X1665118D1*
X2168189D2*
X2194646D1*
X2720939D2*
X2805043D1*
X423941Y1178005D2*
X454488D1*
X546142D2*
X673276D1*
X1002835D2*
X1033228D1*
X1077638D2*
X1113937D1*
X1477244D2*
X1665118D1*
X2168189D2*
X2194646D1*
X2719539D2*
X2805043D1*
X423941Y1174199D2*
X454488D1*
X546142D2*
X677083D1*
X1002835D2*
X1033228D1*
X1077638D2*
X1113937D1*
X1477244D2*
X1665118D1*
X2168189D2*
X2194646D1*
X2716771D2*
X2805043D1*
X423941Y1170394D2*
X454488D1*
X546142D2*
X680889D1*
X1002835D2*
X1033228D1*
X1077638D2*
X1113937D1*
X1477244D2*
X1665118D1*
X2168189D2*
X2194646D1*
X2710835D2*
X2805043D1*
X423941Y1166588D2*
X454488D1*
X546142D2*
X684695D1*
X1002835D2*
X1033228D1*
X1077638D2*
X1113937D1*
X1477244D2*
X1665118D1*
X2168189D2*
X2194646D1*
X2677355D2*
X2805043D1*
X423941Y1162782D2*
X454488D1*
X546250D2*
X688502D1*
X1002835D2*
X1033228D1*
X1077638D2*
X1113937D1*
X1477244D2*
X1665118D1*
X2168189D2*
X2194646D1*
X2638946D2*
X2805043D1*
X423941Y1158976D2*
X454488D1*
X550056D2*
X692300D1*
X1002835D2*
X1031237D1*
X1079630D2*
X1113937D1*
X1477244D2*
X1665118D1*
X1975276D2*
X1987491D1*
X2168189D2*
X2194646D1*
X2600545D2*
X2805043D1*
X423941Y1155171D2*
X454488D1*
X553862D2*
X696107D1*
X1002835D2*
X1028376D1*
X1082490D2*
X1113937D1*
X1477244D2*
X1665118D1*
X1975276D2*
X1999602D1*
X2168189D2*
X2194646D1*
X2562144D2*
X2805043D1*
X423941Y1151365D2*
X495188D1*
X557668D2*
X699913D1*
X1002835D2*
X1026292D1*
X1084574D2*
X1113937D1*
X1477244D2*
X1665118D1*
X1975276D2*
X2011713D1*
X2168189D2*
X2194646D1*
X2523735D2*
X2805043D1*
X423941Y1147559D2*
X498995D1*
X561475D2*
X703719D1*
X1002835D2*
X1024831D1*
X1086035D2*
X1113937D1*
X1477244D2*
X1665118D1*
X1975276D2*
X2023824D1*
X2168189D2*
X2194646D1*
X2485334D2*
X2805043D1*
X423941Y1143753D2*
X502801D1*
X565281D2*
X707525D1*
X1002835D2*
X1023893D1*
X1086973D2*
X1113937D1*
X1477244D2*
X1665118D1*
X1975276D2*
X2035935D1*
X2168189D2*
X2194646D1*
X2446932D2*
X2805043D1*
X423941Y1139948D2*
X506607D1*
X569087D2*
X711332D1*
X1002835D2*
X1023439D1*
X1087427D2*
X1113937D1*
X1477244D2*
X1665118D1*
X1975276D2*
X2048038D1*
X2168189D2*
X2194646D1*
X2408523D2*
X2805043D1*
X423941Y1136142D2*
X510414D1*
X572894D2*
X578119D1*
X603613D2*
X715138D1*
X1002835D2*
X1023447D1*
X1087419D2*
X1113937D1*
X1477244D2*
X1665118D1*
X1975276D2*
X2060149D1*
X2168189D2*
X2194646D1*
X2370122D2*
X2805043D1*
X423941Y1132336D2*
X514220D1*
X613048D2*
X718944D1*
X1002835D2*
X1023916D1*
X1086950D2*
X1113937D1*
X1477244D2*
X1665118D1*
X1975276D2*
X2072260D1*
X2168189D2*
X2194646D1*
X2331721D2*
X2805043D1*
X423941Y1128530D2*
X518026D1*
X618969D2*
X722751D1*
X1002835D2*
X1024870D1*
X1085996D2*
X1113937D1*
X1477244D2*
X1665118D1*
X1975276D2*
X2076535D1*
X2168189D2*
X2194646D1*
X2293312D2*
X2805043D1*
X423941Y1124724D2*
X521832D1*
X623383D2*
X726557D1*
X1003734D2*
X1026354D1*
X1084512D2*
X1113937D1*
X1477244D2*
X1665118D1*
X1975276D2*
X2805043D1*
X423941Y1120919D2*
X525639D1*
X626851D2*
X730363D1*
X1006895D2*
X1028461D1*
X1082405D2*
X1113937D1*
X1477244D2*
X1665118D1*
X1975276D2*
X2805043D1*
X423941Y1117113D2*
X529445D1*
X629642D2*
X734169D1*
X1009194D2*
X1031352D1*
X1079514D2*
X1147555D1*
X1477244D2*
X1911181D1*
X1975276D2*
X2805043D1*
X423941Y1113307D2*
X533251D1*
X631887D2*
X737976D1*
X1010840D2*
X1035374D1*
X1075493D2*
X1151361D1*
X1477244D2*
X1911181D1*
X1975276D2*
X2805043D1*
X423941Y1109501D2*
X537058D1*
X633671D2*
X741782D1*
X1011931D2*
X1041494D1*
X1069372D2*
X1155168D1*
X1477244D2*
X1665118D1*
X1975276D2*
X2805043D1*
X423941Y1105696D2*
X540864D1*
X635055D2*
X745588D1*
X1012531D2*
X1158974D1*
X1477244D2*
X1665118D1*
X1975276D2*
X2805043D1*
X423941Y1101890D2*
X544662D1*
X636070D2*
X749387D1*
X1012670D2*
X1162773D1*
X1477244D2*
X1665118D1*
X1975276D2*
X2072598D1*
X2164252D2*
X2190709D1*
X2282362D2*
X2805043D1*
X423941Y1098084D2*
X544978D1*
X636755D2*
X753193D1*
X1012339D2*
X1166648D1*
X1477244D2*
X1665118D1*
X1975276D2*
X2072598D1*
X2164252D2*
X2190709D1*
X2313635D2*
X2805043D1*
X423941Y1094278D2*
X544624D1*
X637108D2*
X756999D1*
X1011539D2*
X1165118D1*
X1477244D2*
X1665118D1*
X1975276D2*
X2061518D1*
X2164252D2*
X2190709D1*
X2352390D2*
X2805043D1*
X423941Y1090472D2*
X544570D1*
X637162D2*
X760806D1*
X1010232D2*
X1165118D1*
X1288268D2*
X1665118D1*
X1975276D2*
X2049753D1*
X2164252D2*
X2190709D1*
X2391138D2*
X2805043D1*
X423941Y1086667D2*
X544570D1*
X637162D2*
X764612D1*
X1008333D2*
X1165118D1*
X1288268D2*
X1665118D1*
X1975276D2*
X2037988D1*
X2164252D2*
X2190709D1*
X2429885D2*
X2805043D1*
X423941Y1082861D2*
X544570D1*
X637162D2*
X768418D1*
X1477244D2*
X1665118D1*
X1975276D2*
X2026223D1*
X2164252D2*
X2190709D1*
X2468640D2*
X2805043D1*
X423941Y1079055D2*
X544655D1*
X637078D2*
X772225D1*
X1477244D2*
X1665118D1*
X1975276D2*
X2014466D1*
X2164252D2*
X2190709D1*
X2507387D2*
X2805043D1*
X423941Y1075249D2*
X545055D1*
X636678D2*
X776031D1*
X1477244D2*
X1665118D1*
X1975276D2*
X2002701D1*
X2164252D2*
X2190709D1*
X2546134D2*
X2805043D1*
X423941Y1071444D2*
X545777D1*
X635955D2*
X779837D1*
X1477244D2*
X1665118D1*
X1975276D2*
X1990936D1*
X2164252D2*
X2190709D1*
X2584889D2*
X2805043D1*
X423941Y1067638D2*
X546846D1*
X634886D2*
X783643D1*
X1477244D2*
X1665118D1*
X1975276D2*
X1979171D1*
X2164252D2*
X2190709D1*
X2623636D2*
X2805043D1*
X423941Y1063832D2*
X548284D1*
X633448D2*
X787450D1*
X1477244D2*
X1665118D1*
X2164252D2*
X2190709D1*
X2662384D2*
X2805043D1*
X423941Y1060026D2*
X550130D1*
X631603D2*
X791256D1*
X1477244D2*
X1665118D1*
X2164252D2*
X2190709D1*
X2701139D2*
X2805043D1*
X423941Y1056220D2*
X552444D1*
X629288D2*
X795062D1*
X1477244D2*
X1665118D1*
X2164252D2*
X2190709D1*
X2715141D2*
X2805043D1*
X423941Y1052415D2*
X555312D1*
X626420D2*
X798869D1*
X1477244D2*
X1665118D1*
X2164252D2*
X2190709D1*
X2718686D2*
X2805043D1*
X423941Y1048609D2*
X558896D1*
X622837D2*
X802675D1*
X1477244D2*
X1665118D1*
X2164252D2*
X2190709D1*
X2720539D2*
X2805043D1*
X423941Y1044803D2*
X563471D1*
X618261D2*
X806473D1*
X1477244D2*
X1665118D1*
X2164252D2*
X2190709D1*
X2721293D2*
X2805043D1*
X423941Y1040997D2*
X569692D1*
X612041D2*
X810280D1*
X1477244D2*
X1831072D1*
X2164252D2*
X2190709D1*
X2721339D2*
X2805043D1*
X423941Y1037192D2*
X580180D1*
X601552D2*
X814086D1*
X1477244D2*
X1835224D1*
X2164252D2*
X2190709D1*
X2721339D2*
X2805043D1*
X423941Y1033386D2*
X817892D1*
X1477244D2*
X1665118D1*
X1828415D2*
X1839377D1*
X2164252D2*
X2190709D1*
X2721339D2*
X2805043D1*
X423941Y1029580D2*
X821699D1*
X1477244D2*
X1665118D1*
X2164252D2*
X2190709D1*
X2721339D2*
X2805043D1*
X423941Y1025774D2*
X825505D1*
X1477244D2*
X1665118D1*
X2164252D2*
X2190709D1*
X2721339D2*
X2805043D1*
X423941Y1021969D2*
X829311D1*
X1477244D2*
X1665118D1*
X2164252D2*
X2190709D1*
X2721339D2*
X2805043D1*
X423941Y1018163D2*
X833117D1*
X1477244D2*
X1665118D1*
X2164252D2*
X2190709D1*
X2721339D2*
X2805043D1*
X423941Y1014357D2*
X836924D1*
X1477244D2*
X1665118D1*
X2164252D2*
X2190709D1*
X2721339D2*
X2805043D1*
X423941Y1010551D2*
X840730D1*
X1477244D2*
X1665118D1*
X2164252D2*
X2190709D1*
X2721339D2*
X2805043D1*
X423941Y1006745D2*
X844536D1*
X1477244D2*
X1665118D1*
X2164252D2*
X2190709D1*
X2721339D2*
X2805043D1*
X423941Y1002940D2*
X848343D1*
X1477244D2*
X1665118D1*
X2164252D2*
X2190709D1*
X2721339D2*
X2805043D1*
X423941Y999134D2*
X852149D1*
X1477244D2*
X1665118D1*
X2164252D2*
X2190709D1*
X2721339D2*
X2805043D1*
X423941Y995328D2*
X856086D1*
X1477244D2*
X1665118D1*
X2164252D2*
X2190709D1*
X2721339D2*
X2805043D1*
X423941Y991522D2*
X862845D1*
X1477244D2*
X1665118D1*
X2164252D2*
X2190709D1*
X2721339D2*
X2805043D1*
X423941Y987717D2*
X1165118D1*
X1377220D2*
X1665118D1*
X2164252D2*
X2190709D1*
X2721339D2*
X2805043D1*
X423941Y983911D2*
X1165118D1*
X1373421D2*
X1665118D1*
X2164252D2*
X2190709D1*
X2721339D2*
X2805043D1*
X423941Y980105D2*
X1224173D1*
X1369615D2*
X1665118D1*
X2164252D2*
X2190709D1*
X2721339D2*
X2805043D1*
X423941Y976299D2*
X1224173D1*
X1365808D2*
X1665118D1*
X2164252D2*
X2190709D1*
X2721339D2*
X2805043D1*
X423941Y972493D2*
X1224173D1*
X1362002D2*
X1665118D1*
X2164252D2*
X2190709D1*
X2721339D2*
X2805043D1*
X423941Y968688D2*
X1224173D1*
X1358196D2*
X1665118D1*
X2164252D2*
X2190709D1*
X2721339D2*
X2805043D1*
X423941Y964882D2*
X1224173D1*
X1354390D2*
X1665118D1*
X2164252D2*
X2190709D1*
X2721339D2*
X2805043D1*
X423941Y961076D2*
X1224173D1*
X1351260D2*
X1665118D1*
X2164252D2*
X2190709D1*
X2721339D2*
X2805043D1*
X423941Y957270D2*
X1224173D1*
X1351045D2*
X1665118D1*
X2164252D2*
X2190709D1*
X2721339D2*
X2805043D1*
X423941Y953465D2*
X1224173D1*
X1350360D2*
X1665118D1*
X2037261D2*
X2040864D1*
X2164252D2*
X2190709D1*
X2721339D2*
X2805043D1*
X423941Y949659D2*
X1224173D1*
X1349176D2*
X1665118D1*
X2042436D2*
X2048053D1*
X2164252D2*
X2190709D1*
X2721339D2*
X2805043D1*
X423941Y945853D2*
X1224173D1*
X1347431D2*
X1665118D1*
X2047611D2*
X2055235D1*
X2164252D2*
X2190709D1*
X2721000D2*
X2805043D1*
X423941Y942047D2*
X1224173D1*
X1345001D2*
X1665118D1*
X2052786D2*
X2062425D1*
X2164252D2*
X2190709D1*
X2719670D2*
X2805043D1*
X423941Y938241D2*
X792479D1*
X830199D2*
X1113937D1*
X1341664D2*
X1665118D1*
X2057961D2*
X2069615D1*
X2164252D2*
X2190709D1*
X2717025D2*
X2805043D1*
X423941Y934436D2*
X784051D1*
X838626D2*
X1113937D1*
X1336904D2*
X1665118D1*
X2063136D2*
X2072598D1*
X2164252D2*
X2190709D1*
X2711512D2*
X2805043D1*
X423941Y930630D2*
X778138D1*
X844539D2*
X1113937D1*
X1477244D2*
X1665118D1*
X2068318D2*
X2072598D1*
X2164252D2*
X2190709D1*
X2414498D2*
X2805043D1*
X423941Y926824D2*
X773524D1*
X849153D2*
X1113937D1*
X1477244D2*
X1665118D1*
X2073493D2*
X2805043D1*
X423941Y923018D2*
X769772D1*
X852906D2*
X1113937D1*
X1477244D2*
X1665118D1*
X2078668D2*
X2805043D1*
X423941Y919213D2*
X766657D1*
X856020D2*
X1113937D1*
X1477244D2*
X1665118D1*
X2083843D2*
X2805043D1*
X423941Y915407D2*
X764051D1*
X858627D2*
X1113937D1*
X1477244D2*
X1665118D1*
X2089018D2*
X2805043D1*
X423941Y911601D2*
X761882D1*
X860795D2*
X1113937D1*
X1477244D2*
X1665118D1*
X2094193D2*
X2308819D1*
X2384725D2*
X2805043D1*
X423941Y907795D2*
X760091D1*
X862587D2*
X1113937D1*
X1477244D2*
X1665118D1*
X2164252D2*
X2190709D1*
X2285184D2*
X2308819D1*
X2384725D2*
X2805043D1*
X423941Y903990D2*
X758630D1*
X864048D2*
X1113937D1*
X1477244D2*
X1665118D1*
X2164252D2*
X2190709D1*
X2384725D2*
X2805043D1*
X423941Y900184D2*
X757484D1*
X865193D2*
X1113937D1*
X1477244D2*
X1665118D1*
X1835512D2*
X1838187D1*
X1975276D2*
X1978556D1*
X2164252D2*
X2190709D1*
X2384725D2*
X2805043D1*
X423941Y896378D2*
X756623D1*
X866055D2*
X1113937D1*
X1477244D2*
X1665118D1*
X1835512D2*
X1911181D1*
X1975276D2*
X1980947D1*
X2164252D2*
X2190709D1*
X2391745D2*
X2805043D1*
X423941Y892572D2*
X756046D1*
X866631D2*
X1113937D1*
X1477244D2*
X1665118D1*
X1835512D2*
X1911181D1*
X1975276D2*
X1983347D1*
X2164252D2*
X2190709D1*
X2427263D2*
X2805043D1*
X423941Y888766D2*
X755731D1*
X866947D2*
X1113937D1*
X1477244D2*
X1665118D1*
X1835512D2*
X1911181D1*
X1975276D2*
X1985746D1*
X2164252D2*
X2190709D1*
X2462780D2*
X2805043D1*
X423941Y884961D2*
X755669D1*
X867008D2*
X1113937D1*
X1288268D2*
X1735984D1*
X1835512D2*
X1988137D1*
X2164252D2*
X2190709D1*
X2498306D2*
X2805043D1*
X423941Y881155D2*
X755669D1*
X867008D2*
X1113937D1*
X1288268D2*
X1735984D1*
X1835512D2*
X1990536D1*
X2164252D2*
X2190709D1*
X2533823D2*
X2805043D1*
X423941Y877349D2*
X755669D1*
X867008D2*
X1118650D1*
X1181192D2*
X1735984D1*
X1835512D2*
X1992935D1*
X2164252D2*
X2190709D1*
X2569349D2*
X2805043D1*
X423941Y873543D2*
X755669D1*
X867008D2*
X1118028D1*
X1181815D2*
X1735984D1*
X1835512D2*
X1995327D1*
X2164252D2*
X2190709D1*
X2604866D2*
X2805043D1*
X423941Y869738D2*
X755669D1*
X867008D2*
X1117882D1*
X1181961D2*
X1735984D1*
X1835512D2*
X1997726D1*
X2164252D2*
X2190709D1*
X2640384D2*
X2805043D1*
X423941Y865932D2*
X755669D1*
X867008D2*
X1118189D1*
X1181653D2*
X1735984D1*
X1835512D2*
X2000117D1*
X2164252D2*
X2190709D1*
X2675909D2*
X2805043D1*
X423941Y862126D2*
X755669D1*
X867008D2*
X1118973D1*
X1180869D2*
X1735984D1*
X1835512D2*
X2002516D1*
X2164252D2*
X2190709D1*
X2709582D2*
X2805043D1*
X423941Y858320D2*
X755669D1*
X867008D2*
X1120265D1*
X1179577D2*
X1735984D1*
X1835512D2*
X2004916D1*
X2164252D2*
X2190709D1*
X2716371D2*
X2805043D1*
X423941Y854514D2*
X755669D1*
X867008D2*
X1122142D1*
X1177701D2*
X1735984D1*
X1835512D2*
X2007307D1*
X2164252D2*
X2190709D1*
X2719324D2*
X2805043D1*
X423941Y850709D2*
X755669D1*
X867008D2*
X1124741D1*
X1175102D2*
X1735984D1*
X1835512D2*
X2009706D1*
X2164252D2*
X2190709D1*
X2720847D2*
X2805043D1*
X423941Y846903D2*
X755669D1*
X867008D2*
X1128308D1*
X1171534D2*
X1735984D1*
X1835512D2*
X2012105D1*
X2164252D2*
X2190709D1*
X2721339D2*
X2805043D1*
X423941Y843097D2*
X755669D1*
X868323D2*
X1133499D1*
X1166344D2*
X1735984D1*
X1835512D2*
X2014497D1*
X2164252D2*
X2190709D1*
X2721339D2*
X2805043D1*
X423941Y839291D2*
X755669D1*
X872129D2*
X1143649D1*
X1156194D2*
X1735984D1*
X1835512D2*
X2016896D1*
X2164252D2*
X2190709D1*
X2721339D2*
X2805043D1*
X423941Y835486D2*
X755669D1*
X875936D2*
X1735984D1*
X1835512D2*
X2019287D1*
X2164252D2*
X2190709D1*
X2721339D2*
X2805043D1*
X423941Y831680D2*
X755669D1*
X879742D2*
X1735984D1*
X1835512D2*
X2021686D1*
X2164252D2*
X2190709D1*
X2721339D2*
X2805043D1*
X423941Y827874D2*
X755669D1*
X883548D2*
X1735984D1*
X1835512D2*
X2024085D1*
X2164252D2*
X2190709D1*
X2721339D2*
X2805043D1*
X423941Y824068D2*
X755669D1*
X887354D2*
X1735984D1*
X1835512D2*
X2026477D1*
X2164252D2*
X2190709D1*
X2721339D2*
X2805043D1*
X423941Y820262D2*
X755669D1*
X891161D2*
X1735984D1*
X1835512D2*
X2028876D1*
X2164252D2*
X2190709D1*
X2721339D2*
X2805043D1*
X423941Y816457D2*
X755669D1*
X894967D2*
X1735984D1*
X1835512D2*
X2031275D1*
X2164252D2*
X2190709D1*
X2721339D2*
X2805043D1*
X423941Y812651D2*
X755669D1*
X898773D2*
X1735984D1*
X1835512D2*
X2033666D1*
X2164252D2*
X2190709D1*
X2721339D2*
X2805043D1*
X423941Y808845D2*
X755669D1*
X902580D2*
X1735984D1*
X1836204D2*
X2036066D1*
X2164252D2*
X2190709D1*
X2721339D2*
X2805043D1*
X423941Y805039D2*
X755669D1*
X906386D2*
X1735984D1*
X1837757D2*
X2038457D1*
X2164252D2*
X2190709D1*
X2721339D2*
X2805043D1*
X423941Y801234D2*
X755669D1*
X910192D2*
X1735984D1*
X1839318D2*
X2040856D1*
X2164252D2*
X2190709D1*
X2721339D2*
X2805043D1*
X423941Y797428D2*
X755669D1*
X913998D2*
X1735984D1*
X1840872D2*
X2043255D1*
X2164252D2*
X2190709D1*
X2721339D2*
X2805043D1*
X423941Y793622D2*
X755669D1*
X917797D2*
X1735984D1*
X1842425D2*
X2045647D1*
X2164252D2*
X2190709D1*
X2721339D2*
X2805043D1*
X423941Y789816D2*
X755669D1*
X921603D2*
X1735984D1*
X1843986D2*
X2048046D1*
X2164252D2*
X2190709D1*
X2721339D2*
X2805043D1*
X423941Y786010D2*
X755669D1*
X925410D2*
X1735984D1*
X1845539D2*
X2050445D1*
X2164252D2*
X2190709D1*
X2721339D2*
X2805043D1*
X423941Y782205D2*
X755669D1*
X929216D2*
X1735984D1*
X1847100D2*
X2052836D1*
X2164252D2*
X2190709D1*
X2721339D2*
X2805043D1*
X423941Y778399D2*
X755669D1*
X933022D2*
X1735984D1*
X1848653D2*
X2055235D1*
X2164252D2*
X2190709D1*
X2721339D2*
X2805043D1*
X423941Y774593D2*
X755669D1*
X936828D2*
X1735984D1*
X1850214D2*
X2057627D1*
X2164252D2*
X2190709D1*
X2721339D2*
X2805043D1*
X423941Y770787D2*
X755669D1*
X940635D2*
X1735984D1*
X1851768D2*
X2060026D1*
X2164252D2*
X2190709D1*
X2721339D2*
X2805043D1*
X423941Y766982D2*
X755677D1*
X944441D2*
X1735984D1*
X1853328D2*
X2062425D1*
X2164252D2*
X2190709D1*
X2721339D2*
X2805043D1*
X423941Y763176D2*
X755884D1*
X948247D2*
X1735984D1*
X1854882D2*
X2064817D1*
X2164252D2*
X2190709D1*
X2721339D2*
X2805043D1*
X423941Y759370D2*
X756354D1*
X952054D2*
X1735984D1*
X1856443D2*
X2067216D1*
X2164252D2*
X2190709D1*
X2721339D2*
X2805043D1*
X423941Y755564D2*
X757092D1*
X955860D2*
X1735984D1*
X1857996D2*
X2069615D1*
X2164252D2*
X2190709D1*
X2721339D2*
X2805043D1*
X423941Y751759D2*
X758122D1*
X959666D2*
X1735984D1*
X1859557D2*
X2072006D1*
X2164252D2*
X2190709D1*
X2721331D2*
X2805043D1*
X423941Y747953D2*
X759445D1*
X963472D2*
X1735984D1*
X1861110D2*
X2072598D1*
X2164252D2*
X2190709D1*
X2720739D2*
X2805043D1*
X423941Y744147D2*
X761098D1*
X967279D2*
X1735984D1*
X1862671D2*
X2072598D1*
X2164252D2*
X2190709D1*
X2719101D2*
X2805043D1*
X423941Y740341D2*
X763105D1*
X971085D2*
X1735984D1*
X1864224D2*
X2072598D1*
X2164252D2*
X2190709D1*
X2715941D2*
X2805043D1*
X423941Y736535D2*
X765519D1*
X974884D2*
X1735984D1*
X1870945D2*
X2072598D1*
X2164252D2*
X2190709D1*
X2707667D2*
X2805043D1*
X423941Y732730D2*
X768411D1*
X978690D2*
X1735984D1*
X1870945D2*
X2805043D1*
X423941Y728924D2*
X771879D1*
X982496D2*
X1735984D1*
X1870945D2*
X2805043D1*
X423941Y725118D2*
X776108D1*
X986302D2*
X1735984D1*
X1870945D2*
X2805043D1*
X423941Y721312D2*
X781406D1*
X841271D2*
X844110D1*
X990109D2*
X1735984D1*
X1870945D2*
X2805043D1*
X423941Y717507D2*
X788526D1*
X834151D2*
X847920D1*
X993915D2*
X1735984D1*
X1870945D2*
X2805043D1*
X423941Y713701D2*
X800768D1*
X821909D2*
X851726D1*
X997721D2*
X1735984D1*
X1870945D2*
X2805043D1*
X423941Y709895D2*
X855532D1*
X1870945D2*
X2805043D1*
X423941Y706089D2*
X859339D1*
X1870945D2*
X2805043D1*
X423941Y702283D2*
X863145D1*
X1870945D2*
X2805043D1*
X423941Y698478D2*
X866951D1*
X1870945D2*
X2805043D1*
X423941Y694672D2*
X870757D1*
X1870945D2*
X2805043D1*
X423941Y690866D2*
X874564D1*
X1870945D2*
X2805043D1*
X423941Y687060D2*
X878370D1*
X1870945D2*
X2805043D1*
X423941Y683255D2*
X882176D1*
X1870945D2*
X2805043D1*
X423941Y679449D2*
X885983D1*
X1871729D2*
X2805043D1*
X423941Y675643D2*
X889781D1*
X1872960D2*
X2805043D1*
X423941Y671837D2*
X893587D1*
X1873875D2*
X2805043D1*
X423941Y668031D2*
X897394D1*
X1874498D2*
X2805043D1*
X423941Y664226D2*
X901200D1*
X1874821D2*
X2805043D1*
X423941Y660420D2*
X905006D1*
X1874867D2*
X2805043D1*
X423941Y656614D2*
X908813D1*
X1874628D2*
X2805043D1*
X423941Y652808D2*
X912619D1*
X1874098D2*
X2805043D1*
X423941Y649003D2*
X916425D1*
X1873275D2*
X2805043D1*
X423941Y645197D2*
X920231D1*
X1872145D2*
X2805043D1*
X423941Y641391D2*
X924038D1*
X1870945D2*
X2805043D1*
X423941Y637585D2*
X927844D1*
X1870945D2*
X2805043D1*
X423941Y633780D2*
X508391D1*
X531609D2*
X931650D1*
X1870945D2*
X2689494D1*
X2712711D2*
X2805043D1*
X423941Y629974D2*
X488345D1*
X551655D2*
X935457D1*
X1870945D2*
X2669447D1*
X2732758D2*
X2805043D1*
X423941Y626168D2*
X477180D1*
X562820D2*
X939263D1*
X1870945D2*
X2658282D1*
X2743923D2*
X2805043D1*
X423941Y622362D2*
X468683D1*
X571317D2*
X943354D1*
X1870945D2*
X2649785D1*
X2752420D2*
X2805043D1*
X423941Y618556D2*
X461655D1*
X578345D2*
X948521D1*
X1870945D2*
X2642757D1*
X2759448D2*
X2805043D1*
X423941Y614751D2*
X455626D1*
X584374D2*
X955603D1*
X1870945D2*
X2636728D1*
X2765476D2*
X2805043D1*
X423941Y610945D2*
X450320D1*
X589680D2*
X968798D1*
X1870945D2*
X2631423D1*
X2770782D2*
X2805043D1*
X423941Y607139D2*
X445591D1*
X594409D2*
X1775354D1*
X1870945D2*
X2626694D1*
X2775511D2*
X2805043D1*
X423941Y603333D2*
X441331D1*
X598669D2*
X1775354D1*
X1870945D2*
X2622434D1*
X2779771D2*
X2805043D1*
X423941Y599528D2*
X437464D1*
X602536D2*
X1775354D1*
X1870945D2*
X2618566D1*
X2783639D2*
X2805043D1*
X423941Y595722D2*
X433949D1*
X606051D2*
X1775354D1*
X1870945D2*
X2615052D1*
X2787153D2*
X2805043D1*
X423941Y591916D2*
X430728D1*
X609272D2*
X1775354D1*
X1870945D2*
X2611830D1*
X2790375D2*
X2805043D1*
X423941Y588110D2*
X427775D1*
X612225D2*
X1775354D1*
X1870945D2*
X2608877D1*
X2793328D2*
X2805043D1*
X614924Y584304D2*
X2606178D1*
X2796027D2*
X2805043D1*
X617408Y580499D2*
X2603694D1*
X2798510D2*
X2805043D1*
X619676Y576693D2*
X2601426D1*
X2800779D2*
X2805043D1*
X621760Y572887D2*
X2599342D1*
X2802862D2*
X2805043D1*
X623652Y569081D2*
X2597451D1*
X625374Y565276D2*
X2595728D1*
X626935Y561470D2*
X2594167D1*
X628342Y557664D2*
X2592760D1*
X629596Y553858D2*
X2591507D1*
X630703Y550052D2*
X2590399D1*
X631672Y546247D2*
X2589431D1*
X632502Y542441D2*
X2588600D1*
X633194Y538635D2*
X2587908D1*
X633756Y534829D2*
X2587347D1*
X634194Y531024D2*
X2586908D1*
X634494Y527218D2*
X2586608D1*
X634671Y523412D2*
X2586432D1*
X634725Y519606D2*
X2586378D1*
X634648Y515801D2*
X2586455D1*
X634440Y511995D2*
X2586662D1*
X634109Y508189D2*
X2586993D1*
X633656Y504383D2*
X2587447D1*
X633064Y500577D2*
X2588039D1*
X632341Y496772D2*
X2588762D1*
X631480Y492966D2*
X2589623D1*
X630488Y489160D2*
X2590615D1*
X629350Y485354D2*
X2591753D1*
X628065Y481549D2*
X2593037D1*
X626628Y477743D2*
X2594475D1*
X625036Y473937D2*
X2596067D1*
X623275Y470131D2*
X2597827D1*
X621345Y466325D2*
X2599757D1*
X619223Y462520D2*
X2601880D1*
X616908Y458714D2*
X2604194D1*
X614386Y454908D2*
X2606716D1*
X611633Y451102D2*
X2609469D1*
X608634Y447297D2*
X2612468D1*
X605351Y443491D2*
X2615752D1*
X601760Y439685D2*
X2619343D1*
X597823Y435879D2*
X2623280D1*
X593471Y432073D2*
X2627632D1*
X588634Y428268D2*
X2632468D1*
X583197Y424462D2*
X2637905D1*
X1777717Y1644173D2*
X1870551D1*
Y1490315D1*
X1864515D1*
X1835119Y1418450D1*
X1835118Y1322992D1*
X1833019D1*
X1832778Y1320313D1*
X1839223Y1326761D1*
X1840481Y1327924D1*
X1841825Y1328984D1*
X1843249Y1329936D1*
X1844744Y1330772D1*
X1846299Y1331489D1*
X1847906Y1332082D1*
X1849554Y1332547D1*
X1851234Y1332881D1*
X1852934Y1333082D1*
X1856614Y1333150D1*
X1911571D1*
X1911575Y1341024D1*
X1974882D1*
Y1320916D1*
X2076929Y1478359D1*
Y1492598D1*
X2167796D1*
Y1319055D1*
X2099905D1*
X2026052Y1266307D1*
X2076930Y1292473D1*
X2076929Y1299685D1*
X2167796D1*
Y1126141D1*
X2076929D1*
X2076889Y1131005D1*
X1974886Y1163063D1*
X1974882Y1066117D1*
X2072996Y1097865D1*
X2072992Y1102835D1*
X2163858D1*
Y929291D1*
X2072992D1*
X2072986Y936666D1*
X2025585Y961761D1*
X2096086Y909920D1*
X2163858Y909921D1*
Y736378D1*
X2072992D1*
Y750826D1*
X1974886Y906635D1*
X1974882Y887953D1*
X1911575D1*
Y899771D1*
X1842835Y899764D1*
X1841123Y899831D1*
X1839423Y900032D1*
X1837743Y900366D1*
X1836088Y900834D1*
X1835118Y900079D1*
Y810535D1*
X1864519Y738660D1*
X1870551Y738661D1*
Y681475D1*
X1871484Y679037D1*
X1872668Y675283D1*
X1873560Y671450D1*
X1874157Y667559D1*
X1874453Y663634D1*
X1874448Y659698D1*
X1874141Y655774D1*
X1873535Y651885D1*
X1872633Y648054D1*
X1871439Y644303D1*
X1870551Y642034D1*
Y584803D1*
X1775748D1*
Y610386D1*
X976716Y610394D1*
X973643Y610484D1*
X969726Y610869D1*
X965849Y611552D1*
X962037Y612530D1*
X958310Y613798D1*
X954692Y615347D1*
X951203Y617169D1*
X947864Y619252D1*
X944694Y621586D1*
X941712Y624155D1*
X933431Y632390D1*
X843058Y722763D1*
X839664Y720565D1*
X836215Y718670D1*
X832639Y717025D1*
X828955Y715638D1*
X825182Y714517D1*
X821338Y713668D1*
X817444Y713094D1*
X813519Y712799D1*
X809583Y712784D1*
X805656Y713049D1*
X801757Y713593D1*
X797907Y714413D1*
X794126Y715504D1*
X790431Y716862D1*
X786843Y718480D1*
X783379Y720349D1*
X780056Y722460D1*
X776892Y724801D1*
X773903Y727362D1*
X771104Y730130D1*
X768509Y733089D1*
X766131Y736225D1*
X763982Y739523D1*
X762073Y742966D1*
X760414Y746535D1*
X759013Y750214D1*
X757878Y753983D1*
X757014Y757823D1*
X756425Y761715D1*
X756115Y765639D1*
X756063Y771968D1*
X756085Y887685D1*
X756334Y891613D1*
X756863Y895514D1*
X757668Y899367D1*
X758746Y903153D1*
X760090Y906852D1*
X761693Y910447D1*
X763549Y913918D1*
X765647Y917249D1*
X767976Y920422D1*
X770526Y923420D1*
X773282Y926230D1*
X776232Y928837D1*
X779359Y931227D1*
X782649Y933389D1*
X786084Y935311D1*
X789647Y936983D1*
X793320Y938398D1*
X797084Y939548D1*
X800921Y940427D1*
X804811Y941031D1*
X808733Y941356D1*
X812669Y941401D1*
X816599Y941166D1*
X820501Y940653D1*
X824357Y939862D1*
X828147Y938800D1*
X831852Y937470D1*
X835453Y935880D1*
X838931Y934038D1*
X842270Y931953D1*
X845451Y929635D1*
X848460Y927098D1*
X851281Y924352D1*
X853899Y921413D1*
X856301Y918294D1*
X858475Y915013D1*
X860410Y911586D1*
X862096Y908029D1*
X863525Y904361D1*
X864689Y900601D1*
X865583Y896768D1*
X866202Y892881D1*
X866542Y888959D1*
X866614Y884173D1*
Y844411D1*
X997954Y713075D1*
X1736374Y713071D1*
X1736378Y887949D1*
X1665512Y887953D1*
Y1008346D1*
Y1033937D1*
X1823150D1*
X1824861Y1033870D1*
X1826562Y1033669D1*
X1828241Y1033334D1*
X1829890Y1032870D1*
X1831502Y1032274D1*
X1832992Y1031969D1*
X1841320D1*
X1830923Y1041495D1*
X1665512Y1041496D1*
Y1110708D1*
X1911571Y1110709D1*
X1911575Y1118275D1*
X1665512Y1118268D1*
Y1187480D1*
X1830924D1*
X1839172Y1195043D1*
X1665512Y1195039D1*
Y1315433D1*
X1732437D1*
X1732441Y1511965D1*
X1299528Y1511968D1*
X1298275Y1512018D1*
X1297717Y1510157D1*
Y1418799D1*
X1401080Y1315435D1*
X1476851Y1315433D1*
X1476850Y1092677D1*
X1287878D1*
X1287874Y1085126D1*
X1476850Y1085118D1*
Y990315D1*
X1379429D1*
X1350860Y961747D1*
X1350805Y958978D1*
X1350622Y957018D1*
X1350317Y955074D1*
X1349892Y953152D1*
X1349348Y951260D1*
X1348688Y949406D1*
X1347914Y947596D1*
X1347029Y945839D1*
X1346036Y944139D1*
X1344940Y942504D1*
X1343744Y940941D1*
X1342453Y939455D1*
X1341073Y938052D1*
X1339608Y936738D1*
X1338064Y935517D1*
X1336447Y934395D1*
X1334764Y933375D1*
X1333020Y932462D1*
X1331024Y931575D1*
X1476851D1*
Y887952D1*
X1287878Y887953D1*
X1287874Y878110D1*
X1180614D1*
X1181013Y876330D1*
X1181322Y874386D1*
X1181509Y872427D1*
X1181575Y870394D1*
X1181514Y868426D1*
X1181330Y866467D1*
X1181026Y864522D1*
X1180600Y862601D1*
X1180057Y860709D1*
X1179397Y858855D1*
X1178623Y857045D1*
X1177738Y855287D1*
X1176745Y853588D1*
X1175649Y851953D1*
X1174453Y850390D1*
X1173162Y848904D1*
X1171782Y847501D1*
X1170317Y846187D1*
X1168773Y844966D1*
X1167156Y843844D1*
X1165473Y842824D1*
X1163729Y841911D1*
X1161932Y841107D1*
X1160089Y840418D1*
X1158206Y839844D1*
X1156292Y839388D1*
X1154352Y839052D1*
X1152396Y838837D1*
X1150430Y838744D1*
X1148462Y838774D1*
X1146500Y838926D1*
X1144551Y839199D1*
X1142622Y839593D1*
X1140722Y840106D1*
X1138858Y840737D1*
X1137036Y841482D1*
X1135264Y842338D1*
X1133549Y843303D1*
X1131897Y844373D1*
X1130314Y845544D1*
X1128808Y846810D1*
X1127383Y848168D1*
X1126045Y849612D1*
X1124800Y851136D1*
X1123652Y852734D1*
X1122605Y854401D1*
X1121664Y856130D1*
X1120832Y857914D1*
X1120112Y859746D1*
X1119508Y861619D1*
X1119022Y863526D1*
X1118655Y865460D1*
X1118408Y867412D1*
X1118284Y869377D1*
X1118282Y871345D1*
X1118402Y873309D1*
X1118644Y875262D1*
X1119239Y878114D1*
X1114331Y878110D1*
Y941417D1*
X1224559D1*
X1224567Y980480D1*
X1165512Y980472D1*
Y990307D1*
X870394Y990315D1*
X868682Y990382D1*
X866982Y990583D1*
X865302Y990917D1*
X863654Y991382D1*
X862047Y991975D1*
X860492Y992692D1*
X858997Y993529D1*
X857573Y994480D1*
X856228Y995541D1*
X853579Y998095D1*
X609385Y1242289D1*
X545752Y1242283D1*
X545748Y1162897D1*
X574009Y1134632D1*
X577494Y1135844D1*
X581305Y1136828D1*
X585186Y1137482D1*
X589109Y1137801D1*
X593045Y1137783D1*
X596964Y1137428D1*
X600839Y1136738D1*
X604641Y1135719D1*
X608341Y1134378D1*
X611913Y1132725D1*
X615330Y1130773D1*
X618568Y1128534D1*
X621601Y1126027D1*
X624409Y1123269D1*
X626970Y1120280D1*
X629266Y1117084D1*
X631280Y1113702D1*
X632996Y1110160D1*
X634403Y1106484D1*
X635490Y1102702D1*
X636249Y1098840D1*
X636674Y1094927D1*
X636772Y1091929D1*
X636729Y1079961D1*
X636392Y1076040D1*
X635721Y1072162D1*
X634719Y1068356D1*
X633395Y1064649D1*
X631759Y1061070D1*
X629822Y1057644D1*
X627598Y1054396D1*
X625105Y1051351D1*
X622360Y1048530D1*
X619383Y1045955D1*
X616197Y1043645D1*
X612824Y1041616D1*
X609290Y1039883D1*
X605621Y1038460D1*
X601843Y1037355D1*
X597985Y1036579D1*
X594074Y1036136D1*
X590140Y1036029D1*
X586211Y1036260D1*
X582316Y1036827D1*
X578484Y1037725D1*
X574743Y1038948D1*
X571121Y1040487D1*
X567643Y1042331D1*
X564337Y1044466D1*
X561225Y1046876D1*
X558332Y1049544D1*
X555677Y1052450D1*
X553281Y1055572D1*
X551162Y1058888D1*
X549334Y1062374D1*
X547812Y1066004D1*
X546606Y1069750D1*
X545725Y1073586D1*
X545176Y1077483D1*
X544964Y1081414D1*
X544984Y1093382D1*
X545277Y1097307D1*
X545881Y1101063D1*
X493248Y1153702D1*
X454882Y1153701D1*
Y1327244D1*
X516907Y1327280D1*
X650246Y1460620D1*
X651504Y1461782D1*
X652849Y1462842D1*
X654273Y1463794D1*
X655767Y1464631D1*
X657323Y1465348D1*
X658929Y1465940D1*
X660578Y1466405D1*
X662257Y1466739D1*
X663958Y1466941D1*
X667638Y1467008D1*
X878268D1*
X879979Y1466941D1*
X881680Y1466739D1*
X883359Y1466405D1*
X885008Y1465940D1*
X886614Y1465348D1*
X888170Y1464631D1*
X889664Y1463794D1*
X891088Y1462842D1*
X892433Y1461782D1*
X895082Y1459228D1*
X1072343Y1281967D1*
X1165508Y1281969D1*
X1165512Y1289520D1*
X1134173Y1289527D1*
X1132462Y1289595D1*
X1130761Y1289796D1*
X1129082Y1290130D1*
X1127433Y1290595D1*
X1125826Y1291188D1*
X1124271Y1291905D1*
X1122777Y1292742D1*
X1121353Y1293693D1*
X1120008Y1294753D1*
X1117359Y1297308D1*
X932225Y1482442D1*
X624492Y1482441D1*
X624488Y1445039D1*
X533622D1*
Y1607264D1*
X528323Y1606760D1*
X524392Y1606541D1*
X520456Y1606458D1*
X516520Y1606510D1*
X512588Y1606697D1*
X508664Y1607020D1*
X504754Y1607478D1*
X500862Y1608070D1*
X496993Y1608796D1*
X493150Y1609654D1*
X489340Y1610644D1*
X485566Y1611765D1*
X481833Y1613015D1*
X478146Y1614393D1*
X474507Y1615897D1*
X470923Y1617526D1*
X467397Y1619277D1*
X463933Y1621148D1*
X460536Y1623137D1*
X457209Y1625242D1*
X453957Y1627461D1*
X450783Y1629790D1*
X447691Y1632227D1*
X444685Y1634769D1*
X441768Y1637413D1*
X438944Y1640156D1*
X436216Y1642994D1*
X433588Y1645925D1*
X431062Y1648944D1*
X428641Y1652049D1*
X426328Y1655235D1*
X423544Y1659413D1*
X423543Y581377D1*
X426410Y585670D1*
X428727Y588853D1*
X431151Y591954D1*
X433681Y594971D1*
X436314Y597898D1*
X439045Y600733D1*
X441873Y603472D1*
X444793Y606113D1*
X447802Y608651D1*
X450897Y611084D1*
X454074Y613409D1*
X457329Y615623D1*
X460658Y617724D1*
X464058Y619710D1*
X467524Y621576D1*
X471052Y623323D1*
X474638Y624947D1*
X478279Y626446D1*
X481968Y627820D1*
X485703Y629065D1*
X489478Y630181D1*
X493289Y631167D1*
X497133Y632020D1*
X501003Y632741D1*
X504896Y633329D1*
X508806Y633781D1*
X512730Y634099D1*
X516663Y634282D1*
X520599Y634329D1*
X524535Y634241D1*
X528466Y634017D1*
X532386Y633658D1*
X536292Y633164D1*
X540178Y632536D1*
X544041Y631775D1*
X547875Y630881D1*
X551675Y629855D1*
X555439Y628700D1*
X559160Y627415D1*
X562835Y626003D1*
X566459Y624466D1*
X570028Y622804D1*
X573538Y621021D1*
X576984Y619118D1*
X580363Y617097D1*
X583670Y614961D1*
X586902Y612713D1*
X590054Y610355D1*
X593123Y607889D1*
X596106Y605320D1*
X598998Y602649D1*
X601797Y599880D1*
X604498Y597016D1*
X607100Y594062D1*
X609598Y591019D1*
X611990Y587892D1*
X614273Y584685D1*
X616444Y581401D1*
X618501Y578044D1*
X620441Y574618D1*
X622262Y571128D1*
X623961Y567577D1*
X625538Y563970D1*
X626989Y560310D1*
X628313Y556603D1*
X629509Y552852D1*
X630575Y549062D1*
X631510Y545238D1*
X632313Y541384D1*
X632983Y537505D1*
X633518Y533604D1*
X633920Y529688D1*
X634186Y525760D1*
X634331Y520000D1*
X634263Y516064D1*
X634060Y512132D1*
X633721Y508210D1*
X633248Y504302D1*
X632640Y500412D1*
X631899Y496546D1*
X631025Y492707D1*
X630020Y488901D1*
X628884Y485131D1*
X627619Y481403D1*
X626226Y477721D1*
X624708Y474089D1*
X623065Y470511D1*
X621300Y466992D1*
X619415Y463536D1*
X617412Y460147D1*
X615294Y456829D1*
X613062Y453585D1*
X610721Y450421D1*
X608271Y447338D1*
X605717Y444343D1*
X603062Y441436D1*
X600308Y438623D1*
X597458Y435907D1*
X594517Y433290D1*
X591488Y430775D1*
X588374Y428367D1*
X585178Y426068D1*
X581379Y423546D1*
X2639724Y423543D1*
X2635060Y426673D1*
X2631886Y429002D1*
X2628794Y431439D1*
X2625788Y433981D1*
X2622871Y436625D1*
X2620047Y439368D1*
X2617319Y442207D1*
X2614690Y445137D1*
X2612164Y448157D1*
X2609743Y451261D1*
X2607431Y454447D1*
X2605229Y457711D1*
X2603142Y461049D1*
X2601170Y464456D1*
X2599317Y467930D1*
X2597585Y471465D1*
X2595975Y475058D1*
X2594490Y478704D1*
X2593132Y482399D1*
X2591901Y486138D1*
X2590800Y489918D1*
X2589830Y493733D1*
X2588991Y497580D1*
X2588286Y501453D1*
X2587714Y505348D1*
X2587277Y509261D1*
X2586975Y513186D1*
X2586808Y517119D1*
X2586777Y521056D1*
X2586881Y524991D1*
X2587120Y528921D1*
X2587495Y532840D1*
X2588004Y536743D1*
X2588648Y540627D1*
X2589425Y544487D1*
X2590334Y548317D1*
X2591374Y552114D1*
X2592545Y555872D1*
X2593845Y559589D1*
X2595271Y563258D1*
X2596823Y566876D1*
X2598499Y570438D1*
X2600296Y573941D1*
X2602213Y577379D1*
X2604247Y580750D1*
X2606396Y584049D1*
X2608657Y587271D1*
X2611028Y590414D1*
X2613506Y593473D1*
X2616087Y596446D1*
X2618770Y599327D1*
X2621550Y602115D1*
X2624424Y604805D1*
X2627389Y607395D1*
X2630442Y609881D1*
X2633578Y612260D1*
X2636794Y614530D1*
X2640087Y616688D1*
X2643452Y618732D1*
X2646885Y620658D1*
X2650383Y622465D1*
X2653941Y624150D1*
X2657554Y625712D1*
X2661220Y627149D1*
X2664932Y628458D1*
X2668688Y629639D1*
X2672482Y630690D1*
X2676310Y631610D1*
X2680167Y632398D1*
X2684049Y633052D1*
X2687951Y633572D1*
X2691869Y633957D1*
X2695798Y634208D1*
X2699733Y634323D1*
X2703670Y634302D1*
X2707604Y634146D1*
X2711530Y633854D1*
X2715443Y633428D1*
X2719340Y632867D1*
X2723215Y632172D1*
X2727064Y631344D1*
X2730882Y630384D1*
X2734664Y629294D1*
X2738407Y628073D1*
X2742106Y626725D1*
X2745756Y625250D1*
X2749353Y623650D1*
X2752893Y621928D1*
X2756372Y620084D1*
X2759785Y618122D1*
X2763128Y616043D1*
X2766398Y613851D1*
X2769590Y611547D1*
X2772702Y609135D1*
X2775728Y606617D1*
X2778666Y603997D1*
X2781512Y601276D1*
X2784262Y598460D1*
X2786914Y595550D1*
X2789464Y592551D1*
X2791910Y589466D1*
X2794248Y586298D1*
X2796475Y583052D1*
X2798589Y579731D1*
X2800588Y576340D1*
X2802469Y572881D1*
X2804229Y569360D1*
X2805437Y566742D1*
X2805433Y1674019D1*
X2803300Y1669532D1*
X2801475Y1666043D1*
X2799530Y1662620D1*
X2797470Y1659266D1*
X2795294Y1655985D1*
X2793007Y1652780D1*
X2790612Y1649656D1*
X2788110Y1646617D1*
X2785504Y1643665D1*
X2782799Y1640805D1*
X2779997Y1638040D1*
X2777101Y1635373D1*
X2774116Y1632807D1*
X2771043Y1630345D1*
X2767888Y1627991D1*
X2764654Y1625747D1*
X2761344Y1623615D1*
X2757963Y1621599D1*
X2754514Y1619700D1*
X2751002Y1617921D1*
X2747431Y1616264D1*
X2743805Y1614731D1*
X2740128Y1613324D1*
X2736405Y1612044D1*
X2732641Y1610893D1*
X2728838Y1609872D1*
X2725003Y1608983D1*
X2721140Y1608226D1*
X2717253Y1607603D1*
X2713346Y1607114D1*
X2709425Y1606760D1*
X2705495Y1606541D1*
X2701559Y1606458D1*
X2697622Y1606510D1*
X2693690Y1606697D1*
X2689766Y1607020D1*
X2685856Y1607478D1*
X2681964Y1608070D1*
X2678095Y1608796D1*
X2674253Y1609654D1*
X2670443Y1610644D1*
X2666669Y1611765D1*
X2662936Y1613015D1*
X2659248Y1614393D1*
X2655610Y1615897D1*
X2652025Y1617526D1*
X2648499Y1619277D1*
X2645036Y1621148D1*
X2641639Y1623137D1*
X2638312Y1625242D1*
X2635060Y1627461D1*
X2631886Y1629790D1*
X2628794Y1632227D1*
X2625788Y1634769D1*
X2622871Y1637413D1*
X2620047Y1640156D1*
X2617319Y1642994D1*
X2614690Y1645925D1*
X2612164Y1648944D1*
X2609743Y1652049D1*
X2607431Y1655235D1*
X2605229Y1658499D1*
X2603142Y1661836D1*
X2601170Y1665244D1*
X2599317Y1668717D1*
X2597585Y1672252D1*
X2595975Y1675845D1*
X2594490Y1679491D1*
X2593132Y1683186D1*
X2591901Y1686926D1*
X2590800Y1690705D1*
X2589830Y1694521D1*
X2588991Y1698367D1*
X2588286Y1702240D1*
X2587714Y1706135D1*
X2587277Y1710048D1*
X2586975Y1713973D1*
X2586808Y1717906D1*
X2586777Y1721843D1*
X2586881Y1725779D1*
X2587120Y1729708D1*
X2587495Y1733627D1*
X2588004Y1737531D1*
X2588648Y1741415D1*
X2589425Y1745274D1*
X2590334Y1749104D1*
X2591374Y1752901D1*
X2592545Y1756660D1*
X2593845Y1760376D1*
X2595271Y1764045D1*
X2596823Y1767663D1*
X2598499Y1771226D1*
X2600296Y1774728D1*
X2602213Y1778167D1*
X2604247Y1781537D1*
X2606396Y1784836D1*
X2608657Y1788059D1*
X2611028Y1791202D1*
X2613506Y1794261D1*
X2616087Y1797233D1*
X2618770Y1800115D1*
X2621550Y1802902D1*
X2624424Y1805593D1*
X2627389Y1808182D1*
X2630442Y1810668D1*
X2633578Y1813048D1*
X2636794Y1815318D1*
X2640087Y1817476D1*
X2643452Y1819519D1*
X2646407Y1821182D1*
X1355186Y1821181D1*
X1358474Y1820128D1*
X1362113Y1818630D1*
X1365611Y1816825D1*
X1368942Y1814728D1*
X1372080Y1812353D1*
X1375003Y1809717D1*
X1377690Y1806841D1*
X1380121Y1803746D1*
X1382278Y1800454D1*
X1384145Y1796989D1*
X1385708Y1793377D1*
X1386955Y1789644D1*
X1387879Y1785818D1*
X1388472Y1781927D1*
X1388729Y1778000D1*
X1388733Y1766968D1*
X1388571Y1763036D1*
X1388067Y1759133D1*
X1387229Y1755287D1*
X1386065Y1751528D1*
X1384584Y1747881D1*
X1382795Y1744375D1*
X1380713Y1741035D1*
X1378353Y1737886D1*
X1375731Y1734950D1*
X1372867Y1732250D1*
X1369783Y1729805D1*
X1366501Y1727634D1*
X1363044Y1725751D1*
X1359440Y1724171D1*
X1355713Y1722906D1*
X1351913Y1721970D1*
X1354720Y1721309D1*
X1358474Y1720128D1*
X1362113Y1718630D1*
X1365611Y1716825D1*
X1368942Y1714728D1*
X1372080Y1712353D1*
X1375003Y1709717D1*
X1377690Y1706841D1*
X1380121Y1703746D1*
X1382278Y1700454D1*
X1384145Y1696989D1*
X1385708Y1693377D1*
X1386955Y1689644D1*
X1387879Y1685818D1*
X1388472Y1681927D1*
X1388729Y1678000D1*
X1388733Y1666968D1*
X1388571Y1663036D1*
X1388067Y1659133D1*
X1387229Y1655287D1*
X1386065Y1651528D1*
X1384584Y1647881D1*
X1382795Y1644375D1*
X1380713Y1641035D1*
X1378353Y1637886D1*
X1375731Y1634950D1*
X1372867Y1632250D1*
X1369783Y1629805D1*
X1366501Y1627634D1*
X1363044Y1625751D1*
X1359440Y1624171D1*
X1355713Y1622906D1*
X1351891Y1621965D1*
X1348003Y1621355D1*
X1344077Y1621080D1*
X1340141Y1621142D1*
X1336226Y1621541D1*
X1332359Y1622274D1*
X1328569Y1623336D1*
X1324884Y1624718D1*
X1321331Y1626411D1*
X1317936Y1628402D1*
X1314724Y1630677D1*
X1311718Y1633218D1*
X1308942Y1636007D1*
X1306414Y1639025D1*
X1304154Y1642247D1*
X1302179Y1645651D1*
X1300502Y1649212D1*
X1299137Y1652903D1*
X1298093Y1656698D1*
X1297717Y1658513D1*
Y1614542D1*
X1299532Y1614646D1*
X1775744D1*
X1775748Y1644173D1*
X1777717D1*
X2384331Y1331542D2*
Y1317086D1*
X2309213D1*
Y1323415D1*
X2285904Y1320894D1*
X2285906Y1319055D1*
X2195040D1*
Y1492598D1*
X2705039D1*
X2707528Y1492403D1*
X2709954Y1491820D1*
X2712260Y1490865D1*
X2714388Y1489561D1*
X2716286Y1487940D1*
X2717907Y1486042D1*
X2719211Y1483914D1*
X2720166Y1481608D1*
X2720749Y1479181D1*
X2720945Y1476693D1*
X2720926Y1381419D1*
X2720607Y1378944D1*
X2719905Y1376549D1*
X2718838Y1374293D1*
X2717430Y1372232D1*
X2715717Y1370416D1*
X2713742Y1368891D1*
X2711552Y1367694D1*
X2709202Y1366853D1*
X2706749Y1366391D1*
X2384324Y1331535D1*
X2311181Y1301653D2*
X2384331D1*
Y1298631D1*
X2705168Y1295748D1*
X2707528Y1295552D1*
X2709954Y1294970D1*
X2712260Y1294015D1*
X2714388Y1292710D1*
X2716286Y1291089D1*
X2717907Y1289192D1*
X2719211Y1287064D1*
X2720167Y1284758D1*
X2720749Y1282331D1*
X2720945Y1279843D1*
X2720918Y1184428D1*
X2720577Y1181955D1*
X2719854Y1179566D1*
X2718767Y1177320D1*
X2717341Y1175271D1*
X2715612Y1173471D1*
X2713623Y1171963D1*
X2711422Y1170786D1*
X2709065Y1169966D1*
X2706608Y1169526D1*
X2285909Y1127835D1*
X2285906Y1126142D1*
X2195039D1*
Y1299685D1*
X2285906D1*
Y1299524D1*
X2309212Y1299315D1*
X2309213Y1301653D1*
X2311181D1*
X2384331Y930367D2*
Y927323D1*
X2309213D1*
Y929699D1*
X2281962Y929450D1*
X2281969Y929291D1*
X2191102D1*
Y1102835D1*
X2281969D1*
Y1101151D1*
X2706579Y1059453D1*
X2708752Y1059088D1*
X2711126Y1058317D1*
X2713350Y1057184D1*
X2715369Y1055717D1*
X2717134Y1053952D1*
X2718601Y1051933D1*
X2719734Y1049709D1*
X2720506Y1047335D1*
X2720896Y1044870D1*
X2720945Y1039685D1*
X2720907Y948028D1*
X2720538Y945559D1*
X2719788Y943178D1*
X2718675Y940945D1*
X2717226Y938912D1*
X2715477Y937132D1*
X2713471Y935647D1*
X2711257Y934494D1*
X2708890Y933701D1*
X2706429Y933289D1*
X2701245Y933194D1*
X2384336Y930364D1*
X2311181Y911889D2*
X2384331D1*
Y897133D1*
X2706734Y862587D1*
X2709187Y862127D1*
X2711538Y861289D1*
X2713729Y860094D1*
X2715706Y858570D1*
X2717420Y856756D1*
X2718830Y854697D1*
X2719900Y852442D1*
X2720604Y850047D1*
X2720925Y847572D1*
X2720945Y805433D1*
X2720896Y751036D1*
X2720505Y748570D1*
X2719734Y746197D1*
X2718601Y743973D1*
X2717134Y741954D1*
X2715369Y740189D1*
X2713350Y738722D1*
X2711126Y737589D1*
X2708752Y736817D1*
X2706287Y736427D1*
X2701102Y736378D1*
X2191102D1*
Y909921D1*
X2281969D1*
Y908099D1*
X2309209Y905179D1*
X2309213Y911889D1*
X2311181D1*
X1167480Y1094961D2*
X1171702D1*
X1170021Y1095891D1*
X1168597Y1096843D1*
X1167252Y1097903D1*
X1164603Y1100457D1*
X1146795Y1118264D1*
X1114331Y1118268D1*
Y1181575D1*
X1165504D1*
X1165512Y1189449D1*
X1224575D1*
X1224567Y1228512D1*
X1165512Y1228504D1*
Y1238339D1*
X1063307Y1238346D1*
X1061596Y1238414D1*
X1059895Y1238615D1*
X1058215Y1238949D1*
X1056561Y1239416D1*
X1056828Y1238427D1*
X1070856Y1224399D1*
X1072018Y1223142D1*
X1073079Y1221797D1*
X1074030Y1220373D1*
X1074867Y1218878D1*
X1075584Y1217323D1*
X1076177Y1215716D1*
X1076641Y1214068D1*
X1076976Y1212388D1*
X1077177Y1210688D1*
X1077244Y1207008D1*
X1077246Y1161048D1*
X1078629Y1159648D1*
X1079923Y1158165D1*
X1081122Y1156604D1*
X1082222Y1154972D1*
X1083218Y1153275D1*
X1084106Y1151519D1*
X1084884Y1149711D1*
X1085548Y1147858D1*
X1086096Y1145967D1*
X1086525Y1144047D1*
X1086834Y1142103D1*
X1087021Y1140144D1*
X1087087Y1138110D1*
X1087025Y1136143D1*
X1086842Y1134183D1*
X1086537Y1132239D1*
X1086112Y1130317D1*
X1085569Y1128426D1*
X1084909Y1126571D1*
X1084134Y1124762D1*
X1083249Y1123004D1*
X1082257Y1121304D1*
X1081160Y1119670D1*
X1079965Y1118106D1*
X1078674Y1116621D1*
X1077293Y1115218D1*
X1075828Y1113903D1*
X1074285Y1112683D1*
X1072668Y1111560D1*
X1070984Y1110540D1*
X1069241Y1109627D1*
X1067444Y1108824D1*
X1065601Y1108134D1*
X1063718Y1107560D1*
X1061803Y1107104D1*
X1059864Y1106768D1*
X1057908Y1106554D1*
X1055942Y1106461D1*
X1053974Y1106490D1*
X1052011Y1106642D1*
X1050062Y1106916D1*
X1048134Y1107310D1*
X1046234Y1107823D1*
X1044369Y1108453D1*
X1042548Y1109198D1*
X1040776Y1110055D1*
X1039060Y1111020D1*
X1037408Y1112090D1*
X1035826Y1113260D1*
X1034320Y1114527D1*
X1032895Y1115885D1*
X1031557Y1117328D1*
X1030312Y1118853D1*
X1029163Y1120451D1*
X1028117Y1122118D1*
X1027176Y1123846D1*
X1026344Y1125630D1*
X1025624Y1127462D1*
X1025020Y1129335D1*
X1024534Y1131242D1*
X1024166Y1133176D1*
X1023920Y1135129D1*
X1023796Y1137093D1*
X1023794Y1139061D1*
X1023914Y1141026D1*
X1024156Y1142979D1*
X1024519Y1144913D1*
X1025002Y1146822D1*
X1025602Y1148696D1*
X1026318Y1150529D1*
X1027146Y1152315D1*
X1028083Y1154046D1*
X1029126Y1155714D1*
X1030271Y1157315D1*
X1031514Y1158842D1*
X1033620Y1161027D1*
X1033622Y1199941D1*
X1002444Y1231120D1*
X1002442Y1125615D1*
X1003826Y1124215D1*
X1005120Y1122732D1*
X1006319Y1121171D1*
X1007418Y1119539D1*
X1008415Y1117842D1*
X1009303Y1116086D1*
X1010081Y1114278D1*
X1010745Y1112425D1*
X1011293Y1110534D1*
X1011722Y1108613D1*
X1012031Y1106670D1*
X1012218Y1104710D1*
X1012283Y1102677D1*
X1012222Y1100710D1*
X1012039Y1098750D1*
X1011734Y1096806D1*
X1011309Y1094884D1*
X1010766Y1092992D1*
X1010105Y1091138D1*
X1009331Y1089329D1*
X1008446Y1087571D1*
X1006953Y1085124D1*
X1165508Y1085118D1*
X1165512Y1094961D1*
X1167480D1*
X571247Y1618583D2*
X624488D1*
Y1526071D1*
X823542Y1526063D1*
X821650Y1528301D1*
X820502Y1529900D1*
X819455Y1531567D1*
X818514Y1533295D1*
X817264Y1536145D1*
X813813Y1535687D1*
X811847Y1535595D1*
X809879Y1535624D1*
X807917Y1535776D1*
X805968Y1536050D1*
X804040Y1536444D1*
X802139Y1536957D1*
X800275Y1537587D1*
X798453Y1538332D1*
X796681Y1539189D1*
X794966Y1540154D1*
X793314Y1541224D1*
X791732Y1542394D1*
X790225Y1543661D1*
X788800Y1545019D1*
X787463Y1546462D1*
X786217Y1547986D1*
X785069Y1549585D1*
X784022Y1551252D1*
X783081Y1552980D1*
X782249Y1554764D1*
X781530Y1556596D1*
X780926Y1558469D1*
X780439Y1560376D1*
X780072Y1562310D1*
X779826Y1564263D1*
X779701Y1566227D1*
X779699Y1568034D1*
X765995Y1581743D1*
X764832Y1583000D1*
X763772Y1584345D1*
X762820Y1585769D1*
X761983Y1587263D1*
X761266Y1588819D1*
X760674Y1590425D1*
X760209Y1592074D1*
X759875Y1593753D1*
X759673Y1595454D1*
X759606Y1599134D1*
Y1726571D1*
X756518Y1728402D1*
X753306Y1730677D1*
X750301Y1733218D1*
X747524Y1736007D1*
X744997Y1739025D1*
X742737Y1742247D1*
X740762Y1745651D1*
X739085Y1749212D1*
X737720Y1752903D1*
X736675Y1756698D1*
X735960Y1760568D1*
X735579Y1764486D1*
X735512Y1768937D1*
X735535Y1778421D1*
X735828Y1782346D1*
X736456Y1786231D1*
X737415Y1790049D1*
X738697Y1793770D1*
X740293Y1797367D1*
X742192Y1800815D1*
X744378Y1804087D1*
X746837Y1807160D1*
X749551Y1810011D1*
X752498Y1812620D1*
X755658Y1814966D1*
X759008Y1817033D1*
X762522Y1818805D1*
X766175Y1820270D1*
X769104Y1821181D1*
X574705D1*
X578682Y1818909D1*
X582026Y1816831D1*
X585296Y1814638D1*
X588488Y1812335D1*
X591599Y1809922D1*
X594626Y1807405D1*
X597563Y1804784D1*
X600409Y1802064D1*
X603160Y1799247D1*
X605812Y1796338D1*
X608362Y1793339D1*
X610807Y1790253D1*
X613145Y1787086D1*
X615373Y1783840D1*
X617487Y1780519D1*
X619485Y1777127D1*
X621366Y1773668D1*
X623127Y1770147D1*
X624765Y1766567D1*
X626279Y1762933D1*
X627667Y1759249D1*
X628927Y1755520D1*
X630059Y1751749D1*
X631059Y1747942D1*
X631928Y1744102D1*
X632665Y1740235D1*
X633267Y1736344D1*
X633736Y1732435D1*
X634069Y1728513D1*
X634268Y1724581D1*
X634314Y1718819D1*
X634178Y1714885D1*
X633907Y1710957D1*
X633501Y1707041D1*
X632961Y1703142D1*
X632286Y1699263D1*
X631479Y1695410D1*
X630539Y1691587D1*
X629468Y1687799D1*
X628267Y1684049D1*
X626938Y1680344D1*
X625483Y1676686D1*
X623902Y1673080D1*
X622198Y1669532D1*
X620372Y1666043D1*
X618428Y1662620D1*
X616367Y1659266D1*
X614192Y1655985D1*
X611905Y1652780D1*
X609509Y1649656D1*
X607007Y1646617D1*
X604402Y1643665D1*
X601697Y1640805D1*
X598895Y1638040D1*
X595999Y1635373D1*
X593013Y1632807D1*
X589941Y1630345D1*
X586786Y1627991D1*
X583551Y1625747D1*
X580242Y1623615D1*
X576860Y1621599D1*
X573412Y1619700D1*
X571229Y1618580D1*
X535857Y1384174D2*
X535465Y1380258D1*
X534686Y1376401D1*
X533528Y1372640D1*
X532001Y1369012D1*
X530121Y1365555D1*
X527907Y1362302D1*
X525380Y1359285D1*
X522566Y1356534D1*
X519492Y1354077D1*
X516189Y1351937D1*
X512690Y1350137D1*
X509029Y1348693D1*
X505242Y1347621D1*
X501368Y1346930D1*
X497444Y1346629D1*
X493510Y1346718D1*
X489604Y1347199D1*
X485765Y1348066D1*
X482031Y1349310D1*
X478440Y1350919D1*
X475026Y1352877D1*
X471824Y1355165D1*
X468866Y1357760D1*
X466180Y1360636D1*
X463794Y1363766D1*
X461730Y1367117D1*
X460010Y1370656D1*
X458650Y1374349D1*
X457665Y1378159D1*
X457063Y1382048D1*
X456851Y1385978D1*
X457030Y1389909D1*
X457600Y1393803D1*
X458554Y1397621D1*
X459883Y1401325D1*
X461574Y1404879D1*
X463609Y1408247D1*
X465970Y1411396D1*
X468632Y1414294D1*
X471569Y1416914D1*
X474752Y1419228D1*
X478149Y1421215D1*
X481727Y1422854D1*
X485450Y1424129D1*
X489281Y1425027D1*
X493183Y1425540D1*
X497117Y1425662D1*
X501043Y1425393D1*
X504923Y1424735D1*
X508718Y1423694D1*
X512391Y1422281D1*
X515905Y1420509D1*
X519226Y1418397D1*
X522320Y1415965D1*
X525157Y1413238D1*
X527708Y1410242D1*
X529950Y1407007D1*
X531858Y1403566D1*
X533415Y1399951D1*
X534604Y1396200D1*
X535415Y1392349D1*
X535839Y1388436D1*
X535906Y1386142D1*
X535857Y1384174D1*
X1301894Y1592966D2*
X1816846D1*
X1301894Y1589160D2*
X1816846D1*
X1301894Y1585354D2*
X1816846D1*
X1301894Y1581549D2*
X1816846D1*
X1301894Y1577743D2*
X1816846D1*
X1301894Y1573937D2*
X1816846D1*
X1301894Y1570131D2*
X1816846D1*
X1301894Y1566325D2*
X1816846D1*
X1301894Y1562520D2*
X1816846D1*
X1301894Y1558714D2*
X1816846D1*
X1301894Y1554908D2*
X1816846D1*
X1301894Y1551102D2*
X1816846D1*
X1301894Y1547297D2*
X1816846D1*
X1301894Y1543491D2*
X1816846D1*
X1301894Y1539685D2*
X1816846D1*
X1301894Y1535879D2*
X1816846D1*
X1301894Y1532073D2*
X1816846D1*
X1817236Y1596772D2*
X1301504D1*
X1301496Y1529850D1*
X1817236Y1529843D1*
X1817244Y1596764D1*
X1750713Y1541785D2*
X1852280D1*
X1750713Y1537979D2*
X1852280D1*
X1750713Y1534173D2*
X1852280D1*
X1750713Y1530367D2*
X1852280D1*
X1750713Y1526562D2*
X1852280D1*
X1750713Y1522756D2*
X1852280D1*
X1750713Y1518950D2*
X1852280D1*
X1750713Y1515144D2*
X1852280D1*
X1750713Y1511339D2*
X1852280D1*
X1750713Y1507533D2*
X1851857D1*
X1750713Y1503727D2*
X1850303D1*
X1750713Y1499921D2*
X1848743D1*
X1750713Y1496115D2*
X1847189D1*
X1750713Y1492310D2*
X1845629D1*
X1750713Y1488504D2*
X1844075D1*
X1750713Y1484698D2*
X1842514D1*
X1750713Y1480892D2*
X1840961D1*
X1750713Y1477087D2*
X1839400D1*
X1750713Y1473281D2*
X1837846D1*
X1750713Y1469475D2*
X1836286D1*
X1750713Y1465669D2*
X1834732D1*
X1750713Y1461864D2*
X1833172D1*
X1750713Y1458058D2*
X1831618D1*
X1750713Y1454252D2*
X1830056D1*
X1750713Y1450446D2*
X1828504D1*
X1750713Y1446640D2*
X1826942D1*
X1750713Y1442835D2*
X1825390D1*
X1750713Y1439029D2*
X1823828D1*
X1750713Y1435223D2*
X1822276D1*
X1750713Y1431417D2*
X1820722D1*
X1750713Y1427612D2*
X1819161D1*
X1750713Y1423806D2*
X1817608D1*
X1750713Y1420000D2*
X1816846D1*
X1750713Y1416194D2*
X1816846D1*
X1750713Y1412388D2*
X1816846D1*
X1750713Y1408583D2*
X1816846D1*
X1750713Y1404777D2*
X1816846D1*
X1750713Y1400971D2*
X1816846D1*
X1750713Y1397165D2*
X1816846D1*
X1750713Y1393360D2*
X1816846D1*
X1750713Y1389554D2*
X1816846D1*
X1750713Y1385748D2*
X1816846D1*
X1750713Y1381942D2*
X1816846D1*
X1750713Y1378136D2*
X1816846D1*
X1750713Y1374331D2*
X1816846D1*
X1750713Y1370525D2*
X1816846D1*
X1750713Y1366719D2*
X1816846D1*
X1750713Y1362913D2*
X1816846D1*
X1750713Y1359108D2*
X1816846D1*
X1750713Y1355302D2*
X1816846D1*
X1750713Y1351496D2*
X1816846D1*
X1750713Y1347690D2*
X1816846D1*
X1750713Y1343885D2*
X1816577D1*
X1750713Y1340079D2*
X1816231D1*
X1750713Y1336273D2*
X1815886D1*
X1750713Y1332467D2*
X1815539D1*
X1750713Y1328661D2*
X1815193D1*
X1750713Y1324856D2*
X1814848D1*
X1750713Y1321050D2*
X1814501D1*
X1750713Y1317244D2*
X1814155D1*
X1750713Y1313438D2*
X1813810D1*
X1750713Y1309633D2*
X1813463D1*
X1750713Y1305827D2*
X1813117D1*
X1750713Y1302021D2*
X1810656D1*
X1750713Y1298215D2*
X1806850D1*
X1750713Y1294409D2*
X1803043D1*
X1750713Y1290604D2*
X1799238D1*
X1750713Y1286798D2*
X1795432D1*
X1750713Y1282992D2*
X1791625D1*
X1750713Y1279186D2*
X1787819D1*
X1750713Y1275381D2*
X1784013D1*
X1750713Y1271575D2*
X1780206D1*
X1750713Y1267769D2*
X1776400D1*
X1813379Y1304354D2*
X1817244Y1346861D1*
X1817268Y1421883D1*
X1818136Y1424142D1*
X1852677Y1508577D1*
Y1545583D1*
X1750323Y1545591D1*
X1750315Y1266071D1*
X1775083Y1266063D1*
X1813385Y1304357D1*
X1754650Y959108D2*
X1770625D1*
X1754650Y955302D2*
X1774432D1*
X1754650Y951496D2*
X1778238D1*
X1754650Y947690D2*
X1782045D1*
X1754650Y943885D2*
X1785850D1*
X1754650Y940079D2*
X1789656D1*
X1754650Y936273D2*
X1793463D1*
X1754650Y932467D2*
X1797269D1*
X1754650Y928661D2*
X1801075D1*
X1754650Y924856D2*
X1804882D1*
X1754650Y921050D2*
X1808688D1*
X1754650Y917244D2*
X1812495D1*
X1754650Y913438D2*
X1816301D1*
X1754650Y909633D2*
X1816846D1*
X1754650Y905827D2*
X1816846D1*
X1754650Y902021D2*
X1816846D1*
X1754650Y898215D2*
X1816846D1*
X1754650Y894409D2*
X1816846D1*
X1754650Y890604D2*
X1816846D1*
X1754650Y886798D2*
X1816846D1*
X1754650Y882992D2*
X1816846D1*
X1754650Y879186D2*
X1816846D1*
X1754650Y875381D2*
X1816846D1*
X1754650Y871575D2*
X1816846D1*
X1754650Y867769D2*
X1816846D1*
X1754650Y863963D2*
X1816846D1*
X1754650Y860157D2*
X1816846D1*
X1754650Y856352D2*
X1816846D1*
X1754650Y852546D2*
X1816846D1*
X1754650Y848740D2*
X1816846D1*
X1754650Y844934D2*
X1816846D1*
X1754650Y841129D2*
X1816846D1*
X1754650Y837323D2*
X1816846D1*
X1754650Y833517D2*
X1816846D1*
X1754650Y829711D2*
X1816846D1*
X1754650Y825906D2*
X1816846D1*
X1754650Y822100D2*
X1816846D1*
X1754650Y818294D2*
X1816846D1*
X1754650Y814488D2*
X1816846D1*
X1754650Y810682D2*
X1816846D1*
X1754650Y806877D2*
X1816908D1*
X1754650Y803071D2*
X1818462D1*
X1754650Y799265D2*
X1820022D1*
X1754650Y795459D2*
X1821576D1*
X1754650Y791654D2*
X1823136D1*
X1754650Y787848D2*
X1824690D1*
X1754650Y784042D2*
X1826251D1*
X1754650Y780236D2*
X1827804D1*
X1754650Y776430D2*
X1829365D1*
X1754650Y772625D2*
X1830919D1*
X1754650Y768819D2*
X1832479D1*
X1754650Y765013D2*
X1834033D1*
X1754650Y761207D2*
X1835585D1*
X1754650Y757402D2*
X1837147D1*
X1754650Y753596D2*
X1838699D1*
X1754650Y749790D2*
X1840261D1*
X1754650Y745984D2*
X1841814D1*
X1754650Y742178D2*
X1843375D1*
X1754650Y738373D2*
X1844929D1*
X1754650Y734567D2*
X1846490D1*
X1754650Y730761D2*
X1848043D1*
X1754650Y726955D2*
X1849604D1*
X1754650Y723150D2*
X1851157D1*
X1754650Y719344D2*
X1852280D1*
X1754650Y715538D2*
X1852280D1*
X1754650Y711732D2*
X1852280D1*
X1754650Y707927D2*
X1852280D1*
X1754650Y704121D2*
X1852280D1*
X1754650Y700315D2*
X1852280D1*
X1754650Y696509D2*
X1852280D1*
X1754650Y692703D2*
X1852280D1*
X1754650Y688898D2*
X1852280D1*
X1754650Y685092D2*
X1852280D1*
X1754252Y962906D2*
Y683394D1*
X1852669Y683386D1*
X1852677Y720395D1*
X1817298Y806942D1*
X1817244Y807402D1*
Y912878D1*
X1767213Y962916D1*
X1754260Y962913D1*
X2270398Y1470919D2*
X2702673D1*
X2270398Y1467113D2*
X2702673D1*
X2270398Y1463307D2*
X2702673D1*
X2270398Y1459501D2*
X2702673D1*
X2270398Y1455696D2*
X2702673D1*
X2270398Y1451890D2*
X2702673D1*
X2270398Y1448084D2*
X2702673D1*
X2270398Y1444278D2*
X2702673D1*
X2270398Y1440472D2*
X2702673D1*
X2270398Y1436667D2*
X2702673D1*
X2270398Y1432861D2*
X2702673D1*
X2270398Y1429055D2*
X2702673D1*
X2270398Y1425249D2*
X2702673D1*
X2270398Y1421444D2*
X2702673D1*
X2270398Y1417638D2*
X2702673D1*
X2270398Y1413832D2*
X2702673D1*
X2270398Y1410026D2*
X2702673D1*
X2270398Y1406220D2*
X2702673D1*
X2270398Y1402415D2*
X2702673D1*
X2270398Y1398609D2*
X2381654D1*
X2461496D2*
X2702673D1*
X2270398Y1394803D2*
X2381654D1*
X2461496D2*
X2702673D1*
X2270398Y1390997D2*
X2381654D1*
X2461496D2*
X2702673D1*
X2270398Y1387192D2*
X2381654D1*
X2461496D2*
X2702673D1*
X2270398Y1383386D2*
X2381654D1*
X2461496D2*
X2697252D1*
X2270398Y1379580D2*
X2381654D1*
X2461496D2*
X2662050D1*
X2270398Y1375774D2*
X2381654D1*
X2461496D2*
X2626848D1*
X2270398Y1371969D2*
X2381654D1*
X2461496D2*
X2591646D1*
X2270398Y1368163D2*
X2381654D1*
X2461496D2*
X2556442D1*
X2270398Y1364357D2*
X2381654D1*
X2461496D2*
X2521240D1*
X2270398Y1360551D2*
X2381654D1*
X2461496D2*
X2486038D1*
X2270398Y1356745D2*
X2381654D1*
X2270398Y1352940D2*
X2381654D1*
X2270398Y1349134D2*
X2380423D1*
X2270398Y1345328D2*
X2345220D1*
X2270398Y1341522D2*
X2310018D1*
X2270398Y1337717D2*
X2274816D1*
X2384016Y1402047D2*
X2461102D1*
Y1357810D1*
X2703068Y1383971D1*
X2703071Y1474717D1*
X2270008Y1474724D1*
X2270000Y1337152D1*
X2382043Y1349266D1*
X2382047Y1402047D1*
X2384016D1*
X2266461Y888241D2*
X2299114D1*
X2266461Y884436D2*
X2334640D1*
X2266461Y880630D2*
X2370157D1*
X2266461Y876824D2*
X2381654D1*
X2266461Y873018D2*
X2381654D1*
X2266461Y869213D2*
X2381654D1*
X2461496D2*
X2476718D1*
X2266461Y865407D2*
X2381654D1*
X2461496D2*
X2512236D1*
X2266461Y861601D2*
X2381654D1*
X2461496D2*
X2547761D1*
X2266461Y857795D2*
X2381654D1*
X2461496D2*
X2583280D1*
X2266461Y853990D2*
X2381654D1*
X2461496D2*
X2618804D1*
X2266461Y850184D2*
X2381654D1*
X2461496D2*
X2654322D1*
X2266461Y846378D2*
X2381654D1*
X2461496D2*
X2689840D1*
X2266461Y842572D2*
X2381654D1*
X2461496D2*
X2702673D1*
X2266461Y838766D2*
X2381654D1*
X2461496D2*
X2702673D1*
X2266461Y834961D2*
X2381654D1*
X2461496D2*
X2702673D1*
X2266461Y831155D2*
X2381654D1*
X2461496D2*
X2702673D1*
X2266461Y827349D2*
X2381654D1*
X2461496D2*
X2702673D1*
X2266461Y823543D2*
X2702673D1*
X2266461Y819738D2*
X2702673D1*
X2266461Y815932D2*
X2702673D1*
X2266461Y812126D2*
X2702673D1*
X2266461Y808320D2*
X2702673D1*
X2266461Y804514D2*
X2702673D1*
X2266461Y800709D2*
X2702673D1*
X2266461Y796903D2*
X2702673D1*
X2266461Y793097D2*
X2702673D1*
X2266461Y789291D2*
X2702673D1*
X2266461Y785486D2*
X2702673D1*
X2266461Y781680D2*
X2702673D1*
X2266461Y777874D2*
X2702673D1*
X2266461Y774068D2*
X2702673D1*
X2266461Y770262D2*
X2702673D1*
X2266461Y766457D2*
X2702673D1*
X2266461Y762651D2*
X2702673D1*
X2266461Y758845D2*
X2702673D1*
X2266461Y755039D2*
X2702673D1*
X2461102Y870928D2*
Y826929D1*
X2382047D1*
Y879395D1*
X2266066Y891824D1*
X2266063Y754260D1*
X2703063Y754252D1*
X2703071Y844995D1*
X2461108Y870928D1*
X2270398Y1278005D2*
X2381654D1*
X2461496D2*
X2690071D1*
X2270398Y1274199D2*
X2381654D1*
X2461496D2*
X2702673D1*
X2270398Y1270394D2*
X2381654D1*
X2461496D2*
X2702673D1*
X2270398Y1266588D2*
X2381654D1*
X2461496D2*
X2702673D1*
X2270398Y1262782D2*
X2381654D1*
X2461496D2*
X2702673D1*
X2270398Y1258976D2*
X2381654D1*
X2461496D2*
X2702673D1*
X2270398Y1255171D2*
X2381654D1*
X2461496D2*
X2702673D1*
X2270398Y1251365D2*
X2381654D1*
X2461496D2*
X2702673D1*
X2270398Y1247559D2*
X2381654D1*
X2461496D2*
X2702673D1*
X2270398Y1243753D2*
X2381654D1*
X2461496D2*
X2702673D1*
X2270398Y1239948D2*
X2381654D1*
X2461496D2*
X2702673D1*
X2270398Y1236142D2*
X2381654D1*
X2461496D2*
X2702673D1*
X2270398Y1232336D2*
X2381654D1*
X2461496D2*
X2702673D1*
X2270398Y1228530D2*
X2381654D1*
X2461496D2*
X2702673D1*
X2270398Y1224724D2*
X2381654D1*
X2461496D2*
X2702673D1*
X2270398Y1220919D2*
X2381654D1*
X2461496D2*
X2702673D1*
X2270398Y1217113D2*
X2381654D1*
X2461496D2*
X2702673D1*
X2270398Y1213307D2*
X2702673D1*
X2270398Y1209501D2*
X2702673D1*
X2270398Y1205696D2*
X2702673D1*
X2270398Y1201890D2*
X2702673D1*
X2270398Y1198084D2*
X2702673D1*
X2270398Y1194278D2*
X2702673D1*
X2270398Y1190472D2*
X2702673D1*
X2270398Y1186667D2*
X2697929D1*
X2270398Y1182861D2*
X2659520D1*
X2270398Y1179055D2*
X2621119D1*
X2270398Y1175249D2*
X2582718D1*
X2270398Y1171444D2*
X2544308D1*
X2270398Y1167638D2*
X2505908D1*
X2270398Y1163832D2*
X2467507D1*
X2270398Y1160026D2*
X2429097D1*
X2270398Y1156220D2*
X2390697D1*
X2270398Y1152415D2*
X2352295D1*
X2270398Y1148609D2*
X2313886D1*
X2270398Y1144803D2*
X2275484D1*
X2461102Y1280070D2*
Y1216693D1*
X2382047D1*
Y1280785D1*
X2270008Y1281793D1*
X2270000Y1144223D1*
X2703075Y1187138D1*
X2703054Y1277892D1*
X2461098Y1280072D1*
X2266461Y1081155D2*
X2302352D1*
X2266461Y1077349D2*
X2341106D1*
X2266461Y1073543D2*
X2379854D1*
X2266461Y1069738D2*
X2418601D1*
X2266461Y1065932D2*
X2457356D1*
X2266461Y1062126D2*
X2496104D1*
X2266461Y1058320D2*
X2534850D1*
X2266461Y1054514D2*
X2573605D1*
X2266461Y1050709D2*
X2612353D1*
X2266461Y1046903D2*
X2651100D1*
X2266461Y1043097D2*
X2689848D1*
X2266461Y1039291D2*
X2702673D1*
X2266461Y1035486D2*
X2702673D1*
X2266461Y1031680D2*
X2702673D1*
X2266461Y1027874D2*
X2702673D1*
X2266461Y1024068D2*
X2702673D1*
X2266461Y1020262D2*
X2702673D1*
X2266461Y1016457D2*
X2702673D1*
X2266461Y1012651D2*
X2702673D1*
X2266461Y1008845D2*
X2381654D1*
X2461496D2*
X2702673D1*
X2266461Y1005039D2*
X2381654D1*
X2461496D2*
X2702673D1*
X2266461Y1001234D2*
X2381654D1*
X2461496D2*
X2702673D1*
X2266461Y997428D2*
X2381654D1*
X2461496D2*
X2702673D1*
X2266461Y993622D2*
X2381654D1*
X2461496D2*
X2702673D1*
X2266461Y989816D2*
X2381654D1*
X2461496D2*
X2702673D1*
X2266461Y986010D2*
X2381654D1*
X2461496D2*
X2702673D1*
X2266461Y982205D2*
X2381654D1*
X2461496D2*
X2702673D1*
X2266461Y978399D2*
X2381654D1*
X2461496D2*
X2702673D1*
X2266461Y974593D2*
X2381654D1*
X2461496D2*
X2702673D1*
X2266461Y970787D2*
X2381654D1*
X2461496D2*
X2702673D1*
X2266461Y966982D2*
X2381654D1*
X2461496D2*
X2702673D1*
X2266461Y963176D2*
X2381654D1*
X2461496D2*
X2702673D1*
X2266461Y959370D2*
X2381654D1*
X2461496D2*
X2702673D1*
X2266461Y955564D2*
X2381654D1*
X2461496D2*
X2702673D1*
X2266461Y951759D2*
X2381654D1*
X2461496D2*
X2702673D1*
X2266461Y947953D2*
X2351879D1*
X2384016Y1012283D2*
X2461102D1*
Y948930D1*
X2703071Y951102D1*
Y1041831D1*
X2266067Y1084757D1*
X2266063Y947189D1*
X2382051Y948219D1*
X2382047Y1012283D1*
X2384016D1*
X2079806Y1081155D2*
X2088500D1*
X2068042Y1077349D2*
X2088500D1*
X2056285Y1073543D2*
X2088500D1*
X2044520Y1069738D2*
X2088500D1*
X2032755Y1065932D2*
X2088500D1*
X2020990Y1062126D2*
X2088500D1*
X2009224Y1058320D2*
X2088500D1*
X1997467Y1054514D2*
X2088500D1*
X1985702Y1050709D2*
X2088500D1*
X1973938Y1046903D2*
X2088500D1*
X1962173Y1043097D2*
X2088500D1*
X1959374Y1039291D2*
X2088500D1*
X1959374Y1035486D2*
X2088500D1*
X1959374Y1031680D2*
X2088500D1*
X1959374Y1027874D2*
X2088500D1*
X1959374Y1024068D2*
X2088500D1*
X1959374Y1020262D2*
X2088500D1*
X1960866Y1016457D2*
X2088500D1*
X1968055Y1012651D2*
X2088500D1*
X1975245Y1008845D2*
X2088500D1*
X1982434Y1005039D2*
X2088500D1*
X1989617Y1001234D2*
X2088500D1*
X1996806Y997428D2*
X2088500D1*
X2003996Y993622D2*
X2088500D1*
X2011185Y989816D2*
X2088500D1*
X2018375Y986010D2*
X2088500D1*
X2025564Y982205D2*
X2088500D1*
X2032755Y978399D2*
X2088500D1*
X2039944Y974593D2*
X2088500D1*
X2047126Y970787D2*
X2088500D1*
X2054316Y966982D2*
X2088500D1*
X2061505Y963176D2*
X2088500D1*
X2068696Y959370D2*
X2088500D1*
X2075885Y955564D2*
X2088500D1*
X2083075Y951759D2*
X2088500D1*
X1958976Y1042184D2*
Y1017255D1*
X2088892Y948470D1*
X2088898Y1084230D1*
X1958970Y1042188D1*
X2088273Y1278005D2*
X2092437D1*
X2080875Y1274199D2*
X2092437D1*
X2073470Y1270394D2*
X2092437D1*
X2066073Y1266588D2*
X2092437D1*
X2058676Y1262782D2*
X2092437D1*
X2051270Y1258976D2*
X2092437D1*
X2043874Y1255171D2*
X2092437D1*
X2036476Y1251365D2*
X2092437D1*
X2029071Y1247559D2*
X2092437D1*
X2021675Y1243753D2*
X2092437D1*
X2014269Y1239948D2*
X2092437D1*
X2006871Y1236142D2*
X2092437D1*
X1999475Y1232336D2*
X2092437D1*
X1992070Y1228530D2*
X2092437D1*
X1984672Y1224724D2*
X2092437D1*
X1977276Y1220919D2*
X2092437D1*
X1969870Y1217113D2*
X2092437D1*
X1962472Y1213307D2*
X2092437D1*
X1959374Y1209501D2*
X2092437D1*
X1959374Y1205696D2*
X2092437D1*
X1959374Y1201890D2*
X2092437D1*
X1959374Y1198084D2*
X2092437D1*
X1959374Y1194278D2*
X2092437D1*
X1959374Y1190472D2*
X2092437D1*
X1959789Y1186667D2*
X2092437D1*
X1971900Y1182861D2*
X2092437D1*
X1984010Y1179055D2*
X2092437D1*
X1996122Y1175249D2*
X2092437D1*
X2008226Y1171444D2*
X2092437D1*
X2020336Y1167638D2*
X2092437D1*
X2032448Y1163832D2*
X2092437D1*
X2044558Y1160026D2*
X2092437D1*
X2056669Y1156220D2*
X2092437D1*
X2068772Y1152415D2*
X2092437D1*
X2080883Y1148609D2*
X2092437D1*
X1958976Y1211706D2*
Y1186793D1*
X2092832Y1144730D1*
X2092835Y1280558D1*
X1958979Y1211713D1*
X2088865Y1463307D2*
X2092437D1*
X2086396Y1459501D2*
X2092437D1*
X2083936Y1455696D2*
X2092437D1*
X2081467Y1451890D2*
X2092437D1*
X2078999Y1448084D2*
X2092437D1*
X2076530Y1444278D2*
X2092437D1*
X2074070Y1440472D2*
X2092437D1*
X2071602Y1436667D2*
X2092437D1*
X2069134Y1432861D2*
X2092437D1*
X2066665Y1429055D2*
X2092437D1*
X2064197Y1425249D2*
X2092437D1*
X2061736Y1421444D2*
X2092437D1*
X2059268Y1417638D2*
X2092437D1*
X2056799Y1413832D2*
X2092437D1*
X2054331Y1410026D2*
X2092437D1*
X2051862Y1406220D2*
X2092437D1*
X2049402Y1402415D2*
X2092437D1*
X2046934Y1398609D2*
X2092437D1*
X2044466Y1394803D2*
X2092437D1*
X2041997Y1390997D2*
X2092437D1*
X2039529Y1387192D2*
X2092437D1*
X2037068Y1383386D2*
X2092437D1*
X2034600Y1379580D2*
X2092437D1*
X2032131Y1375774D2*
X2092437D1*
X2029663Y1371969D2*
X2092437D1*
X2027202Y1368163D2*
X2092437D1*
X2024735Y1364357D2*
X2092437D1*
X2022266Y1360551D2*
X2092437D1*
X2019798Y1356745D2*
X2092437D1*
X2017329Y1352940D2*
X2092437D1*
X2014869Y1349134D2*
X2092437D1*
X2012400Y1345328D2*
X2092437D1*
X2009932Y1341522D2*
X2092437D1*
X2007463Y1337717D2*
X2092437D1*
X2004996Y1333911D2*
X2089554D1*
X2002535Y1330105D2*
X2084224D1*
X2000067Y1326299D2*
X2078896D1*
X1997598Y1322493D2*
X2073567D1*
X1995130Y1318688D2*
X2068239D1*
X1992661Y1314882D2*
X2062909D1*
X1990201Y1311076D2*
X2057581D1*
X1987732Y1307270D2*
X2052260D1*
X1985264Y1303465D2*
X2046930D1*
X1982797Y1299659D2*
X2041602D1*
X1980336Y1295853D2*
X2036273D1*
X1977867Y1292047D2*
X2030945D1*
X1975399Y1288241D2*
X2025615D1*
X1972930Y1284436D2*
X2020287D1*
X1970462Y1280630D2*
X2014958D1*
X1968001Y1276824D2*
X2009629D1*
X1965533Y1273018D2*
X2004301D1*
X1963064Y1269213D2*
X1998971D1*
X1960597Y1265407D2*
X1993651D1*
X1959374Y1261601D2*
X1988322D1*
X1959374Y1257795D2*
X1982993D1*
X1959374Y1253990D2*
X1977664D1*
X1959374Y1250184D2*
X1972335D1*
X1959374Y1246378D2*
X1967007D1*
X1959374Y1242572D2*
X1961682D1*
X1958974Y1240358D2*
X2092840Y1335978D1*
X2092835Y1470042D1*
X1958974Y1263508D1*
X1958976Y1240357D1*
X1938398Y986667D2*
X1961147D1*
X1942203Y982861D2*
X1966322D1*
X1946009Y979055D2*
X1971497D1*
X1949816Y975249D2*
X1976672D1*
X1953622Y971444D2*
X1981848D1*
X1957429Y967638D2*
X1987022D1*
X1960388Y963832D2*
X1992197D1*
X1962787Y960026D2*
X1997373D1*
X1965180Y956220D2*
X2002547D1*
X1967579Y952415D2*
X2007730D1*
X1969970Y948609D2*
X2012906D1*
X1972369Y944803D2*
X2018080D1*
X1974768Y940997D2*
X2023255D1*
X1977160Y937192D2*
X2028430D1*
X1979559Y933386D2*
X2033605D1*
X1981958Y929580D2*
X2038780D1*
X1984349Y925774D2*
X2043955D1*
X1986748Y921969D2*
X2049130D1*
X1989140Y918163D2*
X2054312D1*
X1991539Y914357D2*
X2059488D1*
X1993938Y910551D2*
X2064663D1*
X1996329Y906745D2*
X2069837D1*
X1998728Y902940D2*
X2075013D1*
X2001127Y899134D2*
X2080188D1*
X2003520Y895328D2*
X2085362D1*
X2005919Y891522D2*
X2088500D1*
X2008310Y887717D2*
X2088500D1*
X2010709Y883911D2*
X2088500D1*
X2013108Y880105D2*
X2088500D1*
X2015500Y876299D2*
X2088500D1*
X2017899Y872493D2*
X2088500D1*
X2020298Y868688D2*
X2088500D1*
X2022689Y864882D2*
X2088500D1*
X2025088Y861076D2*
X2088500D1*
X2027479Y857270D2*
X2088500D1*
X2029879Y853465D2*
X2088500D1*
X2032278Y849659D2*
X2088500D1*
X2034669Y845853D2*
X2088500D1*
X2037068Y842047D2*
X2088500D1*
X2039467Y838241D2*
X2088500D1*
X2041858Y834436D2*
X2088500D1*
X2044259Y830630D2*
X2088500D1*
X2046650Y826824D2*
X2088500D1*
X2049049Y823018D2*
X2088500D1*
X2051448Y819213D2*
X2088500D1*
X2053839Y815407D2*
X2088500D1*
X2056238Y811601D2*
X2088500D1*
X2058638Y807795D2*
X2088500D1*
X2061029Y803990D2*
X2088500D1*
X2063428Y800184D2*
X2088500D1*
X2065819Y796378D2*
X2088500D1*
X2068218Y792572D2*
X2088500D1*
X2070618Y788766D2*
X2088500D1*
X2073009Y784961D2*
X2088500D1*
X2075408Y781155D2*
X2088500D1*
X2077807Y777349D2*
X2088500D1*
X2080198Y773543D2*
X2088500D1*
X2082597Y769738D2*
X2088500D1*
X2084990Y765932D2*
X2088500D1*
X1934206Y990467D2*
X1958673Y965930D1*
X2088899Y759104D1*
X2088898Y893024D1*
X1956365Y990471D1*
X1934209Y990472D1*
X1837327Y1061470D2*
X1862714D1*
X1840126Y1057664D2*
X1875394D1*
X1844278Y1053858D2*
X1888081D1*
X1848430Y1050052D2*
X1900769D1*
X1852583Y1046247D2*
X1913457D1*
X1856735Y1042441D2*
X1926144D1*
X1860887Y1038635D2*
X1927083D1*
X1865039Y1034829D2*
X1927083D1*
X1869192Y1031024D2*
X1927083D1*
X1873344Y1027218D2*
X1927083D1*
X1877496Y1023412D2*
X1927083D1*
X1881648Y1019606D2*
X1927083D1*
X1850424Y1065276D2*
X1836937D1*
X1836929Y1060239D1*
X1882969Y1018033D1*
X1927472Y1018031D1*
X1927480Y1042154D1*
X1850417Y1065276D1*
X1879211Y1207139D2*
X1927083D1*
X1875059Y1203333D2*
X1927083D1*
X1870907Y1199528D2*
X1927083D1*
X1866755Y1195722D2*
X1927083D1*
X1862602Y1191916D2*
X1927083D1*
X1858457Y1188110D2*
X1927083D1*
X1854304Y1184304D2*
X1918701D1*
X1850152Y1180499D2*
X1906021D1*
X1846000Y1176693D2*
X1893333D1*
X1841848Y1172887D2*
X1880646D1*
X1837696Y1169081D2*
X1867958D1*
X1837327Y1165276D2*
X1855278D1*
X1836937Y1163701D2*
X1850424D1*
X1927476Y1186818D1*
X1927480Y1210937D1*
X1882966Y1210945D1*
X1836927Y1168738D1*
X1836929Y1163709D1*
X1367531Y1159895D2*
X1391650D1*
X1371337Y1156089D2*
X1391650D1*
X1375143Y1152283D2*
X1391650D1*
X1378950Y1148478D2*
X1391650D1*
X1382756Y1144672D2*
X1391650D1*
X1392047Y1144024D2*
Y1163693D1*
X1363343Y1163701D1*
X1383021Y1144014D1*
X1392039Y1144016D1*
X1144413Y1155958D2*
X1198736D1*
X1144413Y1152152D2*
X1198736D1*
X1146797Y1148346D2*
X1198736D1*
X1150604Y1144541D2*
X1198736D1*
X1154409Y1140735D2*
X1198736D1*
X1158217Y1136929D2*
X1198736D1*
X1162022Y1133123D2*
X1198736D1*
X1165828Y1129318D2*
X1198736D1*
X1169635Y1125512D2*
X1198736D1*
X1173441Y1121706D2*
X1198736D1*
X1177247Y1117900D2*
X1198736D1*
X1199126Y1159764D2*
X1144024D1*
X1144016Y1150744D1*
X1178295Y1116458D1*
X1199126Y1116457D1*
X1199134Y1159756D1*
X1849738Y1258320D2*
X1938894D1*
X1843856Y1254514D2*
X1938894D1*
X1837972Y1250709D2*
X1938894D1*
X1832098Y1246903D2*
X1938894D1*
X1826215Y1243097D2*
X1938894D1*
X1820333Y1239291D2*
X1938894D1*
X1814450Y1235486D2*
X1877978D1*
X1808568Y1231680D2*
X1874172D1*
X1802685Y1227874D2*
X1870365D1*
X1796803Y1224068D2*
X1866559D1*
X1790921Y1220262D2*
X1862753D1*
X1790083Y1216457D2*
X1858946D1*
X1939291Y1238512D2*
Y1262118D1*
X1855222Y1262126D1*
X1789692Y1219720D1*
X1789685Y1214890D1*
X1857760Y1214882D1*
X1881047Y1238129D1*
X1881596Y1238408D1*
X1882205Y1238504D1*
X1939283D1*
X1790083Y1010289D2*
X1861176D1*
X1794373Y1006483D2*
X1864983D1*
X1800256Y1002677D2*
X1868789D1*
X1806130Y998871D2*
X1872596D1*
X1812013Y995066D2*
X1876402D1*
X1817895Y991260D2*
X1880207D1*
X1823778Y987454D2*
X1938894D1*
X1829660Y983648D2*
X1938894D1*
X1835543Y979843D2*
X1938894D1*
X1841425Y976037D2*
X1938894D1*
X1847307Y972231D2*
X1938894D1*
X1853190Y968425D2*
X1938894D1*
X1939291Y966858D2*
Y990465D1*
X1881896Y990496D1*
X1881311Y990686D1*
X1880812Y991049D1*
X1857766Y1014096D1*
X1789693Y1014094D1*
X1789685Y1009257D1*
X1855224Y966852D1*
X1939283Y966850D1*
D20*
X1823150Y1567244D3*
Y1740472D3*
D21*
X1862520Y1405827D3*
X1803465D3*
X1862520Y1354646D3*
X1803465D3*
D20*
X1823150Y661732D3*
Y488504D3*
D21*
X1862520Y823150D3*
X1803465D3*
X1862520Y874331D3*
X1803465D3*
X1943228Y1309370D3*
Y1250315D3*
Y1140079D3*
Y1199134D3*
Y919606D3*
Y978661D3*
Y1088898D3*
Y1029843D3*
D22*
X2421575Y1358583D3*
X2346772D3*
X2421575Y1260157D3*
X2346772D3*
X2421575Y968819D3*
X2346772D3*
X2421575Y870394D3*
X2346772D3*
D21*
X1197165Y1311339D3*
X1256220D3*
X1197165Y1063307D3*
X1256220D3*
X1197165Y1260157D3*
X1256220D3*
X1197165Y1012126D3*
X1256220D3*
X1197165Y1208976D3*
X1256220D3*
X1086929Y909764D3*
X1145984D3*
D23*
X500315Y1240472D3*
X579055Y1531811D3*
X775906Y1240472D3*
D24*
X2657795Y1232598D3*
Y1429449D3*
Y799528D3*
Y996378D3*
D25*
X981417Y1771969D3*
X781417D3*
X881417D3*
X1081417D3*
X681417D3*
D26*
X811339Y827087D3*
D27*
X575118D3*
D28*
X693228Y634173D3*
D23*
X2122362Y1405827D3*
X2240472D3*
X2122362Y1212913D3*
X2240472D3*
X2118425Y1016063D3*
X2236535D3*
X2118425Y823150D3*
X2236535D3*
D29*
X520000Y1720787D3*
X2701102D3*
Y520000D3*
X520000D3*
D21*
X1197165Y1157795D3*
X1256220D3*
X1145984Y1208976D3*
Y1149921D3*
X1197165Y960945D3*
X1256220D3*
X1197165Y909764D3*
X1256220D3*
X1232598Y1771969D3*
X1173543D3*
X1232598Y1669606D3*
X1173543D3*
D25*
X1342835Y1771969D3*
X1442835D3*
X1342835Y1671969D3*
X1442835D3*
X590866Y1086929D3*
X690866D3*
D30*
X1425512Y1268031D3*
Y1242441D3*
Y1216850D3*
Y1191260D3*
Y1165669D3*
Y1140079D3*
Y1114488D3*
Y1088898D3*
Y1063307D3*
Y1037717D3*
Y1012126D3*
Y986535D3*
Y960945D3*
Y935354D3*
X1716850D3*
Y960945D3*
Y986535D3*
Y1012126D3*
Y1037717D3*
Y1063307D3*
Y1088898D3*
Y1114488D3*
Y1140079D3*
Y1165669D3*
Y1191260D3*
Y1216850D3*
Y1242441D3*
Y1268031D3*
D31*
X1571181Y1101693D3*
D30*
X1425512Y1293622D3*
Y909764D3*
X1716850Y1293622D3*
Y909764D3*
M02*
