G04 DipTrace 3.1.0.1*
G04 TPA3128D2route.TopSilk.gbr*
%MOIN*%
G04 #@! TF.FileFunction,Legend,Top*
G04 #@! TF.Part,Single*
%ADD10C,0.009843*%
%ADD19C,0.007874*%
%ADD32C,0.031496*%
%ADD70C,0.004632*%
%FSLAX26Y26*%
G04*
G70*
G90*
G75*
G01*
G04 TopSilk*
%LPD*%
X1693228Y1783784D2*
D10*
X1775910D1*
X1693228D2*
Y1567264D1*
X1736544Y1523947D2*
X1693228Y1567264D1*
X1736544Y1523947D2*
X1775910D1*
X1870389Y1783784D2*
X1953071D1*
Y1567264D1*
X1909755Y1523947D2*
X1953071Y1567264D1*
X1870389Y1523947D2*
X1909755D1*
X1693228Y1653866D2*
X1953071D1*
X1764087Y1480630D2*
Y1504246D1*
X1752265Y1492438D2*
X1775910D1*
X1870389Y1783784D2*
Y1657780D1*
X1775910Y1783784D2*
Y1653866D1*
X1779834Y1669620D2*
X1870389D1*
G36*
X1693228Y1653866D2*
X1775910D1*
Y1783784D1*
X1693228D1*
Y1653866D1*
G37*
G36*
X1779834Y1657780D2*
X1874339D1*
Y1669620D1*
X1779834D1*
Y1657780D1*
G37*
G36*
X1870389D2*
X1953071D1*
Y1783784D1*
X1870389D1*
Y1657780D1*
G37*
X1844809Y1380236D2*
D10*
X1888110D1*
Y1431417D1*
X1844809D1*
X1777885Y1380236D2*
X1821186D1*
X1777874D2*
Y1431417D1*
X1821186D2*
X1777885D1*
X1844809Y1329055D2*
X1888110D1*
Y1380236D1*
X1844809D1*
X1777885Y1329055D2*
X1821186D1*
X1777874D2*
Y1380236D1*
X1821186D2*
X1777885D1*
X1953071Y445192D2*
X1870389D1*
X1953071D2*
Y661713D1*
X1909755Y705030D2*
X1953071Y661713D1*
X1909755Y705030D2*
X1870389D1*
X1775910Y445192D2*
X1693228D1*
Y661713D1*
X1736544Y705030D2*
X1693228Y661713D1*
X1775910Y705030D2*
X1736544D1*
X1953071Y575111D2*
X1693228D1*
X1882212Y748346D2*
Y724731D1*
X1894035Y736539D2*
X1870389D1*
X1775910Y445192D2*
Y571196D1*
X1870389Y445192D2*
Y575111D1*
X1866465Y559356D2*
X1775910D1*
G36*
X1953071Y575111D2*
X1870389D1*
Y445192D1*
X1953071D1*
Y575111D1*
G37*
G36*
X1866465Y571196D2*
X1771961D1*
Y559356D1*
X1866465D1*
Y571196D1*
G37*
G36*
X1775910D2*
X1693228D1*
Y445192D1*
X1775910D1*
Y571196D1*
G37*
X1844809Y797559D2*
D10*
X1888110D1*
Y848740D1*
X1844809D1*
X1777885Y797559D2*
X1821186D1*
X1777874D2*
Y848740D1*
X1821186D2*
X1777885D1*
X1844809D2*
X1888110D1*
Y899921D1*
X1844809D1*
X1777885Y848740D2*
X1821186D1*
X1777874D2*
Y899921D1*
X1821186D2*
X1777885D1*
X1968819Y1291660D2*
Y1334961D1*
X1917638D1*
Y1291660D1*
X1968819Y1224735D2*
Y1268036D1*
Y1224724D2*
X1917638D1*
Y1268036D2*
Y1224735D1*
Y1157789D2*
Y1114488D1*
X1968819D1*
Y1157789D1*
X1917638Y1224713D2*
Y1181413D1*
Y1224724D2*
X1968819D1*
Y1181413D2*
Y1224713D1*
X1917638Y937317D2*
Y894016D1*
X1968819D1*
Y937317D1*
X1917638Y1004241D2*
Y960940D1*
Y1004252D2*
X1968819D1*
Y960940D2*
Y1004241D1*
Y1071187D2*
Y1114488D1*
X1917638D1*
Y1071187D1*
X1968819Y1004263D2*
Y1047564D1*
Y1004252D2*
X1917638D1*
Y1047564D2*
Y1004263D1*
X2395982Y1323150D2*
X2453071D1*
Y1394016D1*
X2395982D1*
X2315276Y1323150D2*
X2372364D1*
X2315276D2*
Y1394016D1*
X2372364D2*
X2315276D1*
X2395982Y1224724D2*
X2453071D1*
Y1295591D1*
X2395982D1*
X2315276Y1224724D2*
X2372364D1*
X2315276D2*
Y1295591D1*
X2372364D2*
X2315276D1*
X2395982Y933386D2*
X2453071D1*
Y1004252D1*
X2395982D1*
X2315276Y933386D2*
X2372364D1*
X2315276D2*
Y1004252D1*
X2372364D2*
X2315276D1*
X2395982Y834961D2*
X2453071D1*
Y905827D1*
X2395982D1*
X2315276Y834961D2*
X2372364D1*
X2315276D2*
Y905827D1*
X2372364D2*
X2315276D1*
X1214876Y1336929D2*
X1171575D1*
Y1285748D1*
X1214876D1*
X1281800Y1336929D2*
X1238499D1*
X1281811D2*
Y1285748D1*
X1238499D2*
X1281800D1*
X1214876Y1088898D2*
X1171575D1*
Y1037717D1*
X1214876D1*
X1281800Y1088898D2*
X1238499D1*
X1281811D2*
Y1037717D1*
X1238499D2*
X1281800D1*
X1214876Y1285748D2*
X1171575D1*
Y1234567D1*
X1214876D1*
X1281800Y1285748D2*
X1238499D1*
X1281811D2*
Y1234567D1*
X1238499D2*
X1281800D1*
X1214876Y1037717D2*
X1171575D1*
Y986535D1*
X1214876D1*
X1281800Y1037717D2*
X1238499D1*
X1281811D2*
Y986535D1*
X1238499D2*
X1281800D1*
X1214876Y1234567D2*
X1171575D1*
Y1183386D1*
X1214876D1*
X1281800Y1234567D2*
X1238499D1*
X1281811D2*
Y1183386D1*
X1238499D2*
X1281800D1*
X1104639Y935354D2*
X1061339D1*
Y884173D1*
X1104639D1*
X1171564Y935354D2*
X1128263D1*
X1171575D2*
Y884173D1*
X1128263D2*
X1171564D1*
X417646Y1504240D2*
Y1268043D1*
X850709Y1504240D2*
Y1268043D1*
X417646Y1504240D2*
X535764D1*
X622354D2*
X748354D1*
X417646Y1268043D2*
X457000D1*
X543646D2*
X732591D1*
X850709D2*
X819236D1*
X795591Y1504240D2*
X850709D1*
X748354Y1488520D2*
Y1504240D1*
X795591D2*
Y1488520D1*
X748354D1*
X2500315Y1134173D2*
X2795591D1*
Y1527874D1*
X2500315D1*
Y1134173D1*
Y701102D2*
X2795591D1*
Y1094803D1*
X2500315D1*
Y701102D1*
X1106367Y1821969D2*
X1056417D1*
X1106367D2*
X1131417Y1796969D1*
Y1746969D1*
X1106367Y1721969D1*
X1056417Y1821969D2*
X1031367Y1796969D1*
X1006467Y1821969D1*
X756417Y1721969D2*
X806367D1*
X831417Y1746969D1*
X856467Y1721969D1*
X906417D1*
X931467Y1746969D1*
X956367Y1721969D1*
X1006467D1*
X1031367Y1746969D1*
X1056417Y1721969D1*
X1081467D1*
X1106367D1*
X1006467Y1821969D2*
X956367D1*
X931467Y1796969D1*
X906417Y1821969D1*
X856467D1*
X831417Y1796969D1*
X806367Y1821969D1*
X756417D1*
X731417Y1796969D1*
Y1746969D2*
X756417Y1721969D1*
X656417D2*
X706367D1*
X731417Y1746969D1*
Y1796969D2*
X706367Y1821969D1*
X656417D1*
X631417Y1796969D1*
Y1746969D1*
X656417Y1721969D1*
X842838Y720781D2*
Y649921D1*
X417637Y1004265D2*
X842838D1*
Y933361D1*
Y649921D2*
X795613D1*
X588887D2*
X417637D1*
Y1004265D1*
X2082992Y1488504D2*
X2279843D1*
Y1323150D1*
X2082992D1*
Y1488504D1*
Y1295591D2*
X2279843D1*
Y1130236D1*
X2082992D1*
Y1295591D1*
X2079055Y1098740D2*
X2275906D1*
Y933386D1*
X2079055D1*
Y1098740D1*
Y905827D2*
X2275906D1*
Y740472D1*
X2079055D1*
Y905827D1*
X1214876Y1183386D2*
X1171575D1*
Y1132205D1*
X1214876D1*
X1281800Y1183386D2*
X1238499D1*
X1281811D2*
Y1132205D1*
X1238499D2*
X1281800D1*
X1171575Y1191266D2*
Y1234567D1*
X1120394D1*
Y1191266D1*
X1171575Y1124342D2*
Y1167643D1*
Y1124331D2*
X1120394D1*
Y1167643D2*
Y1124342D1*
X1214876Y986535D2*
X1171575D1*
Y935354D1*
X1214876D1*
X1281800Y986535D2*
X1238499D1*
X1281811D2*
Y935354D1*
X1238499D2*
X1281800D1*
X1214876D2*
X1171575D1*
Y884173D1*
X1214876D1*
X1281800Y935354D2*
X1238499D1*
X1281811D2*
Y884173D1*
X1238499D2*
X1281800D1*
X1214888Y1746378D2*
X1258189D1*
Y1797559D1*
X1214888D1*
X1147964Y1746378D2*
X1191265D1*
X1147953D2*
Y1797559D1*
X1191265D2*
X1147964D1*
X1214888Y1644016D2*
X1258189D1*
Y1695197D1*
X1214888D1*
X1147964Y1644016D2*
X1191265D1*
X1147953D2*
Y1695197D1*
X1191265D2*
X1147964D1*
X1467781Y1821969D2*
X1417833D1*
X1467781D2*
X1492835Y1796969D1*
Y1746969D1*
X1467781Y1721969D1*
X1417833Y1821969D2*
X1392780Y1796969D1*
X1367886Y1821969D1*
X1292885Y1746969D2*
X1317778Y1721969D1*
X1367886D1*
X1392780Y1746969D1*
X1417833Y1721969D1*
X1442887D1*
X1467781D1*
X1367886Y1821969D2*
X1317778D1*
X1292885Y1796969D1*
Y1746969D1*
X1467781Y1721969D2*
X1417833D1*
X1467781D2*
X1492835Y1696969D1*
Y1646969D1*
X1467781Y1621969D1*
X1417833Y1721969D2*
X1392780Y1696969D1*
X1367886Y1721969D1*
X1292885Y1646969D2*
X1317778Y1621969D1*
X1367886D1*
X1392780Y1646969D1*
X1417833Y1621969D1*
X1442887D1*
X1467781D1*
X1367886Y1721969D2*
X1317778D1*
X1292885Y1696969D1*
Y1646969D1*
X715812Y1136929D2*
X665865D1*
X715812D2*
X740866Y1111929D1*
Y1061929D1*
X715812Y1036929D1*
X665865Y1136929D2*
X640811Y1111929D1*
X615917Y1136929D1*
X540916Y1061929D2*
X565810Y1036929D1*
X615917D1*
X640811Y1061929D1*
X665865Y1036929D1*
X690919D1*
X715812D1*
X615917Y1136929D2*
X565810D1*
X540916Y1111929D1*
Y1061929D1*
X1453066Y885157D2*
X1689296D1*
X1453066Y1318228D2*
X1551513D1*
X1590849D2*
X1689296D1*
X1551513D2*
G03X1590849Y1318228I19668J-37D01*
G01*
X890079Y917640D2*
D19*
G02X890079Y917640I39370J0D01*
G01*
X913701Y917626D2*
X945197D1*
X929449Y933390D2*
Y901890D1*
X890079Y720785D2*
G02X890079Y720785I39370J0D01*
G01*
X913701Y720799D2*
X945197D1*
X890079Y838890D2*
G03X968819Y838890I39370J16D01*
G01*
D32*
X929449Y838904D3*
Y878272D2*
D19*
Y838890D1*
Y799535D2*
Y760154D1*
X2244409Y1732598D2*
X2323150D1*
Y1575118D1*
X2244409D1*
Y1732598D1*
X2323150D2*
X2401890Y1811339D1*
Y1496378D1*
X2323150Y1575118D1*
X2244409Y669606D2*
X2323150D1*
Y512126D1*
X2244409D1*
Y669606D1*
X2323150D2*
X2401890Y748346D1*
Y433386D1*
X2323150Y512126D1*
X1970409Y1643594D2*
D70*
X1967557Y1642168D1*
X1964672Y1639283D1*
X1963246Y1636431D1*
Y1630694D1*
X1964672Y1627809D1*
X1967557Y1624957D1*
X1970409Y1623498D1*
X1974720Y1622072D1*
X1981916D1*
X1986194Y1623498D1*
X1989079Y1624957D1*
X1991931Y1627809D1*
X1993390Y1630694D1*
Y1636431D1*
X1991931Y1639283D1*
X1989079Y1642168D1*
X1986194Y1643594D1*
X1969016Y1652858D2*
X1967557Y1655743D1*
X1963279Y1660054D1*
X1993390D1*
X1931436Y1417007D2*
X1930010Y1419859D1*
X1927125Y1422744D1*
X1924273Y1424170D1*
X1918536D1*
X1915651Y1422744D1*
X1912799Y1419859D1*
X1911340Y1417007D1*
X1909914Y1412696D1*
Y1405500D1*
X1911340Y1401222D1*
X1912799Y1398337D1*
X1915651Y1395485D1*
X1918536Y1394026D1*
X1924273D1*
X1927125Y1395485D1*
X1930010Y1398337D1*
X1931436Y1401222D1*
X1942158Y1416974D2*
Y1418400D1*
X1943584Y1421285D1*
X1945010Y1422711D1*
X1947895Y1424137D1*
X1953632D1*
X1956484Y1422711D1*
X1957910Y1421285D1*
X1959369Y1418400D1*
Y1415548D1*
X1957910Y1412663D1*
X1955058Y1408385D1*
X1940699Y1394026D1*
X1960795D1*
X1931436Y1369763D2*
X1930010Y1372615D1*
X1927125Y1375500D1*
X1924273Y1376926D1*
X1918536D1*
X1915651Y1375500D1*
X1912799Y1372615D1*
X1911340Y1369763D1*
X1909914Y1365452D1*
Y1358256D1*
X1911340Y1353978D1*
X1912799Y1351093D1*
X1915651Y1348241D1*
X1918536Y1346782D1*
X1924273D1*
X1927125Y1348241D1*
X1930010Y1351093D1*
X1931436Y1353978D1*
X1943584Y1376893D2*
X1959336D1*
X1950747Y1365419D1*
X1955058D1*
X1957910Y1363993D1*
X1959336Y1362567D1*
X1960795Y1358256D1*
Y1355404D1*
X1959336Y1351093D1*
X1956484Y1348208D1*
X1952173Y1346782D1*
X1947862D1*
X1943584Y1348208D1*
X1942158Y1349667D1*
X1940699Y1352519D1*
X1970409Y583282D2*
X1967557Y581856D1*
X1964672Y578971D1*
X1963246Y576119D1*
Y570382D1*
X1964672Y567497D1*
X1967557Y564645D1*
X1970409Y563186D1*
X1974720Y561760D1*
X1981916D1*
X1986194Y563186D1*
X1989079Y564645D1*
X1991931Y567497D1*
X1993390Y570382D1*
Y576119D1*
X1991931Y578971D1*
X1989079Y581856D1*
X1986194Y583282D1*
X1993390Y606904D2*
X1963279D1*
X1983342Y592545D1*
Y614067D1*
X1923562Y826456D2*
X1922136Y829308D1*
X1919250Y832193D1*
X1916399Y833619D1*
X1910662D1*
X1907777Y832193D1*
X1904925Y829308D1*
X1903466Y826456D1*
X1902040Y822145D1*
Y814949D1*
X1903466Y810671D1*
X1904925Y807786D1*
X1907777Y804934D1*
X1910662Y803475D1*
X1916399D1*
X1919250Y804934D1*
X1922136Y807786D1*
X1923562Y810671D1*
X1950036Y833586D2*
X1935710D1*
X1934284Y820686D1*
X1935710Y822112D1*
X1940021Y823571D1*
X1944299D1*
X1948610Y822112D1*
X1951495Y819260D1*
X1952921Y814949D1*
Y812097D1*
X1951495Y807786D1*
X1948610Y804901D1*
X1944299Y803475D1*
X1940021D1*
X1935710Y804901D1*
X1934284Y806360D1*
X1932825Y809212D1*
X1924291Y873700D2*
X1922865Y876552D1*
X1919980Y879437D1*
X1917128Y880863D1*
X1911391D1*
X1908506Y879437D1*
X1905654Y876552D1*
X1904195Y873700D1*
X1902769Y869389D1*
Y862193D1*
X1904195Y857915D1*
X1905654Y855030D1*
X1908506Y852178D1*
X1911391Y850719D1*
X1917128D1*
X1919980Y852178D1*
X1922865Y855030D1*
X1924291Y857915D1*
X1950766Y876552D2*
X1949340Y879404D1*
X1945029Y880830D1*
X1942177D1*
X1937866Y879404D1*
X1934981Y875093D1*
X1933555Y867930D1*
Y860767D1*
X1934981Y855030D1*
X1937866Y852145D1*
X1942177Y850719D1*
X1943603D1*
X1947880Y852145D1*
X1950766Y855030D1*
X1952192Y859341D1*
Y860767D1*
X1950766Y865078D1*
X1947880Y867930D1*
X1943603Y869356D1*
X1942177D1*
X1937866Y867930D1*
X1934981Y865078D1*
X1933555Y860767D1*
X1880867Y1275924D2*
X1878015Y1274498D1*
X1875130Y1271613D1*
X1873704Y1268761D1*
Y1263024D1*
X1875130Y1260139D1*
X1878015Y1257287D1*
X1880867Y1255828D1*
X1885178Y1254402D1*
X1892374D1*
X1896652Y1255828D1*
X1899537Y1257287D1*
X1902389Y1260139D1*
X1903848Y1263024D1*
Y1268761D1*
X1902389Y1271613D1*
X1899537Y1274498D1*
X1896652Y1275924D1*
X1903848Y1290924D2*
X1873737Y1305283D1*
Y1285187D1*
X1880867Y1165704D2*
X1878015Y1164278D1*
X1875130Y1161393D1*
X1873704Y1158541D1*
Y1152804D1*
X1875130Y1149919D1*
X1878015Y1147067D1*
X1880867Y1145608D1*
X1885178Y1144182D1*
X1892374D1*
X1896652Y1145608D1*
X1899537Y1147067D1*
X1902389Y1149919D1*
X1903848Y1152804D1*
Y1158541D1*
X1902389Y1161393D1*
X1899537Y1164278D1*
X1896652Y1165704D1*
X1873737Y1182131D2*
X1875163Y1177853D1*
X1878015Y1176394D1*
X1880900D1*
X1883752Y1177853D1*
X1885211Y1180705D1*
X1886637Y1186442D1*
X1888063Y1190753D1*
X1890948Y1193605D1*
X1893800Y1195030D1*
X1898111D1*
X1900963Y1193605D1*
X1902422Y1192179D1*
X1903848Y1187868D1*
Y1182131D1*
X1902422Y1177853D1*
X1900963Y1176394D1*
X1898111Y1174968D1*
X1893800D1*
X1890948Y1176394D1*
X1888063Y1179279D1*
X1886637Y1183557D1*
X1885211Y1189294D1*
X1883752Y1192179D1*
X1880900Y1193605D1*
X1878015D1*
X1875163Y1192179D1*
X1873737Y1187868D1*
Y1182131D1*
X1880867Y1056164D2*
X1878015Y1054738D1*
X1875130Y1051853D1*
X1873704Y1049001D1*
Y1043264D1*
X1875130Y1040379D1*
X1878015Y1037528D1*
X1880867Y1036068D1*
X1885178Y1034642D1*
X1892374D1*
X1896652Y1036068D1*
X1899537Y1037527D1*
X1902389Y1040379D1*
X1903848Y1043264D1*
Y1049001D1*
X1902389Y1051853D1*
X1899537Y1054738D1*
X1896652Y1056164D1*
X1883752Y1084098D2*
X1888063Y1082639D1*
X1890948Y1079787D1*
X1892374Y1075476D1*
Y1074050D1*
X1890948Y1069739D1*
X1888063Y1066887D1*
X1883752Y1065428D1*
X1882326D1*
X1878015Y1066887D1*
X1875163Y1069739D1*
X1873737Y1074050D1*
Y1075476D1*
X1875163Y1079787D1*
X1878015Y1082639D1*
X1883752Y1084098D1*
X1890948D1*
X1898111Y1082639D1*
X1902422Y1079787D1*
X1903848Y1075476D1*
Y1072624D1*
X1902422Y1068313D1*
X1899537Y1066887D1*
X1880867Y948796D2*
X1878015Y947370D1*
X1875130Y944485D1*
X1873704Y941633D1*
Y935896D1*
X1875130Y933011D1*
X1878015Y930160D1*
X1880867Y928700D1*
X1885178Y927274D1*
X1892374D1*
X1896652Y928700D1*
X1899537Y930160D1*
X1902389Y933011D1*
X1903848Y935896D1*
Y941633D1*
X1902389Y944485D1*
X1899537Y947370D1*
X1896652Y948796D1*
X1879474Y958060D2*
X1878015Y960945D1*
X1873737Y965256D1*
X1903848D1*
X1873737Y983142D2*
X1875163Y978831D1*
X1879474Y975945D1*
X1886637Y974519D1*
X1890948D1*
X1898111Y975945D1*
X1902422Y978830D1*
X1903848Y983142D1*
Y985993D1*
X1902422Y990304D1*
X1898111Y993156D1*
X1890948Y994615D1*
X1886637D1*
X1879474Y993156D1*
X1875163Y990304D1*
X1873737Y985993D1*
Y983142D1*
X1879474Y993156D2*
X1898111Y975945D1*
X2378475Y1430787D2*
X2377049Y1433639D1*
X2374164Y1436524D1*
X2371312Y1437950D1*
X2365575D1*
X2362690Y1436524D1*
X2359838Y1433639D1*
X2358379Y1430787D1*
X2356953Y1426476D1*
Y1419280D1*
X2358379Y1415002D1*
X2359838Y1412117D1*
X2362690Y1409265D1*
X2365575Y1407806D1*
X2371312D1*
X2374164Y1409265D1*
X2377049Y1412117D1*
X2378475Y1415002D1*
X2387738Y1432179D2*
X2390623Y1433639D1*
X2394934Y1437916D1*
Y1407806D1*
X2404198Y1432179D2*
X2407083Y1433639D1*
X2411394Y1437916D1*
Y1407806D1*
X2372025Y1202440D2*
X2370599Y1205292D1*
X2367714Y1208177D1*
X2364862Y1209603D1*
X2359125D1*
X2356240Y1208177D1*
X2353388Y1205292D1*
X2351929Y1202440D1*
X2350503Y1198129D1*
Y1190933D1*
X2351929Y1186655D1*
X2353388Y1183770D1*
X2356240Y1180918D1*
X2359125Y1179459D1*
X2364862D1*
X2367714Y1180918D1*
X2370599Y1183770D1*
X2372025Y1186655D1*
X2381288Y1203833D2*
X2384173Y1205292D1*
X2388484Y1209570D1*
Y1179459D1*
X2399207Y1202407D2*
Y1203833D1*
X2400633Y1206718D1*
X2402059Y1208144D1*
X2404944Y1209570D1*
X2410681D1*
X2413533Y1208144D1*
X2414959Y1206718D1*
X2416418Y1203833D1*
Y1200981D1*
X2414959Y1198096D1*
X2412107Y1193818D1*
X2397748Y1179459D1*
X2417844D1*
X2372025Y1041023D2*
X2370599Y1043875D1*
X2367714Y1046760D1*
X2364862Y1048186D1*
X2359125D1*
X2356240Y1046760D1*
X2353388Y1043875D1*
X2351929Y1041023D1*
X2350503Y1036712D1*
Y1029516D1*
X2351929Y1025238D1*
X2353388Y1022353D1*
X2356240Y1019501D1*
X2359125Y1018042D1*
X2364862D1*
X2367714Y1019501D1*
X2370599Y1022353D1*
X2372025Y1025238D1*
X2381288Y1042416D2*
X2384173Y1043875D1*
X2388484Y1048153D1*
Y1018042D1*
X2400633Y1048153D2*
X2416385D1*
X2407796Y1036679D1*
X2412107D1*
X2414959Y1035253D1*
X2416385Y1033827D1*
X2417844Y1029516D1*
Y1026664D1*
X2416385Y1022353D1*
X2413533Y1019468D1*
X2409222Y1018042D1*
X2404911D1*
X2400633Y1019468D1*
X2399207Y1020927D1*
X2397748Y1023779D1*
X2371312Y808739D2*
X2369886Y811591D1*
X2367001Y814476D1*
X2364149Y815902D1*
X2358412D1*
X2355527Y814476D1*
X2352675Y811591D1*
X2351216Y808739D1*
X2349790Y804428D1*
Y797232D1*
X2351216Y792954D1*
X2352675Y790069D1*
X2355527Y787217D1*
X2358412Y785758D1*
X2364149D1*
X2367001Y787217D1*
X2369886Y790069D1*
X2371312Y792954D1*
X2380575Y810132D2*
X2383460Y811591D1*
X2387771Y815869D1*
Y785758D1*
X2411394D2*
Y815869D1*
X2397035Y795806D1*
X2418557D1*
X1214544Y1373700D2*
X1213118Y1376552D1*
X1210233Y1379437D1*
X1207381Y1380863D1*
X1201644D1*
X1198759Y1379437D1*
X1195907Y1376552D1*
X1194448Y1373700D1*
X1193022Y1369389D1*
Y1362193D1*
X1194448Y1357915D1*
X1195907Y1355030D1*
X1198759Y1352178D1*
X1201644Y1350719D1*
X1207381D1*
X1210233Y1352178D1*
X1213118Y1355030D1*
X1214544Y1357915D1*
X1223808Y1375093D2*
X1226693Y1376552D1*
X1231004Y1380830D1*
Y1350719D1*
X1257478Y1380830D2*
X1243153D1*
X1241727Y1367930D1*
X1243153Y1369356D1*
X1247464Y1370815D1*
X1251741D1*
X1256052Y1369356D1*
X1258938Y1366504D1*
X1260363Y1362193D1*
Y1359341D1*
X1258938Y1355030D1*
X1256052Y1352145D1*
X1251741Y1350719D1*
X1247464D1*
X1243153Y1352145D1*
X1241727Y1353604D1*
X1240267Y1356456D1*
X1112912Y1074487D2*
X1111486Y1077339D1*
X1108601Y1080224D1*
X1105749Y1081650D1*
X1100012D1*
X1097127Y1080224D1*
X1094275Y1077339D1*
X1092816Y1074487D1*
X1091390Y1070176D1*
Y1062980D1*
X1092816Y1058702D1*
X1094275Y1055817D1*
X1097127Y1052965D1*
X1100012Y1051506D1*
X1105749D1*
X1108601Y1052965D1*
X1111486Y1055817D1*
X1112912Y1058702D1*
X1122175Y1075880D2*
X1125060Y1077339D1*
X1129371Y1081617D1*
Y1051506D1*
X1155846Y1077339D2*
X1154420Y1080191D1*
X1150109Y1081617D1*
X1147257D1*
X1142946Y1080191D1*
X1140061Y1075880D1*
X1138635Y1068717D1*
Y1061554D1*
X1140061Y1055817D1*
X1142946Y1052932D1*
X1147257Y1051506D1*
X1148683D1*
X1152961Y1052932D1*
X1155846Y1055817D1*
X1157272Y1060128D1*
Y1061554D1*
X1155846Y1065865D1*
X1152961Y1068717D1*
X1148683Y1070143D1*
X1147257D1*
X1142946Y1068717D1*
X1140061Y1065865D1*
X1138635Y1061554D1*
X1316907Y1267401D2*
X1315481Y1270253D1*
X1312595Y1273138D1*
X1309744Y1274564D1*
X1304007D1*
X1301122Y1273138D1*
X1298270Y1270253D1*
X1296810Y1267401D1*
X1295385Y1263090D1*
Y1255894D1*
X1296810Y1251616D1*
X1298270Y1248731D1*
X1301122Y1245879D1*
X1304007Y1244420D1*
X1309744D1*
X1312595Y1245879D1*
X1315481Y1248731D1*
X1316907Y1251616D1*
X1326170Y1268794D2*
X1329055Y1270253D1*
X1333366Y1274531D1*
Y1244420D1*
X1348367D2*
X1362726Y1274531D1*
X1342630D1*
X1112199Y1023306D2*
X1110773Y1026158D1*
X1107888Y1029043D1*
X1105036Y1030469D1*
X1099299D1*
X1096414Y1029043D1*
X1093562Y1026158D1*
X1092103Y1023306D1*
X1090677Y1018995D1*
Y1011799D1*
X1092103Y1007521D1*
X1093562Y1004636D1*
X1096414Y1001784D1*
X1099299Y1000325D1*
X1105036D1*
X1107888Y1001784D1*
X1110773Y1004636D1*
X1112199Y1007521D1*
X1121462Y1024699D2*
X1124347Y1026158D1*
X1128658Y1030436D1*
Y1000325D1*
X1145085Y1030436D2*
X1140807Y1029010D1*
X1139348Y1026158D1*
Y1023273D1*
X1140807Y1020421D1*
X1143659Y1018962D1*
X1149396Y1017536D1*
X1153707Y1016110D1*
X1156559Y1013225D1*
X1157985Y1010373D1*
Y1006062D1*
X1156559Y1003210D1*
X1155133Y1001751D1*
X1150822Y1000325D1*
X1145085D1*
X1140807Y1001751D1*
X1139348Y1003210D1*
X1137922Y1006062D1*
Y1010373D1*
X1139348Y1013225D1*
X1142233Y1016110D1*
X1146511Y1017536D1*
X1152248Y1018962D1*
X1155133Y1020421D1*
X1156559Y1023273D1*
Y1026158D1*
X1155133Y1029010D1*
X1150822Y1030436D1*
X1145085D1*
X1317619Y1216220D2*
X1316194Y1219072D1*
X1313308Y1221957D1*
X1310457Y1223383D1*
X1304720D1*
X1301834Y1221957D1*
X1298983Y1219072D1*
X1297523Y1216220D1*
X1296098Y1211909D1*
Y1204713D1*
X1297523Y1200435D1*
X1298983Y1197550D1*
X1301834Y1194698D1*
X1304720Y1193239D1*
X1310457D1*
X1313308Y1194698D1*
X1316194Y1197550D1*
X1317619Y1200435D1*
X1326883Y1217613D2*
X1329768Y1219072D1*
X1334079Y1223350D1*
Y1193239D1*
X1362013Y1213335D2*
X1360554Y1209024D1*
X1357702Y1206139D1*
X1353391Y1204713D1*
X1351965D1*
X1347654Y1206139D1*
X1344802Y1209024D1*
X1343343Y1213335D1*
Y1214761D1*
X1344802Y1219072D1*
X1347654Y1221924D1*
X1351965Y1223350D1*
X1353391D1*
X1357702Y1221924D1*
X1360554Y1219072D1*
X1362013Y1213335D1*
Y1206139D1*
X1360554Y1198976D1*
X1357702Y1194665D1*
X1353391Y1193239D1*
X1350539D1*
X1346228Y1194665D1*
X1344802Y1197550D1*
X1024568Y891165D2*
X1021716Y889739D1*
X1018831Y886854D1*
X1017405Y884002D1*
Y878265D1*
X1018831Y875380D1*
X1021716Y872528D1*
X1024568Y871069D1*
X1028879Y869643D1*
X1036075D1*
X1040353Y871069D1*
X1043238Y872528D1*
X1046090Y875380D1*
X1047549Y878265D1*
Y884002D1*
X1046090Y886854D1*
X1043238Y889739D1*
X1040353Y891165D1*
X1024601Y901888D2*
X1023175D1*
X1020290Y903314D1*
X1018864Y904740D1*
X1017438Y907625D1*
Y913362D1*
X1018864Y916214D1*
X1020290Y917640D1*
X1023175Y919099D1*
X1026027D1*
X1028912Y917640D1*
X1033190Y914788D1*
X1047549Y900429D1*
Y920525D1*
X1017438Y938410D2*
X1018864Y934099D1*
X1023175Y931214D1*
X1030338Y929788D1*
X1034649D1*
X1041812Y931214D1*
X1046123Y934099D1*
X1047549Y938410D1*
Y941262D1*
X1046123Y945573D1*
X1041812Y948425D1*
X1034649Y949884D1*
X1030338D1*
X1023175Y948425D1*
X1018864Y945573D1*
X1017438Y941262D1*
Y938410D1*
X1023175Y948425D2*
X1041812Y931214D1*
X2039058Y1388992D2*
X2069202D1*
Y1406202D1*
X2044828Y1415466D2*
X2043369Y1418351D1*
X2039092Y1422662D1*
X2069202D1*
X2039058Y1189628D2*
X2069202D1*
Y1206839D1*
X2046254Y1217562D2*
X2044828D1*
X2041943Y1218988D1*
X2040517Y1220414D1*
X2039092Y1223299D1*
Y1229036D1*
X2040517Y1231888D1*
X2041943Y1233314D1*
X2044828Y1234773D1*
X2047680D1*
X2050565Y1233314D1*
X2054843Y1230462D1*
X2069202Y1216103D1*
Y1236199D1*
X2035121Y992778D2*
X2065265D1*
Y1009989D1*
X2035154Y1022137D2*
Y1037889D1*
X2046628Y1029300D1*
Y1033611D1*
X2048054Y1036463D1*
X2049480Y1037889D1*
X2053791Y1039348D1*
X2056643D1*
X2060954Y1037889D1*
X2063839Y1035037D1*
X2065265Y1030726D1*
Y1026415D1*
X2063839Y1022137D1*
X2062380Y1020711D1*
X2059528Y1019252D1*
X2035121Y799152D2*
X2065265D1*
Y816362D1*
Y839985D2*
X2035154D1*
X2055217Y825626D1*
Y847148D1*
X1298966Y1157843D2*
X1311866D1*
X1316177Y1159302D1*
X1317636Y1160728D1*
X1319062Y1163580D1*
Y1166465D1*
X1317636Y1169316D1*
X1316177Y1170776D1*
X1311866Y1172202D1*
X1298966D1*
Y1142058D1*
X1309014Y1157843D2*
X1319062Y1142058D1*
X1328326Y1166431D2*
X1331211Y1167891D1*
X1335522Y1172168D1*
Y1142058D1*
X1090819Y1154721D2*
Y1167621D1*
X1089360Y1171932D1*
X1087934Y1173391D1*
X1085082Y1174817D1*
X1082197D1*
X1079345Y1173391D1*
X1077886Y1171932D1*
X1076460Y1167621D1*
Y1154721D1*
X1106604D1*
X1090819Y1164769D2*
X1106604Y1174817D1*
X1083656Y1185540D2*
X1082230D1*
X1079345Y1186966D1*
X1077919Y1188392D1*
X1076493Y1191277D1*
Y1197014D1*
X1077919Y1199866D1*
X1079345Y1201292D1*
X1082230Y1202751D1*
X1085082D1*
X1087967Y1201292D1*
X1092245Y1198440D1*
X1106604Y1184081D1*
Y1204177D1*
X1103540Y964929D2*
X1116440D1*
X1120751Y966388D1*
X1122210Y967814D1*
X1123636Y970666D1*
Y973551D1*
X1122210Y976403D1*
X1120751Y977862D1*
X1116440Y979288D1*
X1103540D1*
Y949144D1*
X1113588Y964929D2*
X1123636Y949144D1*
X1135785Y979255D2*
X1151536D1*
X1142947Y967781D1*
X1147259D1*
X1150110Y966355D1*
X1151536Y964929D1*
X1152995Y960618D1*
Y957766D1*
X1151536Y953455D1*
X1148684Y950570D1*
X1144373Y949144D1*
X1140062D1*
X1135785Y950570D1*
X1134359Y952029D1*
X1132899Y954881D1*
X1201252Y859639D2*
X1214152D1*
X1218463Y861098D1*
X1219922Y862524D1*
X1221348Y865376D1*
Y868261D1*
X1219922Y871113D1*
X1218463Y872572D1*
X1214152Y873998D1*
X1201252D1*
Y843854D1*
X1211300Y859639D2*
X1221348Y843854D1*
X1244971D2*
Y873965D1*
X1230612Y853902D1*
X1252134D1*
X1178343Y1721844D2*
X1191243D1*
X1195554Y1723303D1*
X1197013Y1724729D1*
X1198439Y1727581D1*
Y1730466D1*
X1197013Y1733318D1*
X1195554Y1734777D1*
X1191243Y1736203D1*
X1178343D1*
Y1706059D1*
X1188391Y1721844D2*
X1198439Y1706059D1*
X1224914Y1736170D2*
X1210588D1*
X1209162Y1723270D1*
X1210588Y1724696D1*
X1214899Y1726155D1*
X1219177D1*
X1223488Y1724696D1*
X1226373Y1721844D1*
X1227799Y1717533D1*
Y1714681D1*
X1226373Y1710370D1*
X1223488Y1707485D1*
X1219177Y1706059D1*
X1214899D1*
X1210588Y1707485D1*
X1209162Y1708944D1*
X1207703Y1711796D1*
X1179073Y1619482D2*
X1191973D1*
X1196284Y1620941D1*
X1197743Y1622367D1*
X1199169Y1625218D1*
Y1628104D1*
X1197743Y1630955D1*
X1196284Y1632415D1*
X1191973Y1633841D1*
X1179073D1*
Y1603697D1*
X1189121Y1619482D2*
X1199169Y1603697D1*
X1225643Y1629530D2*
X1224217Y1632381D1*
X1219906Y1633807D1*
X1217054D1*
X1212743Y1632381D1*
X1209858Y1628070D1*
X1208432Y1620907D1*
Y1613745D1*
X1209858Y1608008D1*
X1212743Y1605122D1*
X1217054Y1603697D1*
X1218480D1*
X1222758Y1605122D1*
X1225643Y1608008D1*
X1227069Y1612319D1*
Y1613745D1*
X1225643Y1618056D1*
X1222758Y1620907D1*
X1218480Y1622333D1*
X1217054D1*
X1212743Y1620907D1*
X1209858Y1618056D1*
X1208432Y1613745D1*
X1552903Y1362162D2*
Y1340640D1*
X1554329Y1336329D1*
X1557214Y1333477D1*
X1561525Y1332018D1*
X1564377D1*
X1568688Y1333477D1*
X1571573Y1336329D1*
X1572999Y1340640D1*
Y1362162D1*
X1582263Y1356392D2*
X1585148Y1357851D1*
X1589459Y1362129D1*
Y1332018D1*
X1075381Y1588392D2*
X1075382Y1601325D1*
X1073956Y1605603D1*
X1072496Y1607062D1*
X1069645Y1608488D1*
X1065334D1*
X1062482Y1607062D1*
X1061022Y1605603D1*
X1059597Y1601325D1*
X1059596Y1588392D1*
X1089740D1*
X1059597Y1617752D2*
X1089741Y1629226D1*
X1059597Y1640700D1*
X1066759Y1671485D2*
X1063908Y1670059D1*
X1061022Y1667174D1*
X1059597Y1664322D1*
Y1658585D1*
X1061022Y1655700D1*
X1063908Y1652848D1*
X1066759Y1651389D1*
X1071070Y1649963D1*
X1078267D1*
X1082544Y1651389D1*
X1085429Y1652848D1*
X1088281Y1655700D1*
X1089740Y1658585D1*
Y1664322D1*
X1088281Y1667174D1*
X1085429Y1670059D1*
X1082544Y1671485D1*
X1066759Y1702270D2*
X1063908Y1700845D1*
X1061022Y1697959D1*
X1059597Y1695108D1*
Y1689371D1*
X1061022Y1686486D1*
X1063908Y1683634D1*
X1066759Y1682174D1*
X1071070Y1680749D1*
X1078267D1*
X1082544Y1682174D1*
X1085429Y1683634D1*
X1088281Y1686485D1*
X1089740Y1689371D1*
Y1695108D1*
X1088281Y1697959D1*
X1085429Y1700845D1*
X1082544Y1702270D1*
X961171Y1559818D2*
Y1541148D1*
X991315D1*
X975530D2*
Y1552622D1*
X991315Y1592063D2*
X961171Y1580556D1*
X991315Y1569082D1*
X981267Y1573393D2*
Y1587752D1*
X961171Y1601326D2*
X982693D1*
X987004Y1602752D1*
X989856Y1605637D1*
X991315Y1609948D1*
Y1612800D1*
X989856Y1617111D1*
X987004Y1619996D1*
X982693Y1621422D1*
X961171D1*
Y1630686D2*
X991315D1*
Y1647897D1*
X961171Y1667208D2*
X991315D1*
X961171Y1657160D2*
Y1677256D1*
Y1686520D2*
Y1706616D1*
X991315Y1686520D1*
Y1706616D1*
X892890Y1619214D2*
X862746D1*
X892890Y1607740D1*
X862746Y1596266D1*
X892890D1*
X862746Y1628478D2*
X884268D1*
X888579Y1629903D1*
X891431Y1632789D1*
X892890Y1637100D1*
Y1639951D1*
X891431Y1644262D1*
X888579Y1647148D1*
X884268Y1648573D1*
X862746Y1648574D1*
Y1667885D2*
X892890D1*
X862746Y1657837D2*
Y1677933D1*
Y1705833D2*
Y1687197D1*
X892890D1*
Y1705833D1*
X877105Y1687197D2*
Y1698671D1*
X760758Y1616362D2*
X757873Y1613510D1*
X756447Y1609199D1*
Y1603462D1*
X757873Y1599151D1*
X760758Y1596266D1*
X763610D1*
X766495Y1597725D1*
X767921Y1599151D1*
X769347Y1602003D1*
X772232Y1610625D1*
X773658Y1613510D1*
X775117Y1614936D1*
X777969Y1616362D1*
X782280D1*
X785132Y1613510D1*
X786591Y1609199D1*
Y1603462D1*
X785132Y1599151D1*
X782280Y1596266D1*
X756447Y1625626D2*
X770806Y1637100D1*
X786591D1*
X756447Y1648574D2*
X770806Y1637100D1*
X756447Y1677933D2*
X786591D1*
X756447Y1657837D1*
X786591D1*
X763610Y1708719D2*
X760758Y1707293D1*
X757873Y1704408D1*
X756447Y1701556D1*
Y1695819D1*
X757873Y1692934D1*
X760758Y1690082D1*
X763610Y1688623D1*
X767921Y1687197D1*
X775117D1*
X779395Y1688623D1*
X782280Y1690082D1*
X785132Y1692934D1*
X786591Y1695819D1*
Y1701556D1*
X785132Y1704408D1*
X782280Y1707293D1*
X779395Y1708719D1*
X661248Y1649284D2*
X658396Y1647858D1*
X655511Y1644973D1*
X654085Y1642121D1*
Y1636384D1*
X655511Y1633499D1*
X658396Y1630647D1*
X661248Y1629188D1*
X665559Y1627762D1*
X672755D1*
X677033Y1629188D1*
X679918Y1630647D1*
X682770Y1633499D1*
X684229Y1636384D1*
Y1642121D1*
X682770Y1644973D1*
X679918Y1647858D1*
X677033Y1649284D1*
X672755D1*
Y1642121D1*
X654085Y1678644D2*
X684229D1*
X654085Y1658548D1*
X684229D1*
X654085Y1687907D2*
X684229D1*
Y1697955D1*
X682770Y1702266D1*
X679918Y1705151D1*
X677033Y1706577D1*
X672755Y1708003D1*
X665559D1*
X661248Y1706577D1*
X658396Y1705151D1*
X655511Y1702266D1*
X654085Y1697955D1*
Y1687907D1*
X514937Y1056255D2*
X484793Y1044748D1*
X514937Y1033274D1*
X504889Y1037585D2*
Y1051944D1*
X491956Y1087041D2*
X489104Y1085615D1*
X486219Y1082729D1*
X484793Y1079878D1*
Y1074141D1*
X486219Y1071256D1*
X489104Y1068404D1*
X491956Y1066945D1*
X496267Y1065519D1*
X503463D1*
X507741Y1066944D1*
X510626Y1068404D1*
X513478Y1071256D1*
X514937Y1074141D1*
Y1079878D1*
X513478Y1082729D1*
X510626Y1085615D1*
X507741Y1087040D1*
X503463D1*
Y1079878D1*
X484793Y1116400D2*
X514937D1*
X484793Y1096304D1*
X514937D1*
X484793Y1125664D2*
X514937D1*
Y1135712D1*
X513478Y1140023D1*
X510626Y1142908D1*
X507741Y1144334D1*
X503463Y1145760D1*
X496267D1*
X491956Y1144334D1*
X489104Y1142908D1*
X486219Y1140023D1*
X484793Y1135712D1*
Y1125664D1*
X771484Y1070544D2*
X768632Y1069118D1*
X765747Y1066233D1*
X764321Y1063381D1*
Y1057644D1*
X765747Y1054759D1*
X768632Y1051907D1*
X771484Y1050448D1*
X775795Y1049022D1*
X782991D1*
X787269Y1050448D1*
X790154Y1051907D1*
X793006Y1054759D1*
X794465Y1057644D1*
Y1063381D1*
X793006Y1066233D1*
X790154Y1069118D1*
X787269Y1070544D1*
X782991D1*
Y1063381D1*
X764321Y1099903D2*
X794465D1*
X764321Y1079808D1*
X794465Y1079807D1*
X764321Y1109167D2*
X794465D1*
Y1119215D1*
X793006Y1123526D1*
X790154Y1126411D1*
X787269Y1127837D1*
X782991Y1129263D1*
X775795D1*
X771484Y1127837D1*
X768632Y1126411D1*
X765747Y1123526D1*
X764321Y1119215D1*
Y1109167D1*
X1528518Y1684762D2*
X1525666Y1687647D1*
X1521355Y1689073D1*
X1515618D1*
X1511307Y1687647D1*
X1508422Y1684762D1*
Y1681910D1*
X1509881Y1679025D1*
X1511307Y1677599D1*
X1514159Y1676173D1*
X1522781Y1673288D1*
X1525666Y1671862D1*
X1527092Y1670403D1*
X1528518Y1667551D1*
Y1663240D1*
X1525666Y1660388D1*
X1521355Y1658929D1*
X1515618D1*
X1511307Y1660388D1*
X1508422Y1663240D1*
X1537782Y1689073D2*
Y1658929D1*
X1547830D1*
X1552141Y1660388D1*
X1555026Y1663240D1*
X1556452Y1666125D1*
X1557878Y1670403D1*
Y1677599D1*
X1556452Y1681910D1*
X1555026Y1684762D1*
X1552141Y1687647D1*
X1547830Y1689073D1*
X1537782D1*
X1567141D2*
X1587237D1*
X1567141Y1658929D1*
X1587237D1*
X1531370Y1765228D2*
Y1795372D1*
X1519896Y1765228D1*
X1508422Y1795372D1*
Y1765228D1*
X1549256Y1795372D2*
X1546371Y1793946D1*
X1543519Y1791061D1*
X1542060Y1788209D1*
X1540634Y1783898D1*
Y1776702D1*
X1542060Y1772424D1*
X1543519Y1769539D1*
X1546371Y1766687D1*
X1549256Y1765228D1*
X1554993D1*
X1557845Y1766687D1*
X1560730Y1769539D1*
X1562156Y1772424D1*
X1563582Y1776702D1*
Y1783898D1*
X1562156Y1788209D1*
X1560730Y1791061D1*
X1557845Y1793946D1*
X1554993Y1795372D1*
X1549256D1*
X1572845D2*
Y1765228D1*
X1582893D1*
X1587204Y1766687D1*
X1590089Y1769539D1*
X1591515Y1772424D1*
X1592941Y1776702D1*
Y1783898D1*
X1591515Y1788209D1*
X1590089Y1791061D1*
X1587204Y1793946D1*
X1582893Y1795372D1*
X1572845D1*
X1622301Y1791061D2*
X1619449Y1793946D1*
X1615138Y1795372D1*
X1609401D1*
X1605090Y1793946D1*
X1602205Y1791061D1*
Y1788209D1*
X1603664Y1785324D1*
X1605090Y1783898D1*
X1607942Y1782472D1*
X1616564Y1779587D1*
X1619449Y1778161D1*
X1620875Y1776702D1*
X1622301Y1773850D1*
Y1769539D1*
X1619449Y1766687D1*
X1615138Y1765228D1*
X1609401D1*
X1605090Y1766687D1*
X1602205Y1769539D1*
X1650201Y1795372D2*
X1631564D1*
Y1765228D1*
X1650201D1*
X1631564Y1781013D2*
X1643038D1*
X1659465Y1795372D2*
Y1765228D1*
X1676676D1*
X2431475Y1597013D2*
Y1609913D1*
X2430016Y1614224D1*
X2428590Y1615683D1*
X2425738Y1617109D1*
X2422853D1*
X2420001Y1615683D1*
X2418542Y1614224D1*
X2417116Y1609913D1*
Y1597013D1*
X2447260D1*
X2431475Y1607061D2*
X2447260Y1617109D1*
X2417116Y1626372D2*
X2447260D1*
X2424279Y1657158D2*
X2421427Y1655732D1*
X2418542Y1652847D1*
X2417116Y1649995D1*
Y1644258D1*
X2418542Y1641373D1*
X2421427Y1638521D1*
X2424279Y1637062D1*
X2428590Y1635636D1*
X2435786D1*
X2440064Y1637062D1*
X2442949Y1638521D1*
X2445801Y1641373D1*
X2447260Y1644258D1*
Y1649995D1*
X2445801Y1652847D1*
X2442949Y1655732D1*
X2440064Y1657158D1*
X2435786D1*
Y1649995D1*
X2417116Y1666421D2*
X2447260D1*
X2417116Y1686517D2*
X2447260D1*
X2431475Y1666421D2*
Y1686517D1*
X2417116Y1705829D2*
X2447260D1*
X2417116Y1695781D2*
Y1715877D1*
Y537958D2*
X2447260D1*
Y555169D1*
X2417116Y583069D2*
Y564432D1*
X2447260D1*
Y583069D1*
X2431475Y564432D2*
Y575906D1*
X2417116Y611003D2*
Y592333D1*
X2447260D1*
X2431475D2*
Y603807D1*
X2417116Y630314D2*
X2447260D1*
X2417116Y620266D2*
Y640362D1*
X2261808Y700464D2*
X2287641D1*
X2274741Y687564D2*
Y713397D1*
X2284806Y485402D2*
X2268225D1*
X2261808Y1763456D2*
X2287641D1*
X2274741Y1750556D2*
Y1776389D1*
X2284806Y1548394D2*
X2268225D1*
X1030281Y693010D2*
Y662866D1*
X1020233Y693010D2*
X1040329D1*
X1049593Y677225D2*
X1062526D1*
X1066804Y678651D1*
X1068263Y680110D1*
X1069689Y682962D1*
Y687273D1*
X1068263Y690125D1*
X1066804Y691584D1*
X1062526Y693010D1*
X1049593D1*
Y662866D1*
X1101933D2*
X1090426Y693010D1*
X1078952Y662866D1*
X1083263Y672914D2*
X1097622D1*
X1114082Y692977D2*
X1129834D1*
X1121245Y681503D1*
X1125556D1*
X1128408Y680077D1*
X1129834Y678651D1*
X1131293Y674340D1*
Y671488D1*
X1129834Y667177D1*
X1126982Y664292D1*
X1122671Y662866D1*
X1118360D1*
X1114082Y664292D1*
X1112656Y665751D1*
X1111197Y668603D1*
X1140556Y687240D2*
X1143442Y688699D1*
X1147753Y692977D1*
Y662866D1*
X1158475Y685814D2*
Y687240D1*
X1159901Y690125D1*
X1161327Y691551D1*
X1164212Y692977D1*
X1169949D1*
X1172801Y691551D1*
X1174227Y690125D1*
X1175686Y687240D1*
Y684388D1*
X1174227Y681503D1*
X1171375Y677225D1*
X1157016Y662866D1*
X1177112D1*
X1193539Y692977D2*
X1189261Y691551D1*
X1187802Y688699D1*
Y685814D1*
X1189261Y682962D1*
X1192113Y681503D1*
X1197850Y680077D1*
X1202161Y678651D1*
X1205013Y675766D1*
X1206439Y672914D1*
Y668603D1*
X1205013Y665751D1*
X1203587Y664292D1*
X1199276Y662866D1*
X1193539D1*
X1189261Y664292D1*
X1187802Y665751D1*
X1186376Y668603D1*
Y672914D1*
X1187802Y675766D1*
X1190687Y678651D1*
X1194965Y680077D1*
X1200702Y681503D1*
X1203587Y682962D1*
X1205013Y685814D1*
Y688699D1*
X1203587Y691551D1*
X1199276Y692977D1*
X1193539D1*
X1215702Y693010D2*
Y662866D1*
X1225750D1*
X1230061Y664325D1*
X1232946Y667177D1*
X1234372Y670062D1*
X1235798Y674340D1*
Y681536D1*
X1234372Y685847D1*
X1232946Y688699D1*
X1230061Y691584D1*
X1225750Y693010D1*
X1215702D1*
X1246521Y685814D2*
Y687240D1*
X1247947Y690125D1*
X1249373Y691551D1*
X1252258Y692977D1*
X1257995D1*
X1260847Y691551D1*
X1262273Y690125D1*
X1263732Y687240D1*
Y684388D1*
X1262273Y681503D1*
X1259421Y677225D1*
X1245062Y662866D1*
X1265158D1*
X1326563D2*
X1315056Y693010D1*
X1303582Y662866D1*
X1307893Y672914D2*
X1322252D1*
X1335826Y682962D2*
Y668603D1*
X1337252Y664325D1*
X1340137Y662866D1*
X1344448D1*
X1347300Y664325D1*
X1351611Y668603D1*
Y682962D2*
Y662866D1*
X1378086Y693010D2*
Y662866D1*
Y678651D2*
X1375234Y681536D1*
X1372349Y682962D1*
X1368038D1*
X1365186Y681536D1*
X1362301Y678651D1*
X1360875Y674340D1*
Y671488D1*
X1362301Y667177D1*
X1365186Y664325D1*
X1368038Y662866D1*
X1372349D1*
X1375234Y664325D1*
X1378086Y667177D1*
X1387349Y693010D2*
X1388775Y691584D1*
X1390234Y693010D1*
X1388775Y694469D1*
X1387349Y693010D1*
X1388775Y682962D2*
Y662866D1*
X1406661Y682962D2*
X1403809Y681536D1*
X1400924Y678651D1*
X1399498Y674340D1*
Y671488D1*
X1400924Y667177D1*
X1403809Y664325D1*
X1406661Y662866D1*
X1410972D1*
X1413857Y664325D1*
X1416709Y667177D1*
X1418168Y671488D1*
Y674340D1*
X1416709Y678651D1*
X1413857Y681536D1*
X1410972Y682962D1*
X1406661D1*
X1479573Y662866D2*
X1468066Y693010D1*
X1456592Y662866D1*
X1460903Y672914D2*
X1475262D1*
X1488837Y682962D2*
Y662866D1*
Y677225D2*
X1493148Y681536D1*
X1496033Y682962D1*
X1500311D1*
X1503196Y681536D1*
X1504622Y677225D1*
Y662866D1*
Y677225D2*
X1508933Y681536D1*
X1511818Y682962D1*
X1516096D1*
X1518981Y681536D1*
X1520440Y677225D1*
Y662866D1*
X1529703Y682962D2*
Y652818D1*
Y678651D2*
X1532589Y681503D1*
X1535440Y682962D1*
X1539751D1*
X1542637Y681503D1*
X1545488Y678651D1*
X1546948Y674340D1*
Y671455D1*
X1545488Y667177D1*
X1542637Y664292D1*
X1539751Y662866D1*
X1535440D1*
X1532589Y664292D1*
X1529703Y667177D1*
X1556211Y693010D2*
Y662866D1*
X1565475Y693010D2*
X1566901Y691584D1*
X1568360Y693010D1*
X1566901Y694469D1*
X1565475Y693010D1*
X1566901Y682962D2*
Y662866D1*
X1589097Y693010D2*
X1586245D1*
X1583360Y691584D1*
X1581934Y687273D1*
Y662866D1*
X1577623Y682962D2*
X1587671D1*
X1598361Y693010D2*
X1599787Y691584D1*
X1601246Y693010D1*
X1599787Y694469D1*
X1598361Y693010D1*
X1599787Y682962D2*
Y662866D1*
X1610509Y674340D2*
X1627720D1*
Y677225D1*
X1626294Y680110D1*
X1624868Y681536D1*
X1621983Y682962D1*
X1617672D1*
X1614820Y681536D1*
X1611935Y678651D1*
X1610509Y674340D1*
Y671488D1*
X1611935Y667177D1*
X1614820Y664325D1*
X1617672Y662866D1*
X1621983D1*
X1624868Y664325D1*
X1627720Y667177D1*
X1636984Y682962D2*
Y662866D1*
Y674340D2*
X1638443Y678651D1*
X1641295Y681536D1*
X1644180Y682962D1*
X1648491D1*
X1134406Y619596D2*
X1147306D1*
X1151617Y621055D1*
X1153076Y622481D1*
X1154502Y625333D1*
Y628218D1*
X1153076Y631070D1*
X1151617Y632529D1*
X1147306Y633955D1*
X1134406D1*
Y603811D1*
X1144454Y619596D2*
X1154502Y603811D1*
X1163766Y615285D2*
X1180977D1*
Y618170D1*
X1179551Y621055D1*
X1178125Y622481D1*
X1175240Y623907D1*
X1170929D1*
X1168077Y622481D1*
X1165192Y619596D1*
X1163766Y615285D1*
Y612433D1*
X1165192Y608122D1*
X1168077Y605270D1*
X1170929Y603811D1*
X1175240D1*
X1178125Y605270D1*
X1180977Y608122D1*
X1190240Y623907D2*
X1198863Y603811D1*
X1207451Y623907D1*
X1218141Y606696D2*
X1216715Y605237D1*
X1218141Y603811D1*
X1219600Y605237D1*
X1218141Y606696D1*
X1228864Y628185D2*
X1231749Y629644D1*
X1236060Y633922D1*
Y603811D1*
X1274484Y618866D2*
X1291065D1*
X1352437Y603811D2*
Y633955D1*
X1340963Y603811D1*
X1329489Y633955D1*
Y603811D1*
X1378911Y623907D2*
Y603811D1*
Y619596D2*
X1376059Y622481D1*
X1373174Y623907D1*
X1368896D1*
X1366011Y622481D1*
X1363159Y619596D1*
X1361700Y615285D1*
Y612433D1*
X1363159Y608122D1*
X1366011Y605270D1*
X1368896Y603811D1*
X1373174D1*
X1376059Y605270D1*
X1378911Y608122D1*
X1389634Y623907D2*
X1398223Y603811D1*
X1395371Y598074D1*
X1392486Y595189D1*
X1389634Y593763D1*
X1388175D1*
X1406845Y623907D2*
X1398223Y603811D1*
X1446728Y626759D2*
Y628185D1*
X1448154Y631070D1*
X1449580Y632496D1*
X1452465Y633922D1*
X1458202D1*
X1461054Y632496D1*
X1462480Y631070D1*
X1463939Y628185D1*
Y625333D1*
X1462480Y622448D1*
X1459628Y618170D1*
X1445269Y603811D1*
X1465365D1*
X1483250Y633922D2*
X1478939Y632496D1*
X1476054Y628185D1*
X1474628Y621022D1*
Y616711D1*
X1476054Y609548D1*
X1478939Y605237D1*
X1483250Y603811D1*
X1486102D1*
X1490413Y605237D1*
X1493265Y609548D1*
X1494724Y616711D1*
Y621022D1*
X1493265Y628185D1*
X1490413Y632496D1*
X1486102Y633922D1*
X1483250D1*
X1493265Y628185D2*
X1476054Y609548D1*
X1503988Y628185D2*
X1506873Y629644D1*
X1511184Y633922D1*
Y603811D1*
X1539118Y623907D2*
X1537659Y619596D1*
X1534807Y616711D1*
X1530496Y615285D1*
X1529070D1*
X1524759Y616711D1*
X1521907Y619596D1*
X1520448Y623907D1*
Y625333D1*
X1521907Y629644D1*
X1524759Y632496D1*
X1529070Y633922D1*
X1530496D1*
X1534807Y632496D1*
X1537659Y629644D1*
X1539118Y623907D1*
Y616711D1*
X1537659Y609548D1*
X1534807Y605237D1*
X1530496Y603811D1*
X1527644D1*
X1523333Y605237D1*
X1521907Y608122D1*
X1199573Y574900D2*
Y544756D1*
X1189525Y574900D2*
X1209621D1*
X1226047Y564852D2*
X1223195Y563426D1*
X1220310Y560541D1*
X1218884Y556230D1*
Y553378D1*
X1220310Y549067D1*
X1223195Y546215D1*
X1226047Y544756D1*
X1230358D1*
X1233243Y546215D1*
X1236095Y549067D1*
X1237554Y553378D1*
Y556230D1*
X1236095Y560541D1*
X1233243Y563426D1*
X1230358Y564852D1*
X1226047D1*
X1246818D2*
Y544756D1*
Y559115D2*
X1251129Y563426D1*
X1254014Y564852D1*
X1258292D1*
X1261177Y563426D1*
X1262603Y559115D1*
Y544756D1*
X1273325Y564852D2*
X1281914Y544756D1*
X1279062Y539019D1*
X1276177Y536134D1*
X1273325Y534708D1*
X1271866D1*
X1290536Y564852D2*
X1281914Y544756D1*
X1328960Y559115D2*
X1341893D1*
X1346171Y560541D1*
X1347630Y562000D1*
X1349056Y564852D1*
Y569163D1*
X1347630Y572015D1*
X1346171Y573474D1*
X1341893Y574900D1*
X1328960D1*
Y544756D1*
X1365483Y564852D2*
X1362631Y563426D1*
X1359746Y560541D1*
X1358320Y556230D1*
Y553378D1*
X1359746Y549067D1*
X1362631Y546215D1*
X1365483Y544756D1*
X1369794D1*
X1372679Y546215D1*
X1375531Y549067D1*
X1376990Y553378D1*
Y556230D1*
X1375531Y560541D1*
X1372679Y563426D1*
X1369794Y564852D1*
X1365483D1*
X1390565Y574900D2*
Y550493D1*
X1391991Y546215D1*
X1394876Y544756D1*
X1397728D1*
X1386254Y564852D2*
X1396302D1*
X1411302Y574900D2*
Y550493D1*
X1412728Y546215D1*
X1415613Y544756D1*
X1418465D1*
X1406991Y564852D2*
X1417039D1*
X1427729Y574900D2*
X1429155Y573474D1*
X1430614Y574900D1*
X1429155Y576359D1*
X1427729Y574900D1*
X1429155Y564852D2*
Y544756D1*
X1439877Y556230D2*
X1457088D1*
Y559115D1*
X1455662Y562000D1*
X1454236Y563426D1*
X1451351Y564852D1*
X1447040D1*
X1444188Y563426D1*
X1441303Y560541D1*
X1439877Y556230D1*
Y553378D1*
X1441303Y549067D1*
X1444188Y546215D1*
X1447040Y544756D1*
X1451351D1*
X1454236Y546215D1*
X1457088Y549067D1*
X1466352Y564852D2*
Y544756D1*
Y556230D2*
X1467811Y560541D1*
X1470663Y563426D1*
X1473548Y564852D1*
X1477859D1*
X1272202Y511907D2*
X1273628Y510482D1*
X1275087Y511907D1*
X1273628Y513367D1*
X1272202Y511907D1*
X1273628Y501859D2*
Y481763D1*
X1301561Y511907D2*
Y481763D1*
Y497548D2*
X1298709Y500434D1*
X1295824Y501859D1*
X1291513D1*
X1288661Y500434D1*
X1285776Y497548D1*
X1284350Y493237D1*
Y490386D1*
X1285776Y486074D1*
X1288661Y483223D1*
X1291513Y481763D1*
X1295824D1*
X1298709Y483223D1*
X1301561Y486074D1*
X1312284Y501859D2*
X1320873Y481763D1*
X1318021Y476026D1*
X1315136Y473141D1*
X1312284Y471715D1*
X1310825D1*
X1329495Y501859D2*
X1320873Y481763D1*
X1338758Y511907D2*
Y481763D1*
X1349448Y484649D2*
X1348022Y483189D1*
X1349448Y481763D1*
X1350907Y483189D1*
X1349448Y484649D1*
X1360171Y511907D2*
X1361597Y510482D1*
X1363056Y511907D1*
X1361597Y513367D1*
X1360171Y511907D1*
X1361597Y501859D2*
Y481763D1*
X1379482Y501859D2*
X1376630Y500434D1*
X1373745Y497548D1*
X1372319Y493237D1*
Y490386D1*
X1373745Y486074D1*
X1376630Y483223D1*
X1379482Y481763D1*
X1383793D1*
X1386678Y483223D1*
X1389530Y486074D1*
X1390989Y490386D1*
Y493237D1*
X1389530Y497548D1*
X1386678Y500434D1*
X1383793Y501859D1*
X1379482D1*
X663425Y559829D2*
Y561255D1*
X664851Y564141D1*
X666277Y565566D1*
X669162Y566992D1*
X674899D1*
X677750Y565566D1*
X679176Y564141D1*
X680636Y561255D1*
Y558404D1*
X679176Y555518D1*
X676325Y551241D1*
X661965Y536882D1*
X682061D1*
X705684D2*
Y566992D1*
X691325Y546930D1*
X712847D1*
X722111Y567026D2*
X733585Y536882D1*
X745058Y567026D1*
X806430Y536882D2*
Y567026D1*
X794957Y536882D1*
X783483Y567026D1*
Y536882D1*
X838675D2*
X827168Y567026D1*
X815694Y536882D1*
X820005Y546930D2*
X834364D1*
X847939Y567026D2*
X868035Y536882D1*
Y567026D2*
X847939Y536882D1*
M02*
