G04 DipTrace 3.1.0.1*
G04 TPA3128D2route.BottomSilk.gbr*
%MOIN*%
G04 #@! TF.FileFunction,Legend,Bot*
G04 #@! TF.Part,Single*
%ADD19C,0.007874*%
%FSLAX26Y26*%
G04*
G70*
G90*
G75*
G01*
G04 BotSilk*
%LPD*%
X1043311Y1005932D2*
D19*
X1213001Y987403D1*
X1251364Y985016D1*
X1288682Y984143D1*
X1325251Y985096D1*
X1361352Y988180D1*
X1397283Y993705D1*
X1414291Y997234D1*
X1423318Y999861D1*
X1429803Y1003062D1*
X1434000Y1006768D1*
X1436163Y1010913D1*
X1436546Y1015432D1*
X1435404Y1020253D1*
X1432991Y1025314D1*
X1429562Y1030545D1*
X1425373Y1035879D1*
X1360037Y1027991D1*
X1321933Y1025255D1*
X1283255Y1024386D1*
X1243801Y1025176D1*
X1161764Y1030902D1*
X1036438Y1045631D1*
X953144Y1058340D1*
X926173Y1060984D1*
X897257Y1062528D1*
X866651Y1062529D1*
X834608Y1060543D1*
X795634Y1055169D1*
X794988Y1057923D1*
X808328Y1060230D1*
X841262Y1064230D1*
X872924Y1066054D1*
X903067Y1066101D1*
X931449Y1064768D1*
X981944Y1059543D1*
X1126747Y1040493D1*
X1209327Y1033222D1*
X1248681Y1031449D1*
X1287122Y1031180D1*
X1324933Y1032609D1*
X1362400Y1035933D1*
X1399804Y1041348D1*
X1415345Y1046987D1*
X1400589Y1063412D1*
X1397992Y1067064D1*
X1396114Y1070461D1*
X1395093Y1073566D1*
X1395075Y1076340D1*
X1392430Y1077908D1*
X1355084Y1072436D1*
X1318917Y1069020D1*
X1283371Y1067488D1*
X1247879Y1067667D1*
X1211873Y1069382D1*
X1136067Y1076726D1*
X939205Y1105453D1*
X911480Y1108013D1*
X881991Y1109390D1*
X851056Y1109159D1*
X818992Y1106894D1*
X793615Y1103482D1*
X792945Y1106318D1*
X818921Y1109867D1*
X850911Y1112332D1*
X881734Y1112907D1*
X911083Y1111970D1*
X964135Y1107080D1*
X1136626Y1082735D1*
X1213186Y1075755D1*
X1249577Y1074311D1*
X1285497Y1074453D1*
X1321539Y1076348D1*
X1358297Y1080159D1*
X1396360Y1086055D1*
X1399315Y1087622D1*
X1399856Y1124626D1*
X1341268Y1116832D1*
X1304097Y1113772D1*
X1267814Y1112496D1*
X1231702Y1112895D1*
X1195049Y1114856D1*
X1117255Y1123010D1*
X951444Y1149331D1*
X896576Y1155126D1*
X866652Y1156349D1*
X835576Y1155912D1*
X791571Y1151878D1*
X790924Y1154631D1*
X828911Y1158600D1*
X860094Y1159696D1*
X890165Y1159173D1*
X945505Y1154713D1*
X1108131Y1130312D1*
X1187117Y1122144D1*
X1224215Y1120194D1*
X1260635Y1119782D1*
X1297062Y1120991D1*
X1334184Y1123907D1*
X1372685Y1128614D1*
X1399974Y1133009D1*
X1400541Y1171858D1*
X1324682Y1162402D1*
X1287139Y1159714D1*
X1250438Y1158622D1*
X1213815Y1159113D1*
X1176491Y1161172D1*
X1137702Y1164783D1*
X1052631Y1176608D1*
X937701Y1196630D1*
X910457Y1199946D1*
X881521Y1202344D1*
X851332Y1203436D1*
X820329Y1202829D1*
X789547Y1200210D1*
X788883Y1203042D1*
X807241Y1204919D1*
X838395Y1206513D1*
X868875Y1206400D1*
X898255Y1204925D1*
X951993Y1199259D1*
X1078282Y1178539D1*
X1120551Y1172915D1*
X1160323Y1168879D1*
X1198346Y1166425D1*
X1235379Y1165549D1*
X1272175Y1166239D1*
X1309486Y1168493D1*
X1348073Y1172306D1*
X1388684Y1177669D1*
X1400689Y1181997D1*
X1402920Y1333198D1*
X1418946Y1336756D1*
X1450524Y1341556D1*
X1481508Y1343976D1*
X1511495Y1344423D1*
X1540075Y1343311D1*
X1591388Y1338050D1*
X1683399Y1323009D1*
X1726856Y1317100D1*
X1767387Y1312997D1*
X1805791Y1310759D1*
X1842871Y1310441D1*
X1879427Y1312100D1*
X1916259Y1315795D1*
X1954167Y1321583D1*
X1993957Y1329518D1*
X2025714Y1337081D1*
X2024860Y1394543D1*
X2060094Y1407534D1*
X2106227Y1421564D1*
X2154571Y1432928D1*
X2204298Y1441009D1*
X2254584Y1445199D1*
X2304601Y1444886D1*
X2353524Y1439455D1*
X2400525Y1428298D1*
X2444777Y1410801D1*
X2492375Y1384627D1*
X2516505Y1090143D1*
X2477979Y1104335D1*
X2436412Y1117979D1*
X2392753Y1129420D1*
X2347420Y1138551D1*
X2300822Y1145266D1*
X2253369Y1149457D1*
X2205472Y1151017D1*
X2157550Y1149837D1*
X2110005Y1145814D1*
X2063255Y1138836D1*
X2054504Y1132735D1*
X2055417Y1126811D1*
X2055038Y1120465D1*
X2053503Y1113996D1*
X2050948Y1107707D1*
X2047509Y1101900D1*
X2043328Y1096877D1*
X2038539Y1092938D1*
X2033280Y1090386D1*
X1996828Y1080403D1*
X1960781Y1073413D1*
X1924605Y1069382D1*
X1887970Y1067867D1*
X1850550Y1068428D1*
X1772034Y1074014D1*
X1643178Y1087325D1*
X1570568Y1096542D1*
X1525289Y1098650D1*
X1500951Y1098139D1*
X1476711Y1096021D1*
X1477206Y1086707D1*
X1476196Y1075581D1*
X1471115Y1050801D1*
X1457810Y1007886D1*
X1457469Y1007328D1*
X1450264Y1001227D1*
X1440385Y995230D1*
X1434109Y992507D1*
X1427025Y990348D1*
X1419197Y989037D1*
X1412189Y988799D1*
X1412756Y988996D1*
X1386517Y984076D1*
X1350745Y979710D1*
X1314631Y977723D1*
X1277915Y977785D1*
X1240335Y979558D1*
X1039888Y1001495D1*
X955419Y1013661D1*
X928337Y1016001D1*
X899260Y1017139D1*
X868382Y1016613D1*
X835895Y1013963D1*
X797416Y1007862D1*
X797017Y1009570D1*
X811950Y1012396D1*
X845399Y1016984D1*
X877341Y1019278D1*
X907591Y1019693D1*
X935969Y1018643D1*
X986367Y1013810D1*
X1043311Y1005932D1*
X2033453Y1269942D2*
X2146081Y1295563D1*
X2253604Y1303917D1*
X2341776Y1298067D1*
X2411875Y1283127D1*
X2467369Y1262499D1*
X2476668Y1258056D1*
X2474455Y1308324D1*
X2427037Y1331663D1*
X2369079Y1349871D1*
X2296984Y1361031D1*
X2207961Y1361364D1*
X2105623Y1346325D1*
X2033524Y1325983D1*
X2033453Y1269942D1*
X2026795Y1264400D2*
X1934106Y1245711D1*
X1843102Y1240469D1*
X1525253Y1275486D1*
X1458766Y1273381D1*
X1412369Y1265752D1*
X1410039Y1210941D1*
X1476577Y1222240D1*
X1575365Y1222055D1*
X1820407Y1195560D1*
X1912902Y1197610D1*
X1993430Y1210660D1*
X2027467Y1219484D1*
X2026795Y1264400D1*
X2033441Y1261398D2*
X2033371Y1205794D1*
X2147808Y1227446D1*
X2263417Y1232421D1*
X2362257Y1222714D1*
X2441352Y1203335D1*
X2479710Y1188944D1*
X2477480Y1239606D1*
X2419581Y1264135D1*
X2346476Y1282690D1*
X2254765Y1291663D1*
X2150665Y1286287D1*
X2047055Y1265394D1*
X2033441Y1261398D1*
X2033360Y1196862D2*
X2033289Y1140762D1*
X2153278Y1158934D1*
X2284412Y1159461D1*
X2400025Y1143335D1*
X2482749Y1119871D1*
X2480516Y1170604D1*
X2401623Y1198249D1*
X2301404Y1216731D1*
X2189619Y1220335D1*
X2082823Y1208165D1*
X2033360Y1196862D1*
X2027660Y1206500D2*
X1949661Y1189387D1*
X1862723Y1182969D1*
X1524919Y1216688D1*
X1461013Y1213854D1*
X1409756Y1204360D1*
X1407392Y1148707D1*
X1471734Y1161423D1*
X1560466Y1164188D1*
X1844717Y1136874D1*
X1928450Y1139667D1*
X1995381Y1151154D1*
X2028346Y1160261D1*
X2027660Y1206500D1*
X1654339Y1317226D2*
X1534701Y1335665D1*
X1466546Y1336146D1*
X1415063Y1329202D1*
X1412692Y1273419D1*
X1479066Y1283067D1*
X1584577Y1280067D1*
X1793164Y1254488D1*
X1890419Y1255130D1*
X1988551Y1269768D1*
X2026579Y1278995D1*
X2025915Y1323613D1*
X1916993Y1303018D1*
X1826374Y1298531D1*
X1654339Y1317226D1*
X2033601Y1389171D2*
X2033530Y1333724D1*
X2140692Y1362387D1*
X2240202Y1374274D1*
X2321335Y1372336D1*
X2385400Y1361521D1*
X2435869Y1345335D1*
X2473621Y1327248D1*
X2471428Y1377133D1*
X2430970Y1399786D1*
X2384144Y1417269D1*
X2323957Y1429709D1*
X2250448Y1433383D1*
X2158117Y1423874D1*
X2056458Y1397459D1*
X2033601Y1389171D1*
X2032890Y1103546D2*
X2028434Y1128205D1*
X2028530Y1148056D1*
X1969357Y1133726D1*
X1903277Y1126243D1*
X1789568Y1129248D1*
X1545661Y1156202D1*
X1485370Y1155308D1*
X1435412Y1148417D1*
X1407094Y1141583D1*
X1404755Y1086598D1*
X1456833Y1099083D1*
X1519929Y1105593D1*
X1859547Y1079924D1*
X1933253Y1082567D1*
X1988635Y1091291D1*
X2032890Y1103546D1*
X2301955Y1313135D2*
X2316091Y1314928D1*
X2332333Y1313912D1*
X2342713Y1373121D1*
X2316844Y1398689D1*
X2308681Y1408169D1*
X2301255Y1418005D1*
X2294702Y1428277D1*
X2289165Y1439059D1*
X2284780Y1450429D1*
X2281684Y1462466D1*
X2280018Y1475247D1*
X2279923Y1488849D1*
X2281533Y1503350D1*
X2286484Y1524281D1*
X2292370Y1540713D1*
X2298860Y1554290D1*
X2305312Y1564781D1*
X2311085Y1571953D1*
X2313513Y1574222D1*
X2315529Y1575576D1*
X2317025Y1575966D1*
X2320101Y1575052D1*
X2326852Y1571066D1*
X2335604Y1563223D1*
X2341538Y1556077D1*
X2348959Y1544269D1*
X2352602Y1536790D1*
X2356024Y1528188D1*
X2359093Y1518407D1*
X2361681Y1507395D1*
X2363652Y1495096D1*
X2364878Y1481455D1*
X2365228Y1466419D1*
X2364571Y1449932D1*
X2359470Y1409434D1*
X2396605Y1378555D1*
X2415478Y1360035D1*
X2424114Y1350028D1*
X2432009Y1339429D1*
X2439003Y1328172D1*
X2444937Y1316188D1*
X2449657Y1303408D1*
X2453001Y1289764D1*
X2454812Y1275186D1*
X2454881Y1261959D1*
X2453348Y1249223D1*
X2450314Y1236836D1*
X2445862Y1224909D1*
X2440083Y1213552D1*
X2433056Y1202875D1*
X2424874Y1192990D1*
X2415618Y1184004D1*
X2405374Y1176029D1*
X2394230Y1169177D1*
X2382268Y1163556D1*
X2369579Y1159277D1*
X2351948Y1155869D1*
X2333176Y1155151D1*
X2312912Y1157538D1*
X2302220Y1096793D1*
X2301778Y1085614D1*
X2302673Y1075534D1*
X2304899Y1066566D1*
X2306510Y1062503D1*
X2308455Y1058723D1*
X2310731Y1055228D1*
X2313339Y1052020D1*
X2317134Y1048354D1*
X2322178Y1044713D1*
X2327575Y1041874D1*
X2333196Y1039748D1*
X2338909Y1038248D1*
X2350083Y1036765D1*
X2364257Y1037010D1*
X2375815Y1039001D1*
X2379054Y1040562D1*
X2379972Y1041475D1*
X2380419Y1042469D1*
X2380461Y1043012D1*
X2380329Y1043689D1*
X2379472Y1045037D1*
X2376772Y1046999D1*
X2368879Y1049904D1*
X2362655Y1051748D1*
X2359056Y1053797D1*
X2356172Y1056390D1*
X2353923Y1059411D1*
X2352238Y1062741D1*
X2351047Y1066266D1*
X2349857Y1073423D1*
X2350214Y1084878D1*
X2351512Y1090669D1*
X2353965Y1096403D1*
X2357371Y1101542D1*
X2361577Y1105907D1*
X2366427Y1109310D1*
X2371757Y1111570D1*
X2379667Y1112478D1*
X2386749Y1111273D1*
X2394510Y1108564D1*
X2398209Y1106568D1*
X2401684Y1104079D1*
X2404860Y1101046D1*
X2407663Y1097421D1*
X2410014Y1093156D1*
X2411844Y1088199D1*
X2413073Y1082504D1*
X2413625Y1076018D1*
X2413455Y1069110D1*
X2412808Y1064379D1*
X2411642Y1059873D1*
X2409966Y1055602D1*
X2407799Y1051581D1*
X2405150Y1047823D1*
X2402029Y1044337D1*
X2398450Y1041139D1*
X2394427Y1038239D1*
X2389967Y1035651D1*
X2379803Y1031458D1*
X2362559Y1027915D1*
X2347163Y1027413D1*
X2336350Y1028556D1*
X2328735Y1030352D1*
X2321150Y1033218D1*
X2313900Y1037362D1*
X2310497Y1039979D1*
X2307291Y1042993D1*
X2302140Y1049521D1*
X2298353Y1056753D1*
X2295702Y1064920D1*
X2294192Y1074008D1*
X2293822Y1084001D1*
X2305244Y1159459D1*
X2297037Y1162327D1*
X2287803Y1166833D1*
X2279555Y1172407D1*
X2272298Y1179037D1*
X2266046Y1186713D1*
X2260808Y1195427D1*
X2258243Y1200955D1*
X2255686Y1207923D1*
X2253739Y1215007D1*
X2251451Y1229143D1*
X2250950Y1242604D1*
X2251818Y1254625D1*
X2253619Y1264444D1*
X2256199Y1271895D1*
X2261769Y1282488D1*
X2268177Y1291609D1*
X2275411Y1299244D1*
X2283461Y1305383D1*
X2292312Y1310017D1*
X2301955Y1313135D1*
X2336449Y1516654D2*
X2323140Y1529028D1*
X2314201Y1530160D1*
X2306478Y1525990D1*
X2299566Y1516306D1*
X2297223Y1507525D1*
X2297245Y1492008D1*
X2300999Y1476070D1*
X2310444Y1457741D1*
X2350560Y1416735D1*
X2355108Y1452921D1*
X2352406Y1480465D1*
X2342230Y1507703D1*
X2336449Y1516654D1*
X2314366Y1164017D2*
X2336556Y1161123D1*
X2357509Y1162549D1*
X2367273Y1164686D1*
X2378961Y1168623D1*
X2389738Y1173803D1*
X2399514Y1180105D1*
X2408205Y1187409D1*
X2415722Y1195592D1*
X2421979Y1204533D1*
X2426887Y1214112D1*
X2430358Y1224203D1*
X2432308Y1234690D1*
X2432651Y1245449D1*
X2431294Y1256358D1*
X2428287Y1267801D1*
X2421846Y1283979D1*
X2413436Y1298992D1*
X2399761Y1317504D1*
X2351591Y1365028D1*
X2341887Y1311904D1*
X2353463Y1307429D1*
X2362827Y1301609D1*
X2371071Y1294173D1*
X2379349Y1283224D1*
X2385243Y1271391D1*
X2389724Y1256251D1*
X2391310Y1242143D1*
X2390643Y1232308D1*
X2388291Y1224274D1*
X2383723Y1215339D1*
X2377448Y1207348D1*
X2369513Y1200353D1*
X2359971Y1194399D1*
X2346741Y1188831D1*
X2362755Y1205714D1*
X2368324Y1214420D1*
X2372778Y1225419D1*
X2374870Y1235589D1*
X2374169Y1243126D1*
X2370769Y1252260D1*
X2365580Y1260110D1*
X2358667Y1266827D1*
X2350520Y1271860D1*
X2341362Y1275085D1*
X2335178Y1276106D1*
X2314161Y1164066D1*
X2314366Y1164017D1*
X2276549Y1193140D2*
X2283919Y1181031D1*
X2296323Y1170941D1*
X2306495Y1166639D1*
X2325575Y1276337D1*
X2308520Y1273395D1*
X2294573Y1266562D1*
X2282504Y1254100D1*
X2274885Y1233728D1*
X2272703Y1212846D1*
X2274550Y1199185D1*
X2276549Y1193140D1*
X1582967Y1072316D2*
X1588227Y1072633D1*
X1576329Y1095282D1*
X1570369Y1110732D1*
X1566613Y1124881D1*
X1564766Y1137738D1*
X1564747Y1152894D1*
X1566870Y1165804D1*
X1570425Y1176499D1*
X1576146Y1187449D1*
X1583058Y1196634D1*
X1592759Y1205724D1*
X1602894Y1212278D1*
X1612668Y1216416D1*
X1622723Y1218379D1*
X1632996Y1054885D1*
X1635510Y1043030D1*
X1639073Y1033583D1*
X1643375Y1026228D1*
X1648106Y1020655D1*
X1654547Y1015451D1*
X1665959Y1009648D1*
X1682539Y1006043D1*
X1699958Y1005497D1*
X1716780Y1008836D1*
X1726160Y1014154D1*
X1729357Y1017755D1*
X1731214Y1022315D1*
X1731491Y1029367D1*
X1730076Y1035487D1*
X1725741Y1044606D1*
X1718959Y1053625D1*
X1710080Y1061753D1*
X1701694Y1067083D1*
X1692369Y1070930D1*
X1680311Y1073264D1*
X1656610Y1072802D1*
X1639025Y1069597D1*
X1625072Y1300114D1*
X1617795Y1299675D1*
X1617406Y1287007D1*
X1615537Y1275420D1*
X1611136Y1261454D1*
X1603325Y1245995D1*
X1566496Y1195558D1*
X1563429Y1189375D1*
X1560787Y1182491D1*
X1557260Y1168822D1*
X1555802Y1155421D1*
X1556085Y1142453D1*
X1557782Y1130081D1*
X1562262Y1113004D1*
X1570130Y1093856D1*
X1582967Y1072316D1*
X1010680Y1080067D2*
X1022159Y1078892D1*
X1036680Y1081136D1*
X1044718Y1084858D1*
X1048598Y1088360D1*
X1050072Y1091067D1*
X1050440Y1094958D1*
X1049417Y1098946D1*
X1046608Y1103853D1*
X1040970Y1109748D1*
X1033480Y1114598D1*
X1026529Y1117165D1*
X1015058Y1117978D1*
X991564Y1111652D1*
X964482Y1227014D1*
X1116157Y1224987D1*
X1136694Y1117277D1*
X1138669Y1111223D1*
X1141097Y1106244D1*
X1143871Y1102227D1*
X1148442Y1097752D1*
X1153178Y1094798D1*
X1167728Y1090638D1*
X1182529Y1091039D1*
X1193802Y1094261D1*
X1199879Y1098239D1*
X1202091Y1100885D1*
X1203108Y1103648D1*
X1202808Y1108522D1*
X1200980Y1112854D1*
X1197369Y1117748D1*
X1190925Y1123325D1*
X1184571Y1126833D1*
X1177458Y1129030D1*
X1164364Y1129046D1*
X1144312Y1123110D1*
X1115094Y1265404D1*
X953140Y1248966D1*
X987509Y1102953D1*
X990772Y1094912D1*
X994656Y1089104D1*
X998875Y1085122D1*
X1004530Y1081950D1*
X1010680Y1080067D1*
X1859713Y1218765D2*
X1859436Y1218638D1*
X1817841Y1395770D1*
X1804163Y1396623D1*
X1855761Y1203780D1*
X1861196Y1192933D1*
X1867440Y1185546D1*
X1875706Y1179924D1*
X1891755Y1175399D1*
X1917224Y1177635D1*
X1930155Y1183438D1*
X1935832Y1189269D1*
X1937295Y1194663D1*
X1935864Y1201778D1*
X1930512Y1210340D1*
X1920899Y1218923D1*
X1909558Y1224693D1*
X1891206Y1227022D1*
X1859713Y1218765D1*
X2301843Y1313621D2*
X2317958Y1315459D1*
X2331664Y1314501D1*
X2342274Y1372832D1*
X2317198Y1397559D1*
X2305014Y1412014D1*
X2294650Y1427364D1*
X2290299Y1435458D1*
X2286583Y1443875D1*
X2283563Y1452651D1*
X2281297Y1461818D1*
X2279845Y1471409D1*
X2279269Y1481459D1*
X2279627Y1492001D1*
X2280980Y1503070D1*
X2284768Y1520122D1*
X2291518Y1539937D1*
X2299177Y1555857D1*
X2306707Y1567500D1*
X2311143Y1572697D1*
X2314748Y1575710D1*
X2316143Y1576362D1*
X2317101Y1576459D1*
X2320711Y1575343D1*
X2328841Y1570156D1*
X2336944Y1562496D1*
X2344268Y1553063D1*
X2349925Y1543503D1*
X2355336Y1531474D1*
X2360041Y1516789D1*
X2363587Y1499259D1*
X2365516Y1478696D1*
X2365373Y1454908D1*
X2359904Y1409780D1*
X2402682Y1373640D1*
X2416761Y1359373D1*
X2429466Y1343888D1*
X2435134Y1335617D1*
X2440249Y1326953D1*
X2444748Y1317865D1*
X2448563Y1308324D1*
X2451622Y1298301D1*
X2453858Y1287765D1*
X2455205Y1276688D1*
X2455543Y1266361D1*
X2454929Y1256593D1*
X2453421Y1246988D1*
X2451064Y1237594D1*
X2447888Y1228461D1*
X2443932Y1219634D1*
X2439235Y1211161D1*
X2433832Y1203092D1*
X2427764Y1195474D1*
X2421063Y1188354D1*
X2413769Y1181782D1*
X2405921Y1175803D1*
X2397554Y1170467D1*
X2388703Y1165822D1*
X2379409Y1161915D1*
X2361180Y1156795D1*
X2341491Y1154617D1*
X2313579Y1156900D1*
X2313052Y1155580D1*
X2302747Y1097059D1*
X2302306Y1084524D1*
X2303568Y1073399D1*
X2305353Y1066774D1*
X2307894Y1060790D1*
X2311182Y1055454D1*
X2315304Y1050693D1*
X2318882Y1047584D1*
X2322718Y1044966D1*
X2326749Y1042799D1*
X2335182Y1039672D1*
X2343734Y1037896D1*
X2355795Y1037102D1*
X2374348Y1039088D1*
X2378264Y1040630D1*
X2379629Y1041856D1*
X2379965Y1042856D1*
X2379827Y1043605D1*
X2378946Y1044858D1*
X2375420Y1047131D1*
X2362667Y1051218D1*
X2358618Y1053558D1*
X2355257Y1056751D1*
X2352608Y1060752D1*
X2350692Y1065510D1*
X2349531Y1070978D1*
X2349266Y1080400D1*
X2350537Y1089108D1*
X2353101Y1095824D1*
X2356946Y1101803D1*
X2361843Y1106770D1*
X2365570Y1109387D1*
X2369593Y1111353D1*
X2378518Y1113017D1*
X2385434Y1112091D1*
X2391434Y1110377D1*
X2397243Y1107731D1*
X2402594Y1103983D1*
X2405017Y1101640D1*
X2407226Y1098958D1*
X2409186Y1095915D1*
X2410870Y1092487D1*
X2412241Y1088654D1*
X2413266Y1084394D1*
X2413913Y1079686D1*
X2413961Y1069190D1*
X2412787Y1062030D1*
X2410428Y1055404D1*
X2406929Y1049356D1*
X2402329Y1043928D1*
X2396673Y1039164D1*
X2390007Y1035108D1*
X2382367Y1031802D1*
X2362167Y1027375D1*
X2344421Y1027068D1*
X2333167Y1028684D1*
X2324434Y1031289D1*
X2315951Y1035430D1*
X2310656Y1039197D1*
X2305803Y1043874D1*
X2302000Y1048828D1*
X2298950Y1054211D1*
X2295602Y1063294D1*
X2293736Y1073566D1*
X2293348Y1085008D1*
X2304147Y1155937D1*
X2303165Y1159576D1*
X2292037Y1164020D1*
X2282165Y1169841D1*
X2273564Y1177025D1*
X2266252Y1185560D1*
X2260245Y1195433D1*
X2256231Y1204730D1*
X2253060Y1215505D1*
X2251171Y1226259D1*
X2250327Y1241673D1*
X2251324Y1255307D1*
X2253531Y1266125D1*
X2255496Y1271546D1*
X2261873Y1283608D1*
X2269336Y1293761D1*
X2274907Y1299462D1*
X2280948Y1304303D1*
X2287453Y1308280D1*
X2294421Y1311387D1*
X2301843Y1313621D1*
X2259416Y1198289D2*
X2264341Y1189260D1*
X2270285Y1181266D1*
X2277236Y1174316D1*
X2285185Y1168420D1*
X2294118Y1163588D1*
X2305255Y1159445D1*
X2294357Y1092696D1*
X2293804Y1081982D1*
X2294396Y1072163D1*
X2296130Y1063255D1*
X2299004Y1055268D1*
X2303013Y1048219D1*
X2305453Y1045038D1*
X2308517Y1041768D1*
X2311804Y1038912D1*
X2318890Y1034336D1*
X2326404Y1031102D1*
X2337814Y1028312D1*
X2357182Y1027490D1*
X2373832Y1029810D1*
X2381913Y1032169D1*
X2387043Y1034231D1*
X2391759Y1036623D1*
X2396049Y1039335D1*
X2399900Y1042352D1*
X2403302Y1045664D1*
X2406239Y1049257D1*
X2408703Y1053119D1*
X2410680Y1057240D1*
X2412157Y1061604D1*
X2413122Y1066199D1*
X2413600Y1071656D1*
X2413496Y1078646D1*
X2412671Y1084818D1*
X2411198Y1090219D1*
X2409156Y1094900D1*
X2406617Y1098909D1*
X2403660Y1102298D1*
X2400357Y1105113D1*
X2396786Y1107404D1*
X2393024Y1109220D1*
X2385218Y1111627D1*
X2376610Y1112458D1*
X2373147Y1111933D1*
X2368007Y1110129D1*
X2362996Y1107054D1*
X2358577Y1102963D1*
X2354909Y1098041D1*
X2352148Y1092470D1*
X2350453Y1086433D1*
X2349731Y1078762D1*
X2349986Y1072047D1*
X2351458Y1064875D1*
X2352833Y1061412D1*
X2354728Y1058188D1*
X2357218Y1055320D1*
X2360374Y1052925D1*
X2364268Y1051122D1*
X2374672Y1047996D1*
X2378227Y1046102D1*
X2379701Y1044776D1*
X2380152Y1044101D1*
X2380406Y1043424D1*
X2380369Y1042269D1*
X2379831Y1041290D1*
X2378138Y1039978D1*
X2371625Y1037982D1*
X2358252Y1036648D1*
X2347966Y1036920D1*
X2336677Y1038764D1*
X2330984Y1040499D1*
X2325436Y1042892D1*
X2320160Y1046034D1*
X2315290Y1050013D1*
X2312281Y1053238D1*
X2309803Y1056558D1*
X2307657Y1060164D1*
X2304360Y1068227D1*
X2302394Y1077413D1*
X2301759Y1087710D1*
X2302462Y1099101D1*
X2312920Y1157542D1*
X2330856Y1155259D1*
X2349686Y1155629D1*
X2364360Y1157975D1*
X2374613Y1160781D1*
X2387028Y1165596D1*
X2398680Y1171710D1*
X2409483Y1179013D1*
X2419350Y1187396D1*
X2428199Y1196745D1*
X2435942Y1206954D1*
X2442492Y1217909D1*
X2447764Y1229503D1*
X2451672Y1241622D1*
X2454129Y1254157D1*
X2455052Y1267000D1*
X2454298Y1280991D1*
X2451869Y1295196D1*
X2447971Y1308495D1*
X2442759Y1320955D1*
X2436390Y1332648D1*
X2429028Y1343640D1*
X2420824Y1354000D1*
X2402531Y1373097D1*
X2359381Y1409668D1*
X2363618Y1439143D1*
X2364955Y1456541D1*
X2365206Y1472457D1*
X2364499Y1486941D1*
X2362965Y1500052D1*
X2360738Y1511843D1*
X2357946Y1522367D1*
X2354722Y1531681D1*
X2351199Y1539839D1*
X2347505Y1546895D1*
X2340138Y1557920D1*
X2332407Y1566433D1*
X2324222Y1572849D1*
X2318428Y1575673D1*
X2316453Y1575924D1*
X2314798Y1575159D1*
X2312610Y1573444D1*
X2307175Y1567329D1*
X2300862Y1557825D1*
X2294315Y1545165D1*
X2288177Y1529579D1*
X2283093Y1511299D1*
X2280693Y1497580D1*
X2279765Y1483438D1*
X2280490Y1470167D1*
X2282731Y1457685D1*
X2286346Y1445917D1*
X2291198Y1434785D1*
X2297147Y1424211D1*
X2304056Y1414119D1*
X2311786Y1404430D1*
X2329154Y1385955D1*
X2342810Y1373008D1*
X2332328Y1313902D1*
X2317606Y1314958D1*
X2305605Y1313882D1*
X2295169Y1311129D1*
X2286073Y1306955D1*
X2277780Y1301274D1*
X2270295Y1294094D1*
X2263634Y1285427D1*
X2257807Y1275281D1*
X2255465Y1270231D1*
X2253215Y1262738D1*
X2251560Y1252428D1*
X2250929Y1240066D1*
X2251744Y1226413D1*
X2254430Y1212234D1*
X2256610Y1205184D1*
X2259416Y1198289D1*
X2324353Y1218470D2*
X2335218Y1276127D1*
X2344794Y1274130D1*
X2353612Y1270232D1*
X2361336Y1264572D1*
X2368272Y1256496D1*
X2372871Y1247482D1*
X2374768Y1239596D1*
X2374760Y1234417D1*
X2371866Y1222591D1*
X2367081Y1212171D1*
X2357801Y1199896D1*
X2346709Y1188793D1*
X2360440Y1194647D1*
X2369908Y1200648D1*
X2377769Y1207690D1*
X2383969Y1215724D1*
X2388455Y1224702D1*
X2390698Y1232623D1*
X2391210Y1244765D1*
X2389081Y1259201D1*
X2383992Y1274361D1*
X2377865Y1285550D1*
X2369228Y1296072D1*
X2360711Y1303133D1*
X2351096Y1308560D1*
X2341865Y1311951D1*
X2351593Y1365031D1*
X2388845Y1329720D1*
X2404051Y1312193D1*
X2413995Y1298112D1*
X2422297Y1283033D1*
X2428605Y1266778D1*
X2431488Y1255364D1*
X2432686Y1244463D1*
X2432198Y1233724D1*
X2430105Y1223268D1*
X2426499Y1213217D1*
X2421465Y1203692D1*
X2415088Y1194815D1*
X2407461Y1186707D1*
X2398668Y1179490D1*
X2388798Y1173283D1*
X2377933Y1168211D1*
X2357167Y1162492D1*
X2336203Y1161135D1*
X2314140Y1164097D1*
X2324353Y1218470D1*
X2430596Y1257247D2*
X2425348Y1274652D1*
X2417794Y1290723D1*
X2405696Y1309227D1*
X2378738Y1339235D1*
X2351928Y1364055D1*
X2342516Y1312732D1*
X2343722Y1311883D1*
X2356415Y1306415D1*
X2367495Y1298398D1*
X2376790Y1287975D1*
X2384499Y1274448D1*
X2390121Y1256781D1*
X2391812Y1240438D1*
X2390726Y1230220D1*
X2386829Y1219781D1*
X2381560Y1211391D1*
X2373104Y1202560D1*
X2362394Y1195151D1*
X2345269Y1187780D1*
X2363186Y1207130D1*
X2369739Y1218521D1*
X2373320Y1229459D1*
X2374406Y1237615D1*
X2372545Y1246928D1*
X2366608Y1257992D1*
X2359087Y1265857D1*
X2349833Y1271634D1*
X2339269Y1275026D1*
X2335568Y1275472D1*
X2314756Y1164434D1*
X2339710Y1161573D1*
X2362988Y1164138D1*
X2374898Y1167601D1*
X2387600Y1173205D1*
X2398990Y1180337D1*
X2408930Y1188808D1*
X2417287Y1198433D1*
X2423928Y1209020D1*
X2428713Y1220383D1*
X2430807Y1228297D1*
X2431975Y1236415D1*
X2432184Y1244684D1*
X2431386Y1253047D1*
X2430596Y1257247D1*
X2313028Y1274639D2*
X2325677Y1276253D1*
X2306165Y1166446D1*
X2290646Y1174703D1*
X2280867Y1185021D1*
X2275604Y1195668D1*
X2272802Y1210500D1*
X2275387Y1235867D1*
X2282257Y1253713D1*
X2291980Y1264605D1*
X2303671Y1271596D1*
X2313028Y1274639D1*
X2277008Y1193327D2*
X2288045Y1177518D1*
X2306056Y1167014D1*
X2325093Y1275814D1*
X2303466Y1270966D1*
X2286280Y1258348D1*
X2275866Y1235745D1*
X2273357Y1209596D1*
X2277008Y1193327D1*
X2350559Y1416728D2*
X2317832Y1447928D1*
X2305240Y1466469D1*
X2298896Y1482925D1*
X2296833Y1497961D1*
X2298576Y1513720D1*
X2304673Y1524227D1*
X2311672Y1529320D1*
X2319274Y1530407D1*
X2332547Y1521358D1*
X2345168Y1501962D1*
X2352929Y1477951D1*
X2355076Y1451433D1*
X2350559Y1416728D1*
X2336052Y1516356D2*
X2322122Y1528978D1*
X2314265Y1529663D1*
X2306180Y1525052D1*
X2299226Y1514093D1*
X2297388Y1503181D1*
X2298667Y1486189D1*
X2304794Y1468457D1*
X2321512Y1444434D1*
X2350219Y1417661D1*
X2354622Y1454135D1*
X2350903Y1484579D1*
X2336052Y1516356D1*
X1583621Y1220010D2*
X1601129Y1243413D1*
X1609323Y1258470D1*
X1614176Y1272034D1*
X1616469Y1283273D1*
X1617352Y1295554D1*
X1617285Y1300143D1*
X1625539Y1300640D1*
X1639487Y1070231D1*
X1665629Y1074063D1*
X1682866Y1073462D1*
X1692516Y1071406D1*
X1701923Y1067524D1*
X1712324Y1060615D1*
X1720888Y1052167D1*
X1727265Y1042978D1*
X1730555Y1035627D1*
X1732135Y1027690D1*
X1731510Y1021448D1*
X1729379Y1016883D1*
X1722723Y1011119D1*
X1711014Y1006576D1*
X1697751Y1004890D1*
X1676560Y1006436D1*
X1664668Y1009614D1*
X1654259Y1015041D1*
X1647757Y1020286D1*
X1642984Y1025904D1*
X1638642Y1033312D1*
X1635045Y1042828D1*
X1632507Y1054764D1*
X1622259Y1217853D1*
X1614000Y1216298D1*
X1604997Y1212735D1*
X1595782Y1207211D1*
X1586896Y1199776D1*
X1578875Y1190476D1*
X1573753Y1182308D1*
X1568982Y1171248D1*
X1566066Y1159475D1*
X1564941Y1145469D1*
X1565705Y1133480D1*
X1568176Y1120205D1*
X1572660Y1105633D1*
X1582286Y1084159D1*
X1589079Y1072185D1*
X1582654Y1071906D1*
X1572423Y1088302D1*
X1564152Y1106280D1*
X1558864Y1122891D1*
X1556428Y1135127D1*
X1555270Y1148089D1*
X1555744Y1161600D1*
X1558194Y1175486D1*
X1560272Y1182514D1*
X1568230Y1199451D1*
X1583621Y1220010D1*
X985336Y1109647D2*
X952597Y1249411D1*
X1115490Y1265946D1*
X1144682Y1123823D1*
X1165755Y1129735D1*
X1175365Y1129856D1*
X1181738Y1128438D1*
X1189500Y1124832D1*
X1195971Y1119877D1*
X1200719Y1114234D1*
X1203357Y1108366D1*
X1203650Y1104021D1*
X1202564Y1100714D1*
X1198697Y1096588D1*
X1189940Y1092238D1*
X1174287Y1089848D1*
X1159459Y1091950D1*
X1152551Y1094549D1*
X1148127Y1097352D1*
X1143848Y1101457D1*
X1140001Y1107171D1*
X1136875Y1114797D1*
X1115795Y1224256D1*
X1115605Y1224497D1*
X965227Y1226507D1*
X965182Y1226206D1*
X991911Y1112360D1*
X1013694Y1118349D1*
X1023656Y1118249D1*
X1030402Y1116471D1*
X1037971Y1112583D1*
X1044176Y1107459D1*
X1048576Y1101764D1*
X1050711Y1096404D1*
X1050824Y1092117D1*
X1049581Y1088878D1*
X1045421Y1084744D1*
X1036416Y1080537D1*
X1020597Y1078375D1*
X1007618Y1080357D1*
X1001306Y1082940D1*
X997302Y1085724D1*
X993413Y1089828D1*
X989867Y1095570D1*
X986890Y1103268D1*
X985336Y1109647D1*
X1859782Y1219343D2*
X1891717Y1227552D1*
X1902755Y1227001D1*
X1914113Y1223361D1*
X1925652Y1215902D1*
X1933314Y1207484D1*
X1937517Y1197967D1*
X1937316Y1191520D1*
X1934466Y1186585D1*
X1924312Y1179594D1*
X1902180Y1174785D1*
X1884983Y1176146D1*
X1874562Y1179936D1*
X1867112Y1185155D1*
X1860802Y1192609D1*
X1855311Y1203551D1*
X1803505Y1397164D1*
X1818248Y1396244D1*
X1859782Y1219343D1*
X1817850Y1395770D2*
X1804172Y1396622D1*
X1855993Y1203173D1*
X1861479Y1192509D1*
X1867747Y1185268D1*
X1876001Y1179781D1*
X1891948Y1175382D1*
X1916811Y1177524D1*
X1929881Y1183245D1*
X1935723Y1189079D1*
X1937286Y1194433D1*
X1935969Y1201513D1*
X1930940Y1209825D1*
X1921518Y1218495D1*
X1910297Y1224425D1*
X1892080Y1227075D1*
X1859436Y1218638D1*
X1817850Y1395770D1*
G36*
X1803487Y1394038D2*
X1819234D1*
X1858604Y1220810D1*
X1890101Y1224747D1*
X1917659Y1220810D1*
X1937344Y1205062D1*
X1933408Y1185377D1*
X1917659Y1177503D1*
X1897974Y1173566D1*
X1878289Y1177503D1*
X1862542Y1189314D1*
X1854668Y1212936D1*
D1*
X1803487Y1394038D1*
G37*
G36*
X1638133Y1071203D2*
X1665692D1*
X1689314D1*
X1712936Y1059392D1*
X1732621Y1031833D1*
X1728684Y1012148D1*
X1705062Y1004274D1*
X1673566D1*
X1649944Y1016085D1*
X1634196Y1039707D1*
X1630259Y1086951D1*
X1622383Y1216873D1*
X1606636Y1212936D1*
X1590888Y1205062D1*
X1579077Y1189314D1*
X1567266Y1169629D1*
X1563328Y1142070D1*
X1571203Y1110573D1*
X1563328D1*
X1555455Y1146007D1*
X1563328Y1189314D1*
X1594825Y1232621D1*
X1610573Y1260180D1*
X1618448Y1295613D1*
X1626322Y1299550D1*
Y1295613D1*
X1638133Y1071203D1*
G37*
G36*
X957030Y1248369D2*
X1114510Y1264117D1*
X1146007Y1122385D1*
X1169627Y1130259D1*
X1193251Y1122385D1*
X1201125Y1110573D1*
Y1098762D1*
X1189312Y1090888D1*
X1161755D1*
X1142070Y1102699D1*
X1134196Y1134196D1*
X1114510Y1224747D1*
X964904Y1228684D1*
X992462Y1110573D1*
X1012147Y1118448D1*
X1035770Y1114510D1*
X1047581Y1102699D1*
Y1086951D1*
X1031832Y1079077D1*
X1008211D1*
X992462Y1090888D1*
X953092Y1248369D1*
D1*
X957030D1*
G37*
G36*
X2358605Y1409786D2*
X2401912Y1374353D1*
X2429470Y1342857D1*
X2449155Y1307424D1*
X2457030Y1268054D1*
X2445219Y1220810D1*
X2417660Y1185377D1*
X2386164Y1165692D1*
X2421597Y1205062D1*
X2433408Y1228684D1*
X2425534Y1275928D1*
X2390100Y1327109D1*
X2334983Y1382227D1*
X2295613Y1425534D1*
X2279865Y1468841D1*
X2283802Y1516085D1*
X2299550Y1555455D1*
X2315298Y1575140D1*
Y1527896D1*
X2299550Y1520022D1*
Y1496400D1*
X2307424Y1460967D1*
X2342857Y1421597D1*
X2350730Y1417660D1*
X2354668Y1449156D1*
X2350730Y1492463D1*
X2334983Y1516085D1*
X2315298Y1527896D1*
Y1575140D1*
X2331045Y1571203D1*
X2354668Y1531833D1*
X2366479Y1488526D1*
X2362542Y1437345D1*
D1*
X2358605Y1409786D1*
G37*
G36*
X2342857Y1370416D2*
X2331045Y1315298D1*
X2307424D1*
X2271990Y1299550D1*
X2256243Y1268054D1*
X2252304Y1244432D1*
X2256243Y1208999D1*
X2271990Y1177503D1*
X2287739Y1165692D1*
X2299550Y1161755D1*
Y1169629D1*
X2287739Y1177503D1*
X2275928Y1197188D1*
Y1232621D1*
X2287739Y1264117D1*
X2307424Y1271991D1*
X2327109Y1275928D1*
X2350730Y1271991D1*
X2370415Y1252306D1*
X2374353Y1224747D1*
X2358605Y1201125D1*
X2378290Y1205062D1*
X2390100Y1232621D1*
Y1260180D1*
X2374353Y1295613D1*
X2342857Y1311361D1*
X2354668Y1370416D1*
D1*
X2342857D1*
G37*
G36*
X2327109Y1283802D2*
Y1279865D1*
X2303487Y1157818D1*
X2315298Y1153881D1*
X2338920Y1287739D1*
D1*
X2327109Y1283802D1*
G37*
G36*
X2378290Y1114510D2*
X2401912Y1106636D1*
X2413723Y1083014D1*
X2409785Y1055455D1*
X2394038Y1035770D1*
X2362542Y1027896D1*
X2334983D1*
X2311360Y1039707D1*
X2299550Y1055455D1*
X2295613Y1086951D1*
X2303487D1*
X2307424Y1055455D1*
X2338920Y1035770D1*
X2374353D1*
X2378290Y1043644D1*
X2362542Y1055455D1*
X2354668Y1059392D1*
X2350730Y1079077D1*
X2358605Y1102699D1*
D1*
X2378290Y1114510D1*
G37*
G36*
X2027896Y1138133D2*
X2067266Y1146007D1*
Y1138133D1*
X2055454Y1134196D1*
Y1118448D1*
X2043644Y1094825D1*
X1992463Y1079077D1*
X1921597Y1067266D1*
X1846794D1*
X1638133Y1086951D1*
Y1094825D1*
X1673566D1*
X1862542Y1079077D1*
X1937344Y1083014D1*
X2031833Y1102699D1*
D1*
X2027896Y1138133D1*
G37*
G36*
X1390101Y1083014D2*
X1457030Y1098762D1*
X1480652D1*
X1472778Y1051518D1*
X1457030Y1004274D1*
X1425533Y988526D1*
X1386163Y984589D1*
X1390101Y992463D1*
X1429471Y1000337D1*
X1437345Y1012148D1*
X1425533Y1035770D1*
X1362542Y1027896D1*
Y1035770D1*
X1413723Y1043644D1*
D1*
X1390101Y1083014D1*
G37*
G36*
X2472778Y1394038D2*
X2484589Y1102699D1*
X2516085Y1090888D1*
X2492463Y1386164D1*
D1*
X2472778Y1394038D1*
G37*
G36*
X1401912Y1331046D2*
X1417660Y1334983D1*
X1405848Y1086951D1*
X1397975D1*
Y1122385D1*
X1378290D1*
Y1130259D1*
X1397975Y1134196D1*
Y1173566D1*
X1386163D1*
X1401912Y1185377D1*
Y1189314D1*
Y1331046D1*
G37*
G36*
X2484589Y1390101D2*
X2421597Y1421597D1*
X2362542Y1437345D1*
X2271990Y1445219D1*
X2216873Y1441282D1*
X2146007Y1429471D1*
X2023959Y1394038D1*
Y1386164D1*
X2146007Y1421597D1*
X2264117Y1433408D1*
X2358605Y1425534D1*
X2401912Y1409786D1*
X2484589Y1370416D1*
D1*
Y1390101D1*
G37*
G36*
X2023959D2*
X2035769Y1394038D1*
Y1142070D1*
X2027896Y1146007D1*
D1*
X2023959Y1390101D1*
G37*
G36*
X2480652Y1331046D2*
Y1303487D1*
X2433408Y1327109D1*
X2334983Y1354668D1*
X2299550Y1362542D1*
X2197188Y1358605D1*
X2094824Y1342857D1*
X2142070Y1362542D1*
X2248369Y1374353D1*
X2338920Y1370416D1*
X2441282Y1342857D1*
X2472778Y1327109D1*
D1*
X2480652Y1331046D1*
G37*
G36*
X2484589Y1260180D2*
Y1236558D1*
X2464904Y1244432D1*
X2409785Y1268054D1*
X2256243Y1291676D1*
X2153879Y1287739D1*
X2031833Y1260180D1*
Y1268054D1*
X2157818Y1295613D1*
X2256243Y1303487D1*
X2390100Y1287739D1*
X2449155Y1268054D1*
D1*
X2484589Y1260180D1*
G37*
G36*
X2488525Y1193251D2*
Y1165692D1*
X2417660Y1193251D1*
X2338920Y1208999D1*
X2299550Y1216873D1*
X2189314Y1220810D1*
X2071203Y1205062D1*
X2031833Y1197188D1*
Y1205062D1*
X2161755Y1228684D1*
X2260180Y1232621D1*
X2334983Y1224747D1*
X2421597Y1208999D1*
X2480652Y1189314D1*
X2484589D1*
X2488525Y1193251D1*
G37*
G36*
Y1122385D2*
Y1118448D1*
Y1102699D1*
X2413723Y1122385D1*
X2327109Y1142070D1*
X2252304Y1149944D1*
X2165692D1*
X2114509Y1146007D1*
X2126322Y1153881D1*
X2149944Y1157818D1*
X2295613D1*
X2382227Y1146007D1*
X2484589Y1118448D1*
D1*
X2488525Y1122385D1*
G37*
G36*
X2027896Y1338920D2*
Y1323172D1*
X1917659Y1303487D1*
X1834983Y1299550D1*
X1752306Y1307424D1*
X1638133Y1319235D1*
X1567266Y1331046D1*
X1516085Y1334983D1*
X1472778D1*
X1480652Y1342857D1*
X1555455D1*
X1657818Y1327109D1*
X1748369Y1315298D1*
X1831046Y1311361D1*
X1913723Y1315298D1*
X1964904Y1323172D1*
X2027896Y1338920D1*
G37*
G36*
Y1279865D2*
Y1264117D1*
X1933408Y1244432D1*
X1838919Y1240495D1*
X1622383Y1264117D1*
X1531833Y1275928D1*
X1535770Y1279865D1*
X1571203D1*
X1799549Y1252306D1*
X1905849Y1256243D1*
D1*
X2027896Y1279865D1*
G37*
G36*
X1464903D2*
X1504273Y1283802D1*
Y1275928D1*
X1460967Y1271991D1*
D1*
X1464903Y1279865D1*
G37*
G36*
X1547581Y1220810D2*
Y1212936D1*
X1685377Y1201125D1*
X1838919Y1185377D1*
X1909786D1*
X1960967Y1189314D1*
X2031833Y1208999D1*
Y1220810D1*
X2012148Y1216873D1*
X1937344Y1201125D1*
X1846794Y1197188D1*
X1803487D1*
X1677503Y1208999D1*
X1594825Y1220810D1*
D1*
X1547581D1*
G37*
G36*
X2031833Y1161755D2*
Y1146007D1*
X1968841Y1134196D1*
X1901912Y1126322D1*
X1795613Y1130259D1*
X1705062Y1138133D1*
X1598762Y1149944D1*
X1535770Y1157818D1*
Y1161755D1*
X1559392Y1165692D1*
X1661753Y1153881D1*
X1850731Y1138133D1*
X1929471D1*
D1*
X2031833Y1161755D1*
G37*
M02*
