G04 DipTrace 3.1.0.1*
G04 TPA3128D2route.TopDimension.gbr*
%MOIN*%
G04 #@! TF.FileFunction,Drawing,Top*
G04 #@! TF.Part,Single*
%ADD13C,0.001378*%
%ADD71C,0.006176*%
%FSLAX26Y26*%
G04*
G70*
G90*
G75*
G01*
G04 TopDimension*
%LPD*%
X520000Y394016D2*
D13*
X-570551D1*
X2708976D2*
X-570551D1*
X-550866D2*
D3*
Y453071D2*
Y433386D1*
G36*
Y394016D2*
X-558740Y433386D1*
X-542992D1*
X-550866Y394016D1*
G37*
Y334961D2*
D13*
Y354646D1*
G36*
Y394016D2*
X-542992Y354646D1*
X-558740D1*
X-550866Y394016D1*
G37*
Y460180D2*
D13*
Y394016D1*
X520000D2*
Y2697165D1*
X2834961Y520000D2*
Y2697165D1*
X1677480Y2677480D2*
X559370D1*
G36*
X520000D2*
X559370Y2685354D1*
Y2669606D1*
X520000Y2677480D1*
G37*
X1677480D2*
D13*
X2795591D1*
G36*
X2834961D2*
X2795591Y2669606D1*
Y2685354D1*
X2834961Y2677480D1*
G37*
X496378Y1386142D2*
D13*
X51496D1*
X2708976Y394016D2*
X51496D1*
X71181Y890079D2*
Y1346772D1*
G36*
Y1386142D2*
X79055Y1346772D1*
X63307D1*
X71181Y1386142D1*
G37*
Y890079D2*
D13*
Y433386D1*
G36*
Y394016D2*
X63307Y433386D1*
X79055D1*
X71181Y394016D1*
G37*
X681417Y1771969D2*
D13*
X149921D1*
X520000Y394016D2*
X149921D1*
X169606Y1082992D2*
Y1732598D1*
G36*
Y1771969D2*
X177480Y1732598D1*
X161732D1*
X169606Y1771969D1*
G37*
Y1082992D2*
D13*
Y433386D1*
G36*
Y394016D2*
X161732Y433386D1*
X177480D1*
X169606Y394016D1*
G37*
X681417Y1771969D2*
D13*
Y2016063D1*
X520000Y394016D2*
Y2016063D1*
Y1996378D2*
X681417D1*
X460945D2*
X480630D1*
G36*
X520000D2*
X480630Y1988504D1*
Y2004252D1*
X520000Y1996378D1*
G37*
X740472D2*
D13*
X720787D1*
G36*
X681417D2*
X720787Y2004252D1*
Y1988504D1*
X681417Y1996378D1*
G37*
X1823150Y1567244D2*
D13*
Y2027874D1*
X2834961Y520000D2*
Y2027874D1*
X2329055Y2008189D2*
X1862520D1*
G36*
X1823150D2*
X1862520Y2016063D1*
Y2000315D1*
X1823150Y2008189D1*
G37*
X2329055D2*
D13*
X2795591D1*
G36*
X2834961D2*
X2795591Y2000315D1*
Y2016063D1*
X2834961Y2008189D1*
G37*
X1823150Y488504D2*
D13*
Y279843D1*
X2798060Y430916D2*
Y279843D1*
X2310605Y299528D2*
X1862520D1*
G36*
X1823150D2*
X1862520Y307402D1*
Y291654D1*
X1823150Y299528D1*
G37*
X2310605D2*
D13*
X2758690D1*
G36*
X2798060D2*
X2758690Y291654D1*
Y307402D1*
X2798060Y299528D1*
G37*
X1803465Y823150D2*
D13*
Y248346D1*
X2798060Y430916D2*
Y248346D1*
X2300762Y268031D2*
X1842835D1*
G36*
X1803465D2*
X1842835Y275906D1*
Y260157D1*
X1803465Y268031D1*
G37*
X2300762D2*
D13*
X2758690D1*
G36*
X2798060D2*
X2758690Y260157D1*
Y275906D1*
X2798060Y268031D1*
G37*
X1803465Y1405827D2*
D13*
Y1964882D1*
X2834961Y520000D2*
Y1964882D1*
X2319213Y1945197D2*
X1842835D1*
G36*
X1803465D2*
X1842835Y1953071D1*
Y1937323D1*
X1803465Y1945197D1*
G37*
X2319213D2*
D13*
X2795591D1*
G36*
X2834961D2*
X2795591Y1937323D1*
Y1953071D1*
X2834961Y1945197D1*
G37*
X-603225Y454145D2*
D71*
X-601323Y448397D1*
X-595575Y444551D1*
X-586025Y442649D1*
X-580277D1*
X-570726Y444551D1*
X-564978Y448397D1*
X-563077Y454145D1*
Y457948D1*
X-564978Y463696D1*
X-570726Y467499D1*
X-580277Y469444D1*
X-586025D1*
X-595575Y467499D1*
X-601323Y463696D1*
X-603225Y457948D1*
Y454145D1*
X-595575Y467499D2*
X-570726Y444551D1*
X1642918Y2729839D2*
X1623817D1*
X1621915Y2712639D1*
X1623817Y2714540D1*
X1629565Y2716486D1*
X1635269D1*
X1641017Y2714540D1*
X1644863Y2710738D1*
X1646765Y2704990D1*
Y2701187D1*
X1644863Y2695439D1*
X1641017Y2691592D1*
X1635269Y2689691D1*
X1629565D1*
X1623817Y2691592D1*
X1621915Y2693538D1*
X1619970Y2697340D1*
X1668667Y2729839D2*
X1662963Y2727938D1*
X1661017Y2724135D1*
Y2720288D1*
X1662963Y2716486D1*
X1666765Y2714540D1*
X1674415Y2712639D1*
X1680163Y2710738D1*
X1683965Y2706891D1*
X1685866Y2703088D1*
Y2697340D1*
X1683965Y2693538D1*
X1682064Y2691592D1*
X1676316Y2689691D1*
X1668667D1*
X1662963Y2691592D1*
X1661017Y2693538D1*
X1659116Y2697340D1*
Y2703088D1*
X1661017Y2706891D1*
X1664864Y2710738D1*
X1670568Y2712639D1*
X1678217Y2714540D1*
X1682064Y2716486D1*
X1683965Y2720288D1*
Y2724135D1*
X1682064Y2727938D1*
X1676316Y2729839D1*
X1668667D1*
X1700119Y2693538D2*
X1698218Y2691592D1*
X1700119Y2689691D1*
X1702065Y2691592D1*
X1700119Y2693538D1*
X1723967Y2729839D2*
X1718263Y2727938D1*
X1716317Y2724135D1*
Y2720288D1*
X1718263Y2716486D1*
X1722065Y2714540D1*
X1729715Y2712639D1*
X1735463Y2710738D1*
X1739265Y2706891D1*
X1741166Y2703088D1*
Y2697340D1*
X1739265Y2693538D1*
X1737364Y2691592D1*
X1731616Y2689691D1*
X1723967D1*
X1718263Y2691592D1*
X1716317Y2693538D1*
X1714416Y2697340D1*
Y2703088D1*
X1716317Y2706891D1*
X1720164Y2710738D1*
X1725868Y2712639D1*
X1733517Y2714540D1*
X1737364Y2716486D1*
X1739265Y2720288D1*
Y2724135D1*
X1737364Y2727938D1*
X1731616Y2729839D1*
X1723967D1*
X28373Y834470D2*
X26472D1*
X22625Y836371D1*
X20724Y838272D1*
X18823Y842119D1*
Y849768D1*
X20724Y853571D1*
X22625Y855472D1*
X26472Y857418D1*
X30274D1*
X34121Y855472D1*
X39825Y851669D1*
X58970Y832524D1*
Y859319D1*
X18823Y894618D2*
Y875517D1*
X36022Y873616D1*
X34121Y875517D1*
X32176Y881265D1*
Y886969D1*
X34121Y892717D1*
X37924Y896564D1*
X43672Y898465D1*
X47474D1*
X53222Y896564D1*
X57069Y892717D1*
X58970Y886969D1*
Y881265D1*
X57069Y875517D1*
X55124Y873616D1*
X51321Y871670D1*
X55124Y912718D2*
X57069Y910816D1*
X58970Y912718D1*
X57069Y914663D1*
X55124Y912718D1*
X28373Y928960D2*
X26472D1*
X22625Y930861D1*
X20724Y932762D1*
X18823Y936609D1*
Y944258D1*
X20724Y948061D1*
X22625Y949962D1*
X26472Y951908D1*
X30274D1*
X34121Y949962D1*
X39825Y946160D1*
X58970Y927014D1*
Y953809D1*
X117248Y1056956D2*
Y1077959D1*
X132546Y1066507D1*
Y1072255D1*
X134448Y1076058D1*
X136349Y1077959D1*
X142097Y1079904D1*
X145899D1*
X151648Y1077959D1*
X155494Y1074156D1*
X157396Y1068408D1*
Y1062660D1*
X155494Y1056956D1*
X153549Y1055055D1*
X149746Y1053110D1*
X117248Y1115204D2*
Y1096102D1*
X134448Y1094201D1*
X132546Y1096102D1*
X130601Y1101850D1*
Y1107554D1*
X132546Y1113302D1*
X136349Y1117149D1*
X142097Y1119050D1*
X145899D1*
X151648Y1117149D1*
X155494Y1113302D1*
X157396Y1107554D1*
Y1101850D1*
X155494Y1096102D1*
X153549Y1094201D1*
X149746Y1092256D1*
X589522Y2008589D2*
Y2048736D1*
X570376Y2021986D1*
X599072D1*
X613325Y2012435D2*
X611424Y2010490D1*
X613325Y2008589D1*
X615270Y2010490D1*
X613325Y2012435D1*
X627622Y2041087D2*
X631469Y2043033D1*
X637217Y2048736D1*
Y2008589D1*
X2273446Y2050997D2*
Y2052898D1*
X2275347Y2056745D1*
X2277249Y2058646D1*
X2281095Y2060548D1*
X2288745D1*
X2292547Y2058646D1*
X2294448Y2056745D1*
X2296394Y2052898D1*
Y2049096D1*
X2294448Y2045249D1*
X2290646Y2039545D1*
X2271500Y2020400D1*
X2298295D1*
X2333594Y2060548D2*
X2314493D1*
X2312592Y2043348D1*
X2314493Y2045249D1*
X2320241Y2047194D1*
X2325945D1*
X2331693Y2045249D1*
X2335540Y2041446D1*
X2337441Y2035698D1*
Y2031896D1*
X2335540Y2026148D1*
X2331693Y2022301D1*
X2325945Y2020400D1*
X2320241D1*
X2314493Y2022301D1*
X2312592Y2024246D1*
X2310647Y2028049D1*
X2351694Y2024246D2*
X2349793Y2022301D1*
X2351694Y2020400D1*
X2353639Y2022301D1*
X2351694Y2024246D1*
X2373640Y2020400D2*
X2392785Y2060548D1*
X2365991D1*
X2235445Y342336D2*
Y344237D1*
X2237346Y348084D1*
X2239247Y349985D1*
X2243094Y351886D1*
X2250744D1*
X2254546Y349985D1*
X2256447Y348084D1*
X2258393Y344237D1*
Y340434D1*
X2256447Y336587D1*
X2252645Y330884D1*
X2233499Y311738D1*
X2260294D1*
X2291791D2*
Y351886D1*
X2272645Y325136D1*
X2301341D1*
X2315594Y315585D2*
X2313693Y313640D1*
X2315594Y311738D1*
X2317540Y313640D1*
X2315594Y315585D1*
X2337540Y311738D2*
X2356686Y351886D1*
X2329891D1*
X2391985Y346182D2*
X2390084Y349985D1*
X2384336Y351886D1*
X2380533D1*
X2374785Y349985D1*
X2370938Y344237D1*
X2369037Y334686D1*
Y325136D1*
X2370938Y317486D1*
X2374785Y313640D1*
X2380533Y311738D1*
X2382434D1*
X2388138Y313640D1*
X2391985Y317486D1*
X2393886Y323234D1*
Y325136D1*
X2391985Y330884D1*
X2388138Y334686D1*
X2382434Y336587D1*
X2380533D1*
X2374785Y334686D1*
X2370938Y330884D1*
X2369037Y325136D1*
X2226553Y310839D2*
Y312741D1*
X2228454Y316587D1*
X2230356Y318489D1*
X2234202Y320390D1*
X2241852D1*
X2245654Y318489D1*
X2247555Y316587D1*
X2249501Y312741D1*
Y308938D1*
X2247555Y305091D1*
X2243753Y299388D1*
X2224608Y280242D1*
X2251402D1*
X2286702Y320390D2*
X2267600D1*
X2265699Y303190D1*
X2267600Y305091D1*
X2273348Y307037D1*
X2279052D1*
X2284800Y305091D1*
X2288647Y301289D1*
X2290548Y295541D1*
Y291738D1*
X2288647Y285990D1*
X2284800Y282144D1*
X2279052Y280242D1*
X2273348D1*
X2267600Y282144D1*
X2265699Y284089D1*
X2263754Y287892D1*
X2304801Y284089D2*
X2302900Y282144D1*
X2304801Y280242D1*
X2306746Y282144D1*
X2304801Y284089D1*
X2321043Y310839D2*
Y312741D1*
X2322945Y316587D1*
X2324846Y318489D1*
X2328693Y320390D1*
X2336342D1*
X2340144Y318489D1*
X2342046Y316587D1*
X2343991Y312741D1*
Y308938D1*
X2342046Y305091D1*
X2338243Y299388D1*
X2319098Y280242D1*
X2345893D1*
X2381192Y314686D2*
X2379291Y318489D1*
X2373543Y320390D1*
X2369740D1*
X2363992Y318489D1*
X2360145Y312741D1*
X2358244Y303190D1*
Y293640D1*
X2360145Y285990D1*
X2363992Y282144D1*
X2369740Y280242D1*
X2371641D1*
X2377345Y282144D1*
X2381192Y285990D1*
X2383093Y291738D1*
Y293640D1*
X2381192Y299388D1*
X2377345Y303190D1*
X2371641Y305091D1*
X2369740D1*
X2363992Y303190D1*
X2360145Y299388D1*
X2358244Y293640D1*
X2264576Y1988005D2*
Y1989906D1*
X2266477Y1993753D1*
X2268379Y1995654D1*
X2272226Y1997555D1*
X2279875D1*
X2283677Y1995654D1*
X2285579Y1993753D1*
X2287524Y1989906D1*
Y1986104D1*
X2285579Y1982257D1*
X2281776Y1976553D1*
X2262631Y1957408D1*
X2289425D1*
X2324725Y1991852D2*
X2322823Y1995654D1*
X2317075Y1997555D1*
X2313273D1*
X2307525Y1995654D1*
X2303678Y1989906D1*
X2301777Y1980356D1*
Y1970805D1*
X2303678Y1963156D1*
X2307525Y1959309D1*
X2313273Y1957408D1*
X2315174D1*
X2320878Y1959309D1*
X2324725Y1963156D1*
X2326626Y1968904D1*
Y1970805D1*
X2324725Y1976553D1*
X2320878Y1980356D1*
X2315174Y1982257D1*
X2313273D1*
X2307525Y1980356D1*
X2303678Y1976553D1*
X2301777Y1970805D1*
X2340879Y1961254D2*
X2338977Y1959309D1*
X2340879Y1957408D1*
X2342824Y1959309D1*
X2340879Y1961254D1*
X2357121Y1988005D2*
Y1989906D1*
X2359022Y1993753D1*
X2360924Y1995654D1*
X2364770Y1997555D1*
X2372420D1*
X2376222Y1995654D1*
X2378123Y1993753D1*
X2380069Y1989906D1*
Y1986104D1*
X2378123Y1982257D1*
X2374321Y1976553D1*
X2355176Y1957408D1*
X2381970D1*
M02*
